<?xml version="1.0" encoding="utf-8"?>
<!-- Generator: Adobe Illustrator 26.3.1, SVG Export Plug-In . SVG Version: 6.00 Build 0)  -->
<svg version="1.1" id="Layer_1" xmlns="http://www.w3.org/2000/svg" xmlns:xlink="http://www.w3.org/1999/xlink" x="0px" y="0px"
	 viewBox="0 0 32 32" style="enable-background:new 0 0 32 32;" xml:space="preserve">
<style type="text/css">
	.st0{fill:#FCF4EC}
</style>
<path class="st0" d="M24,3H8C5.2,3,3,5.2,3,8v16c0,2.8,2.2,5,5,5h8c0.6,0,1-0.4,1-1v-8c0-0.6-0.4-1-1-1h-1v-2h1c0.6,0,1-0.4,1-1
	v-3.5c0-1.4,1.1-2.5,2.5-2.5H22v2h-1c-1.1,0-2,0.9-2,2v2c0,0.6,0.4,1,1,1h1.7l-0.5,2H20c-0.6,0-1,0.4-1,1v4c0,0.6,0.4,1,1,1
	s1-0.4,1-1v-3h1c0.5,0,0.9-0.3,1-0.8l1-4c0.1-0.3,0-0.6-0.2-0.9C23.6,15.1,23.3,15,23,15h-2v-1h2c0.6,0,1-0.4,1-1V9c0-0.6-0.4-1-1-1
	h-3.5C17,8,15,10,15,12.5V15h-1c-0.6,0-1,0.4-1,1v4c0,0.6,0.4,1,1,1h1v6H8c-1.7,0-3-1.3-3-3V8c0-1.7,1.3-3,3-3h16c1.7,0,3,1.3,3,3
	v16c0,1.7-1.3,3-3,3h-4c-0.6,0-1,0.4-1,1s0.4,1,1,1h4c2.8,0,5-2.2,5-5V8C29,5.2,26.8,3,24,3z"/>
</svg>
