<?xml version="1.0" encoding="utf-8"?>
<!-- Generator: Adobe Illustrator 26.3.1, SVG Export Plug-In . SVG Version: 6.00 Build 0)  -->
<svg version="1.1" id="Layer_1" xmlns="http://www.w3.org/2000/svg" xmlns:xlink="http://www.w3.org/1999/xlink" x="0px" y="0px"
	 viewBox="0 0 32 32" style="enable-background:new 0 0 32 32;" xml:space="preserve">
<style type="text/css">
	.st0{fill:#253232;}
</style>
<g>
	<path class="st0" d="M20.5,13.3c-0.5,0.2-0.8,0.8-0.6,1.3l0,0c0.8,2.1-0.2,4.4-2.3,5.2s-4.4-0.2-5.2-2.3s0.2-4.4,2.3-5.2
		c0.9-0.4,1.9-0.4,2.9,0c0.5,0.2,1.1-0.1,1.3-0.6c0.2-0.5-0.1-1.1-0.6-1.3c-3.1-1.2-6.6,0.4-7.7,3.5c-0.8,2.2-0.3,4.7,1.4,6.4
		c2.3,2.3,6.1,2.3,8.5,0c1.7-1.7,2.2-4.2,1.4-6.4C21.6,13.4,21,13.1,20.5,13.3L20.5,13.3z"/>
	<circle class="st0" cx="23" cy="9" r="1"/>
	<path class="st0" d="M28,9c0-2.7-2.2-4.9-4.9-5l0,0C18.4,3.6,13.7,3.6,9,4C6.3,4,4,6.2,4,8.9C3.6,13.6,3.6,18.3,4,23
		c0,2.7,2.2,4.9,4.9,5l0,0c2.4,0.2,4.7,0.3,7.1,0.3s4.7-0.1,7-0.3c2.7,0,4.9-2.2,5-4.9C28.4,18.4,28.4,13.7,28,9z M26,23
		c0,1.7-1.3,3-3,3h-0.1c-4.6,0.4-9.3,0.4-13.9,0c-1.7,0-3-1.3-3-3v-0.1C5.6,18.3,5.6,13.6,6,9c0-1.7,1.3-3,3-3h0.1
		c2.3-0.2,4.6-0.3,6.9-0.3s4.6,0.1,7,0.3c1.7,0,3,1.3,3,3v0.1C26.4,13.7,26.4,18.4,26,23z"/>
</g>
</svg>
