<svg role="img" class="svg-inline icon-Twitter" xmlns="http://www.w3.org/2000/svg" viewBox="0 0 25.72 25.72"><defs><style>.cls-39{fill:#FCF4EC}.cls-40{fill:none;stroke:#FCF4EC;stroke-miterlimit:10;stroke-width:1px;}</style></defs><title>Twitter</title><g data-name="Layer 2"><g data-name="Layer 1"><path class="cls-39" d="M17.89,9.09A2.69,2.69,0,0,0,19,7.56a4.83,4.83,0,0,1-1.61.67,2.38,2.38,0,0,0-3.64-.07,2.85,2.85,0,0,0-.74,2,3.55,3.55,0,0,0,.06.64,6.68,6.68,0,0,1-2.91-.86,7.31,7.31,0,0,1-2.31-2,2.93,2.93,0,0,0-.34,1.4,3,3,0,0,0,.3,1.33,2.86,2.86,0,0,0,.83,1,2.39,2.39,0,0,1-1.15-.36v0A2.83,2.83,0,0,0,8.08,13a2.53,2.53,0,0,0,1.45,1,2.5,2.5,0,0,1-.66.09,2.74,2.74,0,0,1-.48,0,2.76,2.76,0,0,0,.89,1.37,2.38,2.38,0,0,0,1.47.56,4.67,4.67,0,0,1-3.14,1.18,5.66,5.66,0,0,1-.61,0,6.61,6.61,0,0,0,3.89,1.25,6.85,6.85,0,0,0,2.53-.47,6.35,6.35,0,0,0,2-1.26,8.3,8.3,0,0,0,1.45-1.81,8.69,8.69,0,0,0,.9-2.14,8.55,8.55,0,0,0,.3-2.23,3.44,3.44,0,0,0,0-.36,5.67,5.67,0,0,0,1.27-1.44,4.68,4.68,0,0,1-1.46.43"/><path class="cls-40" d="M25.22,12.86A12.36,12.36,0,1,1,12.86.5,12.36,12.36,0,0,1,25.22,12.86Z"/></g></g></svg>