<svg role="img" class="svg-inline icon-Tiktok" xmlns="http://www.w3.org/2000/svg" viewBox="0 0 36 36"><defs><style type="text/css">.st0{fill:none;stroke:#FCF4EC;stroke-miterlimit:10;stroke-width:1px;}.st1{fill:#FCF4EC}</style></defs><title>Tiktok</title><circle class="st0" cx="18" cy="18" r="17.4"/><path class="st1" d="M15.3,29.3c-3.4,0-6.3-2.4-7-5.7c-0.5-2.3,0.2-4.7,1.8-6.4c1.6-1.8,4-2.6,6.3-2.3l0.6,0.1V20l-0.8-0.2c-0.7-0.2-1.5-0.1-2.2,0.3c-0.6,0.4-1,1-1.1,1.7c-0.2,1.3,0.7,2.6,2,2.8c1.3,0.2,2.6-0.7,2.8-2c0.1-2.9,0.1-6,0-9c0-2,0-4,0-6V6.9h4.8v0.7c0,1.2,0.5,2.4,1.4,3.2c0.8,0.9,2,1.4,3.2,1.4h0.6V17h-0.7c-1.6,0-3.2-0.4-4.7-1.3c0,0.7,0,1.3,0,2c0.1,4.8,0.3,10.2-6,11.5C16.1,29.3,15.7,29.3,15.3,29.3z M15.3,16.2c-1.6,0-3.2,0.6-4.4,1.8c-1.3,1.4-1.8,3.3-1.4,5.2c0.6,3.2,3.7,5.2,6.8,4.7c5.2-1.1,5.1-5.5,4.9-10.2c0-1.1-0.1-2.2,0-3.3v-1.2l1,0.7c1.2,0.9,2.7,1.5,4.2,1.6v-2.2c-1.3-0.1-2.6-0.7-3.5-1.7c-0.9-0.9-1.5-2.2-1.7-3.5h-2.2c0,1.8,0,3.5,0,5.3c0,3,0,6.2-0.1,9.2c-0.3,2.1-2.2,3.5-4.3,3.2c-2.1-0.3-3.5-2.2-3.2-4.3c0.2-1.1,0.8-2,1.7-2.6c0.7-0.5,1.5-0.7,2.4-0.6v-2.1L15.3,16.2z"/></svg>