<svg role="img" class="svg-inline icon-Facebook" xmlns="http://www.w3.org/2000/svg" viewBox="0 0 25.72 25.72"><defs><style>.cls-22{fill:none;stroke:#FCF4EC;stroke-miterlimit:10;stroke-width:1px;}.cls-23{fill:#FCF4EC;}</style></defs><title>Facebook</title><g data-name="Layer 2"><g data-name="Layer 1"><path class="cls-22" d="M25.22,12.86A12.36,12.36,0,1,1,12.86.5,12.36,12.36,0,0,1,25.22,12.86Z"/><path class="cls-23" d="M13.7,9.19a2.26,2.26,0,0,1,0-.42.88.88,0,0,1,.1-.3.4.4,0,0,1,.27-.2,1.59,1.59,0,0,1,.49-.06H15.7V5.77H13.92a2.73,2.73,0,0,0-2.22.8A3.62,3.62,0,0,0,11,8.94v1.47H9.7v2.45H11V20H13.7V12.86h1.78l.24-2.45h-2Z"/></g></g></svg>