<svg role="img" class="svg-inline icon-Pinterest" xmlns="http://www.w3.org/2000/svg" viewBox="0 0 25.72 25.72"><defs><style>.cls-34{fill:#FCF4EC;}.cls-35{fill:none;stroke:#FCF4EC;stroke-miterlimit:10;stroke-width:1px;}</style></defs><title>Pinterest</title><g data-name="Layer 2"><g data-name="Layer 1"><path class="cls-34" d="M12,14.87c-.33,1.71-.73,3.36-1.91,4.21-.37-2.59.53-4.53.95-6.6-.71-1.2.09-3.62,1.59-3,1.86.73-1.6,4.46.72,4.93s3.41-4.2,1.91-5.73c-2.17-2.2-6.32-.05-5.81,3.11.12.77.92,1,.32,2.06C8.38,13.53,8,12.43,8,11a4.68,4.68,0,0,1,4.22-4.3c2.61-.29,5.07,1,5.4,3.43.39,2.77-1.18,5.78-4,5.56A3.29,3.29,0,0,1,12,14.87"/><path class="cls-35" d="M25.22,12.86A12.36,12.36,0,1,1,12.86.5,12.36,12.36,0,0,1,25.22,12.86Z"/></g></g></svg>