<?xml version="1.0" encoding="utf-8"?>
<!-- Generator: Adobe Illustrator 26.3.1, SVG Export Plug-In . SVG Version: 6.00 Build 0)  -->
<svg version="1.1" id="Layer_1" xmlns="http://www.w3.org/2000/svg" xmlns:xlink="http://www.w3.org/1999/xlink" x="0px" y="0px"
	 viewBox="0 0 32 32" style="enable-background:new 0 0 32 32;" xml:space="preserve">
<style type="text/css">
	.st0{fill:#253232;}
</style>
<path class="st0" d="M28.8,8.1C28.7,8,28.6,8,28.5,7.9C28.8,7.5,28.9,7,29,6.5c0.1-0.4-0.1-0.8-0.4-1s-0.8-0.2-1.1,0
	c-0.7,0.5-1.5,0.8-2.3,1c-1.9-1.8-4.7-2.2-7.1-1c-2.4,1.3-3.7,4-3.1,6.7c0.1,0.6,0.6,0.9,1.2,0.8c0.6-0.1,0.9-0.6,0.8-1.2
	c-0.4-1.8,0.4-3.6,2-4.5c1.7-0.9,3.8-0.5,5.1,1c0.2,0.2,0.6,0.3,0.9,0.3h0.2c-0.4,0.4-0.4,1,0,1.4c0.1,0.1,0.2,0.2,0.3,0.2
	c-0.3,0.2-0.4,0.5-0.4,0.9c0.3,4.3-1.5,8.5-4.9,11.2c-3.5,3-8.3,3.9-12.6,2.3c1.7-0.3,3.3-1,4.5-2.2c0.3-0.3,0.3-0.7,0.1-1.1
	s-0.5-0.6-0.9-0.6c-1.2,0-2.2-0.5-3-1.4c0.3-0.1,0.7-0.2,1-0.4c0.4-0.2,0.6-0.6,0.6-1c-0.1-0.4-0.4-0.7-0.8-0.8
	c-1.3-0.3-2.4-1.2-3-2.5c0.2,0,0.5,0.1,0.7,0.1c0.4,0,0.8-0.2,1-0.6c0.1-0.4,0-0.9-0.3-1.1C6,11.5,5.6,9.9,5.8,8.7
	c1.9,2,4.3,3.4,7,4c0.6,0.1,1.1-0.3,1.2-0.8c0.1-0.6-0.3-1.1-0.8-1.2c-2.7-0.6-5.1-2.2-6.8-4.4C6.2,6.1,5.9,5.9,5.6,5.9
	C5.3,5.9,5.1,6,4.9,6.3c-1.3,1.7-1.4,4.1-0.3,6H4.5C4.2,12.5,4,12.8,4,13.1c0,1.7,0.7,3.3,1.9,4.5c-0.2,0.3-0.3,0.7-0.2,1
	c0.6,1.5,1.7,2.8,3.2,3.6C7.3,22.7,5.7,23,4,23c-0.6,0-1,0.5-1,1c0,0.3,0.2,0.7,0.5,0.8c2.6,1.6,5.5,2.4,8.5,2.5
	c3.5,0,6.9-1.3,9.6-3.6c3.8-3,5.9-7.6,5.7-12.4c0.8-0.6,1.3-1.4,1.6-2.2C29,8.8,29,8.4,28.8,8.1z"/>
</svg>
