<?xml version="1.0" encoding="utf-8"?>
<!-- Generator: Adobe Illustrator 26.3.1, SVG Export Plug-In . SVG Version: 6.00 Build 0)  -->
<svg version="1.1" id="Layer_1" xmlns="http://www.w3.org/2000/svg" xmlns:xlink="http://www.w3.org/1999/xlink" x="0px" y="0px"
	 viewBox="0 0 32 32" style="enable-background:new 0 0 32 32;" xml:space="preserve">
<style type="text/css">
	.st0{fill:#253232;}
</style>
<g>
	<path class="st0" d="M30,12c0-3-2.3-5.5-5.3-5.7C18.9,6,13.1,6,7.3,6.3C4.5,6.3,2,9,2,12c-0.3,2.9-0.3,5.8,0,8.7
		C2,23.6,4.4,26,7.3,26l0,0c2.9,0.2,5.8,0.2,8.7,0.2s5.8-0.1,8.7-0.2c2.9,0,5.3-2.3,5.3-5.3C30.4,17.9,30.4,14.9,30,12z M28,20.6
		v0.1c0,1.9-1.5,3.4-3.4,3.3l0,0c-5.8,0.3-11.5,0.3-17.3,0C5.4,24,4,22.5,4,20.6c0,0,0,0,0-0.1c-0.3-2.8-0.3-5.7,0-8.5v-0.1
		C4,10,5.4,8.3,7.4,8.1C10.3,8,13.1,7.9,16,7.9s5.8,0.1,8.6,0.2l0,0c1.7,0,3.3,1.8,3.3,3.8V12C28.4,15,28.4,17.8,28,20.6L28,20.6z"
		/>
	<path class="st0" d="M20.8,15.5l-7.1-3.7c-0.5-0.3-1.1-0.1-1.4,0.4c-0.3,0.5-0.1,1.1,0.4,1.4l0,0l5.4,2.8l-4,2.1v-2.1
		c0-0.6-0.4-1-1-1s-1,0.4-1,1v3.7c0,0.6,0.4,1,1,1c0.2,0,0.3,0,0.5-0.1l7.1-3.7c0.3-0.2,0.5-0.5,0.5-0.9
		C21.3,16,21.1,15.7,20.8,15.5z"/>
</g>
</svg>
