<?xml version="1.0" encoding="UTF-8"?><svg id="a" xmlns="http://www.w3.org/2000/svg" viewBox="0 0 73.39 67.28"><defs><style>.b{fill:#263232;}</style></defs><path class="b" d="M73.38,45.43c.02-.11,.01-.22-.04-.35-.56-1.58-2.48-2.09-3.82-1.1-.98,.72-1.32,1.77-1.35,2.88-.53-.19-1.02-.48-1.45-.89-.4-.46-.68-.99-.83-1.56,1.35-.07,2.62-.67,3.33-1.92,.03-.06,.06-.12,.07-.17h0c.91-2.7-2.29-3.93-3.97-1.98-.6,.69-.92,1.51-1.02,2.36-.24-.08-.47-.19-.69-.31,.62-5.48-.5-11.17-3.43-16.17-6.27-10.69-18.56-14.44-30.2-11.57-1.87-1.68-3.76-3.35-5.63-5.03-.38-.35-1.13-.25-1.24,.33-.54,2.77-1.03,5.56-1.57,8.33-4.16,2.64-7.58,6.16-9.84,10.55-1.4-.58-2.84-1.07-4.23-1.68-.07-.03-.15-.05-.22-.06-.28-.07-.6,0-.8,.32-2.23,3.63-4.12,7.45-6.35,11.07-.1,.17-.13,.33-.1,.47,.01,.21,.12,.41,.37,.54,1.75,.9,3.47,1.88,5.21,2.81-.74,.59-1.46,1.19-2.23,1.74-.13,.09-.22,.21-.27,.34v.02l-.02,.02c-.14,.34-.07,.75,.31,.93,.11,.07,.23,.12,.37,.11,1.7,.42,3.34,1.06,5.04,1.49,1.58,4.06,3.91,7.68,7.19,10.56-.63,2.58-.87,5.22-1.55,7.79-.16,.6,.54,1.2,1.09,.84,1-.65,1.96-1.33,3-1.88,.45,.78,.87,1.53,1.04,2.45,.12,.65,1.05,.7,1.36,.18,.97-1.66,1.91-3.34,2.83-5.03,7.99,2.7,17,2.64,25.01,.04,1.02,1.8,2.16,3.57,3.51,5.14,.35,.41,1.14,.21,1.24-.33,.17-.92,.6-1.67,1.04-2.45,1.05,.55,2.01,1.22,3,1.88,.55,.36,1.26-.24,1.09-.84-.73-2.63-1.47-5.26-2.2-7.9,3.75-3.77,6.08-8.49,6.96-13.47,.31,.14,.63,.24,.97,.32,.17,.94,.59,1.85,1.19,2.59,.03,.05,.07,.11,.12,.16,.05,.06,.1,.1,.16,.14,.71,.64,1.55,1.08,2.46,1.29,.06,.37,.13,.72,.21,1.06,.22,.93,1.65,.54,1.43-.4-.04-.18-.08-.36-.13-.55,.18-.01,.35-.03,.53-.06,1.53-.27,3.13-1.39,3.03-3.07Zm-19.77,17.49c-.38,.7-.79,1.36-1.1,2.06-1.03-1.36-1.93-2.84-2.76-4.33-.04-.07-.09-.13-.14-.18-.16-.17-.4-.26-.7-.16-8.09,2.75-17.25,2.82-25.32-.05-.3-.11-.55-.02-.71,.16-.05,.05-.1,.11-.13,.18-.75,1.39-1.52,2.77-2.3,4.14-.29-.61-.65-1.19-.99-1.81-.21-.38-.66-.42-1.02-.27-.77,.34-1.48,.77-2.17,1.22,.42-2.12,.68-4.27,1.23-6.36,.12-.24,.09-.53-.18-.76-3.37-2.85-5.74-6.48-7.28-10.6h0c-.05-.24-.21-.45-.52-.52-1.41-.33-2.77-.83-4.15-1.25,.65-.52,1.29-1.05,1.97-1.53,.12-.08,.2-.19,.25-.3,.19-.31,.18-.73-.2-.96-.08-.07-.17-.12-.27-.15-1.79-.93-3.54-1.93-5.33-2.87,1.95-3.24,3.68-6.61,5.63-9.85,1.35,.55,2.73,1.03,4.08,1.61,.19,.08,.38,.08,.54,.03,.27,.06,.56-.03,.73-.36,2.19-4.46,5.56-7.97,9.76-10.59,.16-.06,.29-.19,.36-.39h0s.03-.06,.04-.1c.48-2.45,.92-4.9,1.38-7.35,1.65,1.47,3.3,2.94,4.94,4.42,.04,.04,.09,.07,.14,.1,.15,.11,.35,.15,.59,.09,11.12-2.89,22.92,.56,28.92,10.79,5.64,9.62,4.21,21.89-3.82,29.7-.18,.17-.24,.37-.22,.55,0,.06,.01,.11,.03,.17,.6,2.13,1.19,4.26,1.78,6.4-.66-.42-1.33-.82-2.06-1.14-.36-.16-.81-.12-1.02,.27Zm14.29-21.12c-.47,.77-1.26,1.11-2.1,1.13,.06-.5,.21-.99,.49-1.41,.57-.85,1.94-.93,1.61,.27Zm1.72,5.29c0-.43,.06-.85,.25-1.23,.32-.67,1.61-1.47,2.02-.43,.02,1.12-1.27,1.62-2.27,1.66Z"/><path class="b" d="M57.08,50.94c4.2-5.68,4.71-12.66,2.42-18.77,.03-.05,.05-.11,.01-.19-.35-.85-.76-1.65-1.2-2.42-1.42-2.66-3.39-5.08-5.84-7.04,0,0-.02,0-.03-.01,0,0-.01-.02-.02-.02-7.3-5.31-17.56-6.38-26.03-3.48-8.54,2.93-14.29,10.79-14.9,19.8-.7,10.34,7.64,17.42,16.84,20.21,10.22,3.1,22.17,.85,28.75-8.07Zm-34.64-15.54c-2.6-2.36-6.43-2.55-9.21-.18,.27-.23-.86,.86-.84,.86-.02,0-.04,0-.05,.01,.22-1.18,.54-2.34,.94-3.48,.13-.29,.23-.53,.29-.68,.71-1.79,1.64-3.51,2.77-5.07,.16-.22,.32-.44,.49-.65,.02-.03,.04-.05,.06-.08,1.6-1.99,3.55-3.69,5.76-4.94,8.85-4.97,21.19-4.27,29.41,1.66,.08,.06,.16,.12,.23,.18,2.75,2.25,4.82,5.01,6.15,8.01-.21-.07-.52-.19-.96-.35-1.39-.52-2.94-.53-4.36-.1-1.41,.43-2.71,1.3-3.61,2.48-1.03,1.34-.89,3.37-2.27,3.91-.74,.29-1.99,.07-2.82,.35-.78,.26-1.52,.66-2.16,1.17-.57,.45-1.05,.97-1.45,1.57-.15,.22-1.06,2.81-1.06,2.81,.19-.1-3.88-1.77-4.19-1.93-.44-.22-.69-.25-.82-.24,.1-.1,.24-.33,.38-.86,.26-.99,.74-1.71,.84-2.79,.79-8.75-11.97-9.74-13.54-1.68Zm31,18.74c-10.27,8.94-27.87,7-37-2.77-3.67-3.92-4.9-9.05-4.28-14.07,2.35-3.64,7.16-4.41,10.26-1.23,.07,.07,.14,.08,.21,.07,.1,0,.19-.05,.21-.18,.46-3.29,3.13-5.81,6.53-5.78,5.73,.04,7.53,6.92,4.28,10.91-.12,.15-.06,.45,.18,.43,2.48-.24,4.39,.58,5.96,2.49,.15,.18,.42,.02,.43-.18,.23-4.32,3.98-7.03,8.16-6.15,.16,.03,.32-.07,.32-.24,.03-5.28,5.85-8.48,10.18-5.36,2.86,7.47,1.3,16.18-5.45,22.06Z"/><path class="b" d="M47.11,28.35c.67-3.12-1.79-5.94-4.89-6.22-3.26-.3-6.13,2.46-5.78,5.75,.61,5.79,9.03,5.41,10.68,.47Zm-6.76-5.55c3.31-.94,7.02,1.89,6.27,5.42-1.26,3.78-7.43,5.03-9.29,1.02-1.19-2.56,.31-5.67,3.02-6.44Z"/><path class="b" d="M23.78,39.18c-3.26-.3-6.13,2.46-5.78,5.75,.61,5.79,9.03,5.41,10.68,.47,.67-3.12-1.79-5.94-4.89-6.22Zm4.4,6.09c-1.26,3.78-7.43,5.03-9.29,1.02-1.19-2.56,.31-5.67,3.02-6.44,3.31-.94,7.02,1.89,6.27,5.42Z"/><path class="b" d="M50.89,39.68c-3.26-.3-6.13,2.46-5.78,5.75,.61,5.79,9.03,5.41,10.68,.47,.67-3.12-1.79-5.94-4.89-6.22Zm-4.88,7.11c-1.19-2.56,.31-5.67,3.02-6.44,3.31-.94,7.02,1.89,6.27,5.42-1.26,3.78-7.43,5.03-9.29,1.02Z"/><path class="b" d="M47.48,7.92c.04-.06,.07-.13,.09-.22,.03-.08,.04-.16,.04-.24,.66-3.31-1.5-6.59-4.84-7.34-3.04-.68-6.18,1.34-6.81,4.39-1.44,7.04,8.89,9.91,11.51,3.4Zm-10.08-3c1.04-5.86,10.08-3.24,8.74,2.39-1.84,5.06-9.66,2.82-8.74-2.39Z"/></svg>