<?xml version="1.0" encoding="utf-8"?>
<!-- Generator: Adobe Illustrator 26.3.1, SVG Export Plug-In . SVG Version: 6.00 Build 0)  -->
<svg version="1.1" id="Layer_1" xmlns="http://www.w3.org/2000/svg" xmlns:xlink="http://www.w3.org/1999/xlink" x="0px" y="0px"
	 viewBox="0 0 300 300" style="enable-background:new 0 0 300 300;" xml:space="preserve">
<style type="text/css">
	.st0{fill:#2D2D2D;}
	.st1{fill:#231F20;}
	.st2{fill:#414042;}
</style>
<path class="st0" d="M222.4,1.2c-0.5,0.2-0.7,0.8-0.7,1.3c-0.1,0.6,0.3,1.1,0.8,1.3c0.6,0.2,1.5-0.1,1.7-0.6c0,0,0-0.1,0-0.2
	c0.3-0.5,0-1.1-0.3-1.4C223.6,1.1,222.9,0.9,222.4,1.2z"/>
<path class="st0" d="M272.8,41.8c-2.9,1.4-3,4.6-1.5,6.7c0.3,0.5,0.8,1,1.3,1.4c2,1.4,4.5,0.9,6-1c1.3-1.7,1.3-4.1,0.1-5.9
	C277.3,41,274.9,40.8,272.8,41.8z"/>
<path class="st0" d="M221.5,6.1c-1.7-0.2-2.9,1.3-2.8,2.7c-0.1,0.7,0.2,1.5,0.7,2c0.9,0.9,2.4,0.8,3.3,0c0.8-0.6,1.4-1.7,1.2-2.7
	C223.9,6.8,222.8,6.2,221.5,6.1z"/>
<path class="st0" d="M290,62c-0.5-0.4-1.3-0.2-1.8,0.2c-0.6,0.4-0.9,1-1,1.7c-0.1,0.8,0.6,1.5,1.3,1.8c0.9,0.3,1.9-0.3,2.2-1.2
	c0-0.1,0.1-0.2,0.1-0.4V64C290.9,63.2,290.6,62.4,290,62z"/>
<g>
	<path class="st0" d="M263.2,200c-0.4-2-2.4-3.2-4.3-3.1c-2.1,0.1-3.4,1.6-3.6,3.6v0.1c-0.3,2.8,2.2,4.5,4.8,4.2
		C262.4,204.5,263.6,202.2,263.2,200z M260.2,203.4c-2.1,0.7-3.7-0.9-3.8-2.8l0,0c0.4-2.7,4.1-3.1,5.4-0.8
		C262.5,201.2,261.7,202.9,260.2,203.4z"/>
	<path class="st0" d="M260.2,199C260.2,198.9,260.1,199,260.2,199c0.4,0.6,0.7,1.1,0.7,1.8c0,0.8-0.5,1.3-0.9,1.9c0,0,0,0.1,0.1,0.1
		C261.7,202.6,261.9,199.2,260.2,199z"/>
	<path class="st0" d="M259.8,202.7h-0.1c-0.1,0.1-0.2,0.2-0.4,0.1c0,0-0.1,0,0,0.1c0.2,0.2,0.4,0.2,0.6,0
		C259.8,202.9,259.8,202.8,259.8,202.7C259.8,202.8,259.8,202.7,259.8,202.7z"/>
</g>
<path class="st0" d="M4.8,86.9c-1.3,2.3,0.1,4.5,2.2,5.2c0.5,0.2,1,0.3,1.4,0.3c2,0,3.4-1.5,3.5-3.4c0.1-1.8-1-3.4-2.7-4
	C7.4,84.3,5.7,85.3,4.8,86.9z"/>
<path class="st0" d="M13.3,8.5c-1.2,0.7-1.3,2.2-0.5,3.1c0.3,0.5,0.8,0.9,1.4,0.9c1,0.2,1.9-0.6,2.2-1.5c0.3-0.8,0.1-1.7-0.5-2.3
	C15.2,7.8,14.2,8,13.3,8.5z"/>
<path class="st0" d="M296.3,291.4c-0.4,0.2-0.6,0.7-0.7,1.2s0.3,1,0.7,1.2c0.5,0.2,1.4-0.1,1.6-0.6c0,0,0-0.1,0.1-0.1
	c0.2-0.4,0-1-0.3-1.3C297.3,291.2,296.7,291.1,296.3,291.4z"/>
<path class="st0" d="M272.4,292.5c-0.5-0.3-1.2-0.3-1.6,0.1c-0.4,0.3-0.7,1-0.6,1.5c0.1,0.6,0.4,0.9,0.9,1.2
	c0.8,0.3,1.8-0.1,2.1-0.9c0.1-0.2,0.1-0.5,0-0.7C273.2,293.2,272.8,292.7,272.4,292.5z"/>
<path class="st0" d="M293.1,221.1c0.8-1.1,0.8-2.6,0-3.7c-0.9-1.2-2.4-1.4-3.7-0.7c-1.8,0.9-1.9,2.9-0.9,4.3
	c0.2,0.3,0.5,0.6,0.8,0.8C290.6,222.6,292.2,222.3,293.1,221.1z"/>
<path class="st0" d="M239,260.1c-2.3,1.5-1.8,5.3,0.5,5.8c1.3,0.6,2.9-0.1,3.8-1.1c1.1-1.3,1.1-3.1,0-4.4
	C242.3,259.2,240.3,259.3,239,260.1z"/>
<path class="st0" d="M287.2,239c1-6.5-1.5-15.6-8.3-18.1c-3.8-1.4-7.8-0.1-10.4,2.8c-2.9,3.1-3.5,7.9-3.2,12c-1.8-0.1-3.7,0.2-5.3,1
	c-3.5-5.2-9.7-9.1-15.8-5.7c-3.8,2.1-4.9,6.7-4.6,10.7c0.3,4.5,2.4,9,5.6,12.2c3.2,3.1,6.9,3.7,10.8,2.4c0.9,1.3,2,2.5,2.9,3.7
	c-0.9,4.1,0.4,8.6,2.4,12.1c2.4,4.1,6.6,7.3,11.4,7.2c0.6,0,1.1-0.1,1.6-0.2c4.7,5.7,9.4,11.4,14,17.1c0.1,0.3,0.4,0.6,0.6,0.8
	c0.2,1.7-1,3.3-1.1,5.1c-0.1,2.2,0.3,4.2,1.9,5.7c0.1,0.1,0.2,0,0.2-0.1c-1.7-2.9-1.8-5.4-0.7-8.5c0.1-0.3,0.2-0.7,0.3-1.1
	c0.2,0.4,0.5,0.7,0.8,1c2.4,2.7,3.6,4.5,4.1,8.1c0,0.1,0.2,0.1,0.2,0c0.2-2-0.3-3.6-1.3-5.3c-1-1.7-2.3-2.8-3.3-4.3l0,0
	c1.1,0.4,2.2,0.8,3.2,1.3s1.7,1.4,2.6,2.1c0.1,0,0.1,0,0.1-0.1c-0.6-1.2-1.7-2-2.9-2.6c-1.2-0.7-2.6-0.8-3.6-1.6
	c-0.2-0.4-0.3-0.8-0.5-1.2c0-6.5-0.3-13-0.7-19.5c-0.2-3.3-0.3-6.7-0.6-10c0-0.1,0-0.1,0-0.2C299.6,262.9,297.7,243.1,287.2,239z
	 M289.5,242.1c4.1,2.2,5.7,9.8,4.7,14c0,0.1-0.3,0.1-0.3,0C293.7,250.7,292.8,246.3,289.5,242.1
	C289.4,242.1,289.4,242.1,289.5,242.1z M247.4,253.2c-5.2-2.7-8.7-13.7-5-18.5c0-0.1,0.1,0,0.1,0.1c-0.8,3.6-1.3,6.8,0.1,10.4
	c1.1,3.1,3.1,5.2,4.9,7.9C247.5,253.1,247.4,253.2,247.4,253.2z M249.2,254.7c-0.3,0-0.6-0.3-0.8-0.5s-0.4-0.4-0.4-0.7
	c0,0,0,0,0.1,0c0.3,0,0.4,0.3,0.6,0.4c0.2,0.2,0.5,0.4,0.7,0.7C249.3,254.6,249.3,254.7,249.2,254.7z M250.3,248.2
	c-0.3,0.1-0.6,0-0.9-0.1c-0.2-0.1-0.6-0.3-0.5-0.6C249.1,247.1,250.2,247.9,250.3,248.2C250.3,248.1,250.3,248.2,250.3,248.2z
	 M250.6,247.7C250.6,247.7,250.5,247.7,250.6,247.7c-0.3-0.1-0.5-0.2-0.6-0.5c0-0.2,0.1-0.3,0.2-0.3
	C250.6,247,250.8,247.4,250.6,247.7z M249.5,239.4c-0.4-0.1-0.7-0.4-0.9-0.7s-0.6-0.5-0.5-0.9l0.1-0.1c0.4,0,0.5,0.4,0.7,0.6
	c0.3,0.3,0.5,0.6,0.7,1C249.6,239.4,249.6,239.5,249.5,239.4z M250.2,238.8l-0.1,0.1c-0.3-0.1-0.4-0.4-0.5-0.7
	c-0.1-0.1-0.2-0.5,0-0.5C250,237.5,250.4,238.5,250.2,238.8z M251,231.8c1.1-0.1,2.4,0.8,3.3,1.5c0.9,0.7,2,1.5,2.4,2.6
	c0,0.1-0.1,0.2-0.2,0.1c-1-0.6-1.7-1.6-2.6-2.4C253,232.9,251.8,232.5,251,231.8C250.9,231.9,250.9,231.8,251,231.8z M258.9,238.7
	c2.5-1.8,5.8-2,8.7-1.2c3.5,1,5.8,4.1,7.4,7.1c-0.6,1.4-1.1,2.9-1.3,4.3c-0.2,1.3-0.2,2.8-0.1,4.2c-5.1-2.1-11.3-0.8-13.9,4.3
	C255.1,252.2,251.9,243.5,258.9,238.7z M276.7,256.4c0.6,1.7,1.3,3.4,2.4,4.7c1.2,1.4,2.6,2,4,3c0.1,0.1,0,0.2-0.1,0.2
	c-6.9-0.8-10.2-12.9-6.8-18.2c0-0.1,0.2,0,0.2,0.1C275.5,249.6,275.5,253,276.7,256.4z M284.5,264.4c0.2,0,0.3,0,0.4,0.1v0.1
	c-0.1,0.2-0.4,0.1-0.5,0.1c-0.2,0-0.4-0.1-0.6-0.2c-0.1-0.1,0-0.3,0.1-0.2C284,264.4,284.2,264.4,284.5,264.4z M282.3,256.6
	c0.2,0.1,0.2,0.3,0.3,0.5c0,0.1-0.1,0.2-0.2,0.2s-0.2-0.1-0.3-0.1c-0.1-0.1-0.1-0.1-0.2-0.2C281.7,256.7,282.1,256.5,282.3,256.6z
	 M282,257.9c-0.1,0-0.2,0-0.3,0c-0.1,0-0.2-0.1-0.4-0.1c-0.2-0.1-0.5-0.2-0.5-0.4v-0.1c0.2-0.1,0.5,0,0.7,0.1
	c0.1,0.1,0.2,0.1,0.3,0.2C281.9,257.7,281.9,257.8,282,257.9C282.2,257.8,282.1,257.9,282,257.9z M256.2,256.2
	c0.3-0.1,0.5-0.2,0.8-0.3c0.7,1,1.5,2,2.3,2.9c-0.1,0.3-0.2,0.5-0.2,0.8C258,258.5,257.1,257.4,256.2,256.2z M272.3,278
	c-4.1,0.1-7.5-3-9.6-6.2c-2.1-3.3-3.2-7.6-2.4-11.5c1.3-6.4,8.3-8.3,13.6-5.5c0.7,4.7,3.2,9.3,7.6,11c0.1,0.1,0.3,0.1,0.4,0.2
	c0,0.1,0,0.1,0,0.2C282.8,272.3,278.7,277.8,272.3,278z M274.9,279.1c1.2-0.3,2.2-0.7,3.2-1.3c3.1,5.7,6.2,11.5,9.6,17.1
	C283.6,289.4,279.1,284.3,274.9,279.1z M288.3,295.1L288.3,295.1c-3.1-6-6.6-11.7-9.9-17.6c0.8-0.5,1.5-1.1,2.1-1.8
	c2.8,6.6,5.6,13.2,8,19.9C288.4,295.5,288.4,295.3,288.3,295.1z M288.2,293.8c-2-6.3-4.8-12.4-7.4-18.5c2-2.5,2.9-5.7,2.5-9.1h0.1
	C285.1,275.4,286.3,284.6,288.2,293.8z M287.2,266.1c0.1,3.3,0.3,6.7,0.4,10c0.2,5.6,0.4,11.1,0.9,16.6c-1.4-8.8-2.8-17.7-4.6-26.5
	c0.6,0,1.2,0,1.8-0.1c0.1,0,0.1,0,0.2,0C286.4,266.2,286.8,266.1,287.2,266.1L287.2,266.1z M282.7,245.7c0,0.1,0,0.2,0,0.3
	s-0.1,0.1-0.1,0.1c-0.2-0.1-0.4-0.2-0.5-0.4c-0.1-0.3-0.3-0.5-0.3-0.9c0-0.2,0.3-0.4,0.4-0.2c0.2,0.2,0.3,0.5,0.4,0.7
	C282.6,245.4,282.7,245.5,282.7,245.7z M286.5,252.9c-0.1,0.2-0.2,0.3-0.3,0.4c0,0-0.1,0-0.1-0.1c0-0.2,0-0.4,0.1-0.6
	c0.1-0.1,0.2-0.3,0.3-0.2C286.6,252.6,286.6,252.8,286.5,252.9z M286.1,251.6c-0.1,0.5-0.3,0.9-0.5,1.3c-0.1,0.1-0.2,0-0.2-0.1
	c0.1-0.5,0.2-1.1,0.3-1.6c0-0.1,0.1-0.9,0.4-0.7C286.4,250.7,286.2,251.3,286.1,251.6z M283.1,245.4c0-0.2-0.1-0.3-0.1-0.5
	c0-0.1,0.1-0.1,0.2-0.1l0,0c0.1,0,0.1,0.1,0.1,0.2c0,0.2,0,0.3-0.1,0.5C283.3,245.5,283.1,245.5,283.1,245.4z M289.7,258.7
	c0.1-0.4,0.2-1,0.6-1.2c0,0,0.1,0,0.1,0.1c0.1,0.5-0.4,0.9-0.6,1.2C289.7,258.8,289.6,258.8,289.7,258.7z M291,258.6
	c0,0.4-0.3,0.6-0.6,0.7c-0.1,0-0.1-0.1-0.1-0.1c0.1-0.2,0.2-0.5,0.4-0.7C290.8,258.4,291,258.4,291,258.6z M275.7,243.4
	c-1.9-3.2-4.1-5.9-7.7-7.2c-0.4-0.1-0.8-0.3-1.2-0.3c-0.4-3.8,0.2-7.6,2.4-10.8c2.2-3.1,6.3-4.2,9.8-2.8c5.7,2.4,7.8,10.4,7,16.2
	C281.3,237.4,277.7,239.8,275.7,243.4z"/>
<path class="st0" d="M296.5,29.9c0,0,0-0.1,0.1-0.1c0.2-0.4,0-0.9-0.3-1.2c-0.3-0.4-0.9-0.5-1.3-0.3s-0.6,0.7-0.6,1.1
	c0,0.5,0.2,0.9,0.7,1.1C295.5,30.6,296.2,30.4,296.5,29.9z"/>
<path class="st0" d="M230.1,40.1c-0.2-0.6-0.8-1.1-1.4-1c-0.4,0-0.8,0.2-0.9,0.6c-0.2,0.4-0.2,0.9-0.1,1.3c0,0.2,0.2,0.3,0.3,0.4
	c0.2,0.2,0.4,0.3,0.6,0.4C229.4,41.9,230.3,41,230.1,40.1z"/>
<path class="st0" d="M266,65c0.7,0.3,1.7-0.1,1.9-0.8c0.1-0.2,0.1-0.4,0-0.7c0-0.4-0.4-0.8-0.7-1.1c-0.5-0.3-1.1-0.2-1.5,0.1
	s-0.6,0.9-0.6,1.4C265.2,64.5,265.5,64.8,266,65z"/>
<path class="st0" d="M285.6,46.2c0.1,0.5,0.4,0.9,0.8,1.2c0.1,0.1,0.2,0.2,0.3,0.2c0.8,0.6,1.9,0.4,2.6-0.3c1.4-1.6-0.3-4.3-2.4-3.3
	C286,44.5,285.5,45.3,285.6,46.2z"/>
<path class="st0" d="M237.8,6.5c-1.3-0.1-2.4,1-2.5,2.2c0,0.7,0.2,1.3,0.8,1.8c0.4,0.4,0.9,0.6,1.4,0.6c1.2,0.1,2.1-1,2.2-2.1
	C239.8,7.7,239.1,6.6,237.8,6.5z"/>
<path class="st0" d="M79.4,36.4c-1.3,0.6-1.4,2.1-0.7,3.1c0.2,0.2,0.4,0.5,0.6,0.6c0.9,0.7,2.1,0.4,2.8-0.5c0.6-0.8,0.6-1.9,0-2.7
	C81.5,36,80.4,35.9,79.4,36.4z"/>
<path class="st0" d="M73.8,67.1c-0.3-0.2-0.6-0.1-0.9,0.1c-0.3,0.2-0.4,0.5-0.5,0.8c0,0.4,0.3,0.7,0.6,0.8c0.4,0.2,0.9-0.1,1-0.5
	c0-0.1,0-0.1,0-0.2l0,0C74.3,67.7,74.1,67.3,73.8,67.1z"/>
<path class="st0" d="M71.8,59.8c0,0.2,0.2,0.4,0.4,0.6l0.1,0.1c0.4,0.3,0.9,0.2,1.2-0.2c0.7-0.8-0.2-2-1.1-1.5
	C72,59,71.8,59.4,71.8,59.8z"/>
<g>
	<path class="st1" d="M48.8,273.1c-1.5-1.1-3.3-1.8-4.6-3.1c-0.6-0.6-1.7,0.2-1.8,0.8c-0.3,1.9-1.2,3.6-1.7,5.5
		c-2-1.1-4.2-1.8-6.2-3.1c-0.6-0.4-1.7,0-1.8,0.8c-0.4,2.5-1.4,4.7-2.1,7.1c-1.9-0.9-4.1-1.4-5.9-2.7c-0.5-0.4-1.3,0-1.6,0.4
		c-1.8,2.5-3.2,5.3-5,7.8c-2.3,3.1-8.3,0.6-11.2-0.2c-0.4-0.1-1,0-1.3,0.4C3.3,290.5,2.1,295,0,299c-0.2,0.3,0.5,0.2,0.6,0
		c2.4-3.5,3.8-7.8,6-11.5c3.4,1.1,8,2.7,11.1,0.9c2.9-1.7,4.5-5.6,6.4-8.5c2,1.1,4.3,1.6,6.3,2.9c0.5,0.3,1.6,0.1,1.7-0.6
		c0.5-2.5,1.6-4.7,2.2-7.2c2.1,1.1,4.3,1.9,6.2,3.2c0.6,0.4,1.8,0,1.8-0.8c0.1-1.9,0.9-3.5,1.5-5.3c1.5,1,3.2,1.7,4.5,3
		c0.5,0.5,1.7,0,1.8-0.6c0.4-1.3,0.8-2.3,1.5-3.4c1.7-2.7,4.5-1.8,6.7-0.6c0.7,0.4,2.4-0.8,1.4-1.3C55,266.7,50.8,268.7,48.8,273.1z
		"/>
	<path class="st1" d="M65.2,266c-0.7-0.9-2.2,0-2.4,0.9c-0.2,0.6,0.3,1.3,0.9,1.5c0.7,0.2,1.5-0.1,1.9-0.7
		C66,267.2,65.9,266.4,65.2,266C65.2,266,65.2,266,65.2,266z"/>
	<path class="st1" d="M70.6,263.1c-1.2-0.7-2.7,0.1-2.9,1.5c-0.2,0.8,0.2,1.4,0.9,1.7c0.9,0.4,1.9,0.1,2.5-0.6
		c0.5-0.6,0.8-1.6,0.1-2.2C71.1,263.3,70.9,263.1,70.6,263.1z"/>
</g>
<g>
	<path class="st0" d="M67.4,27.8C61.3,13,45.8,5.8,30.7,11C15.3,16.2,7.5,31.9,11.3,46.8c0,0.1,0,0.3,0.1,0.4c0.4,1.4,0.8,2.7,1.4,4
		c0,0,0,0.1,0,0.1c5.6,14.5,19.7,21.4,34.5,16.9C64.8,63.1,74.2,44.6,67.4,27.8z M65.1,30c0,0-0.1,0.1-0.1,0.1
		c-6.3,4.8-13.3,8.3-20.7,10.6c-0.4-2.1-0.9-4.2-1.4-6.2c-0.8-3.4-1.9-7.2-3.5-10.7c5-2.4,9.3-5.7,11.8-9.2
		C57.2,17.7,62.2,23.2,65.1,30z M48.5,13.6c-3.3,2.7-6.9,5.4-10.7,7.3c-1.5-2.8-3.4-5.3-5.9-7.2C37.8,11.6,43.5,11.7,48.5,13.6z
		 M29.3,14.9c2.6,2,4.5,4.4,6.1,7.2c-5.2,2.2-10.7,3.1-16.6,1.3C21.3,19.9,24.9,17,29.3,14.9z M17.3,25.5c5.2,2.9,12.7,2.2,19.4-0.5
		c1.5,3.3,2.5,6.9,3.4,10.3c0.5,2.1,1,4.1,1.5,6.2c-9,2.6-18.5,3.7-27.8,3.9C12.5,38.2,13.8,31.2,17.3,25.5z M15,50.6
		c-0.2-0.7-0.5-1.5-0.7-2.2c7.4,1.2,16.5-1.3,23.3-2.9c1.5-0.3,3-0.7,4.5-1.1c0.6,3.3,1.1,6.7,1.2,10.1c-5.8,2.4-10.9,6-14.2,10.7
		C23.2,62.4,18.4,57.2,15,50.6z M31.8,66.1c3.8-3.5,7.6-6,11.7-7.9c0,2.9-0.3,5.7-0.8,8.5C38.8,67.4,35.1,67.1,31.8,66.1z
		 M46.7,65.6c-0.4,0.1-0.8,0.3-1.1,0.4c0.5-2.9,0.8-5.9,0.7-9c4.9-1.8,10.2-2.8,16.1-3.2C58.6,59.2,53,63.4,46.7,65.6z M64.1,51
		c-5.6-0.5-12,0.3-18,2.4c-0.2-3.3-0.7-6.6-1.3-9.8c7.7-2.3,15.5-5.6,21.3-10.9C68,39.1,67,45.5,64.1,51z"/>
	<path class="st0" d="M66.5,20c-0.1-0.1-0.2,0-0.1,0.1c7.5,12,8.3,27.2-0.8,38.6c-0.1,0.1,0,0.2,0.1,0.1c5.5-4.6,7.3-12.4,7.3-19.2
		C73.1,33,71.3,24.8,66.5,20z"/>
	<path class="st0" d="M10.1,25.9c0-0.1,0-0.1-0.1-0.1c-4.5,4.7-3.8,13.6-2.7,19.4c1.3,7.1,4.7,15.6,11.3,19.2
		c0.1,0.1,0.2-0.1,0.1-0.2C8.6,54.5,4.4,38.9,10.1,25.9z"/>
	<path class="st0" d="M19.8,65.1c0,0-0.1,0-0.1,0.1c0.3,0.9,1.3,1.5,2.3,1.6c0.1,0,0.2-0.1,0.1-0.2C21.3,66,20.4,65.7,19.8,65.1z"/>
	<path class="st0" d="M39.4,6.8c5.1,0.3,9.4,1.5,14,3.5c0.1,0,0.2-0.1,0.1-0.1C50,7.5,43.8,5.5,39.4,6.8C39.4,6.7,39.4,6.8,39.4,6.8
		z"/>
	<path class="st0" d="M56.2,66.9c-3.5,1.9-7.2,3.2-11.1,4.2c-0.1,0-0.1,0.1,0,0.1c3.9,0.1,8.3-1.5,11.2-4.2
		C56.4,67,56.3,66.8,56.2,66.9z"/>
</g>
<g>
	<path class="st2" d="M293.3,92.4c-0.3,0.2-0.5,0.5-0.8,0.6c-3,1.1-6,2.3-9,3.1c-0.5,0.1-1,0.2-1.6,0.3c-1,0.2-2,0.5-2.9,0.6
		c-0.5,0.1-0.9-0.1-1.4-0.1c-1.3,0.4-2.6,0.5-4,0.4c-1.3-0.1-2.6,0-3.9-0.1c-0.6,0.4-1.1,0-1.7-0.1c-2-0.2-4-0.5-6-0.9
		c-0.5-0.1-1-0.2-1.5-0.4c-2.1-0.7-4.3-1.3-6.3-2.2c-0.2-0.1-0.5,0-0.7,0c-0.5-0.3-1-0.7-1.5-0.9c-2.4-1.1-4.6-2.4-6.9-3.6
		c-1.8-1-3.6-2.1-5.5-2.9c-0.8-0.3-1.4-0.9-2.2-1.2c-1.7-0.9-3.4-1.7-5.1-2.5c-0.1-0.1-0.3,0-0.7,0c1.6,1.1,3.4,1.3,4.6,2.7
		c0.4,0.1,0.8,0.1,1.4,0.2c0.5,0.3,1.2,0.8,1.9,1.2c0.6,0.4,1.4,0.7,1.9,1.2c0.6,0.7,1.6,0.3,2.2,1.3c0,0.3,0.1,0.7,0.2,1.2
		c-0.1,0.1-0.3,0.2-0.3,0.1c-1.8-1-3.7-2-5.5-3c-1.7-0.9-3.4-1.7-5.1-2.6c-0.5-0.2-0.9-0.5-1.4-0.8c-0.3,0.5,0.1,0.7,0.3,1
		c0.8,1.2,1.7,2.4,2.5,3.7c0.7,1.1,1.3,2.1,1.8,3.3c1,2.2,2.1,4.4,2.6,6.8c0,0.2,0,0.3,0,0.5l0,0c-0.2-0.1-0.4-0.3-0.6-0.4
		c0-0.1,0,0,0.1,0c-0.3,0.2-0.3,0.5-0.1,0.8c0.2,0.3,0.5,0.3,0.7,0.1l0,0c0.8,0.5,0.8,1.2,0.8,2.1c-1-0.6-1.5-1.5-2-2.4
		c-1.3-2.5-2.6-5.1-4-7.6c-1.1-1.9-2.5-3.5-4.1-5.1c-0.1-0.4-0.1-0.8-0.2-1.2c-0.2-0.1-0.3-0.2-0.5-0.3c-0.2-0.8-1-1.1-1.4-1.7
		c-0.2,0.2-0.3,0.3-0.5,0.5c0.7,0.5,1.4,0.9,2,1.3c-0.1,0.1-0.2,0.2-0.3,0.3c0,0,0,0,0,0c-0.6-0.3-1.2-0.5-1.7-0.8
		c-0.3-0.2-0.5-0.5-0.7-0.7c0.1-0.4,0.1-0.8,0.2-1.2c-1.9-0.8-3.4-2.2-5.4-2.7c-0.9-0.2-1.7-0.4-2.7-0.5c-0.5-0.3-1.2-0.5-1.6-1.2
		c0.4-0.8,1.1-1.2,1.8-1.6c1.5-0.8,3.1-1.2,4.7-1.6c2.4-0.6,4.8-0.7,7.2-0.9c0.8-0.1,1.5,0.1,2.3,0.1c1.9,0.1,3.8,0.2,5.7,0.4
		c1,0.1,1.9,0.3,2.7,0.9c0.2,0.2,0.3,0.4,0.6,0.7c-1,0.7-2,0.9-3.1,0.6c-0.7,0.5-1.6,0.3-2.3,0.5c-0.9,0.3-1.7-0.2-2.5,0.2
		c-0.8,0.4-1.5-0.6-2.4-0.1c0,0.1-0.1,0.3-0.2,0.5c0.3,0.2,0.6,0.4,0.9,0.6c2.2,1.1,4.5,2.1,6.7,3.2c0.6,0.3,1.1,0.6,1.7,0.9
		c2.2,1.1,4.4,2.3,6.5,3.6c1.8,1.1,3.7,2.2,5.6,3.1c2.3,1.1,4.6,2.2,7,3.1c2.7,0.9,5.4,1.7,8.3,1.9c0.6,0,1.2,0.1,1.8,0.2
		c1.3,0.2,2.6,0.2,3.9,0.2c0.9-0.1,1.8,0,2.7,0c2.1,0,4.1-0.4,6.2-0.8c1.6-0.3,3.3-0.5,4.9-1.1c0.3-0.1,0.6-0.1,0.8-0.1
		c0.1,0.1,0.2,0.2,0.3,0.3c0.7-0.9,1.6-1.4,2.6-1.1c0.4-0.2,0.6-0.4,0.8-0.5C292.4,92.2,292.8,92.4,293.3,92.4L293.3,92.4z
		 M231.5,87.5c0-0.1-0.1-0.2-0.1-0.3c0,0,0,0-0.1,0.1C231.4,87.3,231.4,87.4,231.5,87.5L231.5,87.5L231.5,87.5z M230.2,85.7
		c0.1,0.2,0.2,0.4,0.1,0.2C230.4,86.1,230.3,85.9,230.2,85.7c-0.1-0.2,0-0.4-0.4-0.3C229.9,85.6,230,85.6,230.2,85.7z M222.9,79
		c0.3,0.2,0.6,0.6,1.1,0.3c0.3,0.4,0.6,0.7,0.9,1.1c1,0.3,2,0.5,2.8,1c0.8,0.5,1.8,0.8,2.7,1.3c0.2-0.1,0.5-0.2,0.8-0.3
		c-0.2-0.2-0.4-0.3-0.5-0.4c-1.7-0.8-3.4-1.6-5.1-2.3c-0.4-0.2-1-0.4-1.5-0.2C223.7,79.2,223.4,78.8,222.9,79
		c-0.3-0.2-0.5-0.4-0.8-0.6c-0.3-0.2-0.6-0.4-0.9-0.6c-0.2,0.1-0.5,0.3-1,0.6C221.3,78.7,222,79.2,222.9,79z M226.9,76.8
		c0.1,0.1,0.2,0.2,0.3,0.2c0.9-0.1,1.9,0,2.8,0.1c0.6,0.1,1.3,0.2,1.9,0c0.9-0.2,1.6,0,2.3,0.2c0.4-0.1,0.7-0.3,0.9-0.3
		c0.7-0.1,1.4-0.1,2.1-0.2c0.1,0,0.2-0.1,0.3-0.2c0-0.1-0.1-0.3-0.2-0.5c-0.6,0-1.3,0-1.9,0c-0.7,0-1.5-0.2-2.1,0.1
		c-0.7,0.3-1.3-0.1-1.9,0.1c-1.4,0.4-2.9,0.1-4.3,0.2C227.1,76.6,227,76.7,226.9,76.8z M228,83.8c-0.4-0.5-0.4-0.5-0.9-0.6
		C227.3,83.4,227.7,83.6,228,83.8z M286.2,94.5L286.2,94.5L286.2,94.5L286.2,94.5z M229,84.5L229,84.5l0-0.1L229,84.5z"/>
	<path class="st2" d="M248.9,93.5c-0.8,0.2-1.3-0.4-1.9-0.6c-0.9-0.4-1.8-1.1-2.7-1.7c0-0.3,0-0.7,0-1c0.1,0,0.3-0.1,0.4,0
		c0.4,0.3,0.6,0.7,1.2,0.7c0.2,0,0.3,0.1,0.5,0.2c1.1,1,2.4,1.4,3.7,2.1c0.3,0.2,0.5,0.4,0.8,0.6c0.2,0.1,0.5,0.2,0.8,0.4
		c-0.1,0.2-0.2,0.4-0.3,0.6C250.3,94.6,249.6,94,248.9,93.5c0-0.1,0-0.1,0-0.1C248.9,93.4,248.9,93.4,248.9,93.5z"/>
	<path class="st2" d="M293.3,92.5c0.1-0.3,0.2-0.5,0.4-0.9c1.9-1.1,4.1-1.7,6.2-2.5c-0.3,0.6-0.9,0.7-1.3,1
		c-0.5,0.4-0.9,0.8-1.4,1.2c-0.2,0-0.6,0-0.9,0.1c-0.8,0.3-1.7,0.7-2.5,1C293.6,92.5,293.4,92.5,293.3,92.5L293.3,92.5z"/>
	<path class="st2" d="M252.1,95.1c0-0.2-0.1-0.4-0.1-0.7c1.1,0,1.1,0,3.2,1.5c-0.3,0.1-0.5,0.3-0.7,0.4c-0.7-0.2-1.4-0.5-2.1-0.7
		C252.4,95.5,252.2,95.3,252.1,95.1L252.1,95.1z"/>
	<path class="st2" d="M262.9,98.2c-1.4,0.6-2.4,0.2-3.4,0c-0.2-0.4-0.5-0.7-0.7-1.1C260.1,97.4,261.4,97.6,262.9,98.2z"/>
	<path class="st2" d="M265.3,98.4c0.6,0,1.2,0,1.8,0c0.1,0.3,0.1,0.4,0.2,0.6c-0.5,0.1-0.9,0.2-1.3,0.2c-0.2-0.1-0.4-0.2-0.6-0.4
		l0,0C265.4,98.7,265.3,98.6,265.3,98.4L265.3,98.4z"/>
	<path class="st2" d="M302,87.5c0.1-0.5,0.1-0.6,0.1-0.7c0.4-0.4,0.9-0.9,1.4-1.2C303.1,86.2,302.8,86.8,302,87.5z"/>
	<path class="st2" d="M269.5,98.4c-0.2,0.3-0.3,0.6-0.5,1c-0.3,0-0.6-0.1-0.9-0.1c0.1-0.3,0.1-0.5,0.2-0.8
		C268.7,98.4,269.1,98.4,269.5,98.4L269.5,98.4z"/>
	<path class="st2" d="M265.4,98.9c-0.3,0.1-0.7,0.1-1,0.2c-0.1-0.3-0.1-0.5-0.2-0.9c0.4,0.1,0.8,0.2,1.1,0.2l0-0.1
		C265.3,98.6,265.4,98.7,265.4,98.9L265.4,98.9z"/>
	<path class="st2" d="M257.1,96.5c-0.4,0.1-0.8,0.2-1.4,0.4c0-0.4,0-0.6,0.1-1C256.3,96.2,256.7,96.4,257.1,96.5L257.1,96.5z"/>
	<path class="st2" d="M275.1,98.3c0,0.2-0.1,0.3-0.1,0.6c-0.1,0-0.3,0.1-0.5,0.2c-0.1-0.2-0.2-0.4-0.2-0.6
		C274.6,98.1,274.8,98.3,275.1,98.3L275.1,98.3z"/>
	<path class="st2" d="M301.5,88.1c-0.3,0.2-0.6,0.4-1.1,0.7c0.3-0.6,0.5-0.9,0.7-1.2C301.2,87.9,301.3,88,301.5,88.1z"/>
	<path class="st2" d="M270.6,98.8c-0.1,0.2-0.3,0.3-0.5,0.6c-0.2-0.4-0.4-0.7-0.6-1l0,0C269.8,98.5,270.2,98.7,270.6,98.8
		L270.6,98.8z"/>
	<path class="st2" d="M257.1,96.6c0.3-0.2,0.5,0,0.6,0.3C257.5,96.8,257.3,96.7,257.1,96.6L257.1,96.6z"/>
	<path class="st2" d="M224.7,83.9c0-0.2-0.1-0.3-0.1-0.5C225.1,83.5,225,83.6,224.7,83.9z"/>
	<polygon class="st2" points="281.4,97.5 281.3,97.7 281.2,97.6 	"/>
	<polygon class="st2" points="222.5,82.5 222.4,82.3 222.6,82.4 	"/>
	<polygon class="st2" points="275.1,98.3 275.2,98.3 275.1,98.3 	"/>
	<polygon class="st2" points="270.9,99 270.9,99.1 270.9,99 	"/>
	<path class="st2" d="M238.6,99.7c0.2,0.1,0.3,0.3,0.1,0.5c0,0,0,0,0,0C238.5,100,238.4,99.9,238.6,99.7L238.6,99.7z"/>
	<path class="st2" d="M252.1,95.1c0,0-0.1,0.1-0.1,0.1C252.1,95.2,252.1,95.1,252.1,95.1L252.1,95.1z"/>
	<polygon class="st2" points="228.6,86.1 228.6,86.2 228.6,86.1 	"/>
	<path class="st2" d="M270.9,99c-0.1-0.1-0.3-0.1-0.4-0.2l0,0.1c0.1,0,0.2-0.1,0.2-0.1C270.8,98.8,270.9,98.9,270.9,99L270.9,99z"/>
</g>
<path class="st0" d="M28.7,222.4c-1-0.4-2.2-0.1-2.8,0.7c-0.4,0.5-0.4,1.1-0.2,1.6c0.1,0.4,0.3,0.7,0.5,1c0.5,0.6,1.2,0.9,2,0.8
	c0.9-0.1,1.7-1,1.8-1.8C30.2,223.8,29.6,222.8,28.7,222.4z"/>
<path class="st0" d="M44,279.8c-0.3,0-0.5,0.2-0.7,0.4c-0.2,0.3-0.1,0.6-0.1,0.9c0,0.1,0.1,0.2,0.2,0.3c0.1,0.1,0.3,0.2,0.4,0.2
	c0.6,0.1,1.3-0.5,1.1-1.1C44.9,280.1,44.4,279.7,44,279.8z"/>
<path class="st0" d="M59.2,247.3c0.1,0.1,0.1,0.1,0.2,0.2c0.6,0.4,1.4,0.3,1.9-0.2c1-1.1-0.2-3-1.7-2.3c-0.6,0.3-1,0.8-0.9,1.5
	C58.7,246.8,58.9,247.1,59.2,247.3z"/>
<path class="st0" d="M35.4,258c-1-0.1-1.8,0.7-1.8,1.5c0,0.4,0.2,0.9,0.5,1.2c0.3,0.2,0.6,0.4,1,0.4c0.9,0,1.5-0.7,1.6-1.5
	C36.9,258.9,36.3,258.1,35.4,258z"/>
<path class="st0" d="M6.9,268.8c-1.5,0.9-1.2,3.3,0.4,3.6c0.9,0.4,1.9-0.1,2.5-0.7c0.8-0.8,0.8-1.9,0-2.7
	C9,268.2,7.7,268.3,6.9,268.8z"/>
<g>
	<path class="st0" d="M139.3,263.1c-0.4-2-2.4-3.2-4.3-3.1c-2.1,0.1-3.4,1.6-3.6,3.6v0.1c-0.3,2.8,2.2,4.5,4.8,4.2
		C138.6,267.6,139.7,265.4,139.3,263.1z M136.3,266.6c-2.1,0.7-3.7-0.9-3.8-2.8l0,0c0.4-2.7,4.1-3.1,5.4-0.8
		C138.7,264.3,137.9,266.1,136.3,266.6z"/>
	<path class="st0" d="M136.4,262.1C136.3,262.1,136.3,262.1,136.4,262.1c0.4,0.6,0.7,1.1,0.7,1.8c0,0.8-0.5,1.3-0.9,1.9
		c0,0,0,0.1,0.1,0.1C137.9,265.7,138.1,262.3,136.4,262.1z"/>
	<path class="st0" d="M135.9,265.9h-0.1c-0.1,0.1-0.2,0.2-0.4,0.1c0,0-0.1,0,0,0.1c0.2,0.2,0.4,0.2,0.6,0
		C136,266.1,136,266,135.9,265.9C136,265.9,136,265.9,135.9,265.9z"/>
</g>
<path class="st0" d="M99.3,289.3c-0.8,0-1.4,0.6-1.7,1.3c-0.2,0.7,0,1.5,0.5,2.1s1.1,0.7,1.8,0.6c1.1-0.2,1.9-1.5,1.6-2.5
	c-0.1-0.3-0.3-0.6-0.5-0.8C100.6,289.5,99.9,289.3,99.3,289.3z"/>
<path class="st0" d="M118,291.7c-1.3,2.3,0.1,4.5,2.2,5.2c0.5,0.2,1,0.3,1.4,0.3c2,0,3.4-1.5,3.5-3.4c0.1-1.8-1-3.4-2.7-4
	C120.6,289,118.9,290,118,291.7z"/>
<path class="st0" d="M91.8,282.3c-1.2,0.6-1.2,2-0.5,2.9c0.2,0.4,0.7,0.8,1.3,0.9c1,0.2,1.8-0.5,2-1.4c0.2-0.7,0.1-1.6-0.4-2.1
	C93.6,281.7,92.6,281.8,91.8,282.3z"/>
<g>
	<path class="st0" d="M209.1,255.4c-0.2-1.1-1.4-1.8-2.4-1.8c-1.2,0.1-1.9,0.9-2,2v0.1c-0.2,1.6,1.2,2.5,2.7,2.4
		C208.7,257.9,209.4,256.7,209.1,255.4z M207.4,257.3c-1.2,0.4-2.1-0.5-2.1-1.6l0,0c0.2-1.5,2.3-1.8,3.1-0.5
		C208.8,256,208.4,257,207.4,257.3z"/>
	<path class="st0" d="M207.5,254.8C207.4,254.8,207.4,254.8,207.5,254.8c0.2,0.3,0.4,0.6,0.4,1c0,0.5-0.3,0.7-0.5,1.1
		c0,0,0,0.1,0.1,0.1C208.4,256.8,208.5,254.9,207.5,254.8z"/>
	<path class="st0" d="M207.2,256.9L207.2,256.9c-0.1,0.1-0.2,0.1-0.3,0.1c0,0-0.1,0,0,0.1c0.1,0.1,0.2,0.1,0.3,0
		C207.3,257,207.3,257,207.2,256.9C207.3,256.9,207.3,256.9,207.2,256.9z"/>
</g>
</svg>
