<?xml version="1.0" encoding="utf-8"?>
<!-- Generator: Adobe Illustrator 26.3.1, SVG Export Plug-In . SVG Version: 6.00 Build 0)  -->
<svg version="1.1" id="Layer_1" xmlns="http://www.w3.org/2000/svg" xmlns:xlink="http://www.w3.org/1999/xlink" x="0px" y="0px"
	 viewBox="0 0 300 300" style="enable-background:new 0 0 300 300;" xml:space="preserve">
<style type="text/css">
	.st0{fill:#2D2D2D;}
	.st1{fill:#414042;}
</style>
<path class="st0" d="M40.3,192.4c-0.5,0.2-0.7,0.8-0.7,1.3c-0.1,0.6,0.3,1.1,0.8,1.3c0.6,0.2,1.5-0.1,1.7-0.6c0,0,0-0.1,0-0.2
	c0.3-0.5,0-1.1-0.3-1.4C41.5,192.3,40.8,192.1,40.3,192.4z"/>
<path class="st0" d="M95.5,257.3c-1.9,0.9-2,3.1-1,4.5c0.2,0.4,0.5,0.7,0.9,0.9c1.3,0.9,3,0.6,4-0.7c0.9-1.2,0.9-2.8,0-4
	C98.5,256.7,96.9,256.6,95.5,257.3z"/>
<path class="st0" d="M39.4,197.3c-1.7-0.2-2.9,1.3-2.8,2.7c-0.1,0.7,0.2,1.5,0.7,2c0.9,0.9,2.4,0.8,3.3,0c0.8-0.6,1.4-1.7,1.2-2.7
	C41.8,198,40.7,197.4,39.4,197.3z"/>
<path class="st0" d="M107.9,253.2c-0.5-0.4-1.3-0.2-1.8,0.2c-0.6,0.4-0.9,1-1,1.7c-0.1,0.8,0.6,1.5,1.3,1.8c0.9,0.3,1.9-0.3,2.2-1.2
	c0-0.1,0.1-0.2,0.1-0.4v-0.1C108.8,254.4,108.5,253.6,107.9,253.2z"/>
<g>
	<path class="st0" d="M72.1,206.6c-0.4-2-2.4-3.2-4.3-3.1c-2.1,0.1-3.4,1.6-3.6,3.6v0.1c-0.3,2.8,2.2,4.5,4.8,4.2
		C71.4,211.2,72.5,208.9,72.1,206.6z M69.1,210.1c-2.1,0.7-3.7-0.9-3.8-2.8l0,0c0.4-2.7,4.1-3.1,5.4-0.8
		C71.4,207.8,70.6,209.6,69.1,210.1z"/>
	<path class="st0" d="M69.1,205.6C69.1,205.6,69.1,205.7,69.1,205.6c0.4,0.6,0.7,1.1,0.7,1.8c0,0.8-0.5,1.3-0.9,1.9
		c0,0,0,0.1,0.1,0.1C70.7,209.2,70.9,205.9,69.1,205.6z"/>
	<path class="st0" d="M68.7,209.4h-0.1c-0.1,0.1-0.2,0.2-0.4,0.1c0,0-0.1,0,0,0.1c0.2,0.2,0.4,0.2,0.6,0
		C68.8,209.6,68.8,209.5,68.7,209.4L68.7,209.4z"/>
</g>
<path class="st0" d="M96.1,207.5c-0.8,0-1.4,0.6-1.7,1.3c-0.2,0.7,0,1.5,0.5,2.1c0.5,0.6,1.1,0.7,1.8,0.6c1.1-0.2,1.9-1.5,1.6-2.5
	c-0.1-0.3-0.3-0.6-0.5-0.8C97.4,207.7,96.7,207.5,96.1,207.5z"/>
<path class="st0" d="M6.9,84.5C5.6,86.7,7,89,9.1,89.6c0.5,0.2,1,0.3,1.4,0.3c2,0,3.4-1.5,3.5-3.4c0.1-1.8-1-3.4-2.7-4
	C9.5,81.9,7.8,82.8,6.9,84.5z"/>
<path class="st0" d="M44,18.9c-1.9,1-2,3.3-0.8,4.7c0.4,0.7,1.2,1.3,2.1,1.4c1.6,0.3,2.9-0.9,3.3-2.3c0.4-1.2,0.2-2.6-0.7-3.5
	C46.8,18,45.3,18.2,44,18.9z"/>
<g>
	<path class="st0" d="M80.7,272.7c6.7-18.5,0.1-40.7-18.1-49.6c-13.9-6.8-34.2-4.6-46.1,5.3c-8.8,7.4-11.7,19.2-11.4,30.2
		c0,0.1,0,0.1,0,0.2c-0.2,20.1,14.1,35.2,33.8,37.9C57.5,299.3,74.2,290.6,80.7,272.7z M76.8,262c0.3,0.1,0.6,0.2,0.9,0.3
		c0.6,0.2,1.7,0.4,2.5,0.3c-0.1,1-0.3,2-0.5,3C78.7,264.4,77.7,263.2,76.8,262z M79.6,249.6c-0.6,0-1.1,0.1-1.7,0
		c-0.7-0.1-1.2-0.4-1.8-0.7c0.7-1,1.5-1.9,2.6-2.8C79,247.2,79.4,248.4,79.6,249.6z M75.6,249.7c0.4,0.4,1,0.7,1.5,0.9
		c0.8,0.3,1.9,0.5,2.9,0.5c0.1,0.3,0.1,0.6,0.1,0.8c0.1,0.4,0.1,0.9,0.2,1.3c-0.7,0-1.3,0.2-1.9,0.2c-1.4,0-2.7-0.2-3.9-0.7
		C74.7,251.7,75.1,250.7,75.6,249.7z M74.4,253.9c0.7,0.4,1.6,0.7,2.5,0.8c0.8,0.1,2.4,0.4,3.6,0.1c0.1,0.9,0.1,1.8,0.1,2.7
		c-2,0.5-3.9,0-5.9-0.3C74.4,256.1,74.3,255,74.4,253.9z M80.5,259.1c0,0.8-0.1,1.5-0.1,2.3h-0.1c-0.8,0-1.5,0-2.2-0.2
		c-0.8-0.2-1.5-0.5-2.2-0.8c-0.3-0.6-0.6-1.3-0.8-1.9C76.7,259.4,78.8,259.7,80.5,259.1z M64.4,227.2c0.5,0.3,0.9,0.6,1.3,0.8
		c-1.7,1.1-3.5,2.2-5.3,3c0.1-0.6,0.2-1.1,0.2-1.5c0.1-1.3,0.3-2.8,0-4.2C62,225.9,63.2,226.5,64.4,227.2z M50.3,228.1
		c0-1.8,0.1-3.8-0.3-5.6c1.6,0.2,3.1,0.5,4.6,0.8c-0.1,1.6-0.1,3.1-0.2,4.7c-0.1,1.6-0.5,3.3-0.7,4.9c-1.1,0.1-2.2,0-3.4-0.2
		C50.4,231.2,50.3,229.6,50.3,228.1z M55.2,223.5c1.6,0.4,3.1,0.9,4.6,1.5c-0.2,1.4-0.1,2.9-0.3,4.4c-0.1,0.7-0.4,1.6-0.7,2.4
		c-1.2,0.5-2.5,0.8-3.9,1C55.6,229.8,55.9,226.3,55.2,223.5z M49.1,222.4c-0.1,1.6,0.1,3.2,0,4.7c0,1.7-0.3,3.6-0.1,5.3
		c-1.4-0.3-2.7-0.7-4-1c0.3-1.3,0.1-2.9,0-4.1c-0.1-1.6-0.2-3.6-0.9-5.1C45.9,222.1,47.5,222.2,49.1,222.4z M40.6,230.5
		c0-1.5-0.4-3-0.6-4.4c-0.1-1.1-0.2-2.5-0.7-3.7c1.4-0.1,2.8-0.2,4.2-0.2c-0.1,1.5,0.3,3,0.5,4.4c0.1,1.5-0.1,3-0.1,4.5
		C42.8,230.8,41.7,230.6,40.6,230.5z M38.2,222.5c0.1,1.4,0.5,2.9,0.7,4.2c0.1,1.1,0.1,2.5,0.4,3.7c-1.2,0-2.3,0.1-3.6,0.5
		c-0.1-1.2-0.5-2.5-0.6-3.2c-0.2-1.3-0.4-3.1-1-4.5c1.3-0.3,2.5-0.5,3.8-0.6C38,222.5,38.1,222.5,38.2,222.5z M23.8,244.1
		c-0.2-2.8-1.3-5.7-2.1-8.3c-0.6-1.7-1-4.7-2.4-6.2c1.2-1,2.5-1.8,3.9-2.6c0.6,4.3,2.7,8.5,3.5,12.9c-0.3,0.5-0.6,1-0.9,1.4
		C25.2,242.3,24.6,243.3,23.8,244.1z M27.7,238.2c-0.7-4-1.9-8.2-3.7-11.6c1.3-0.7,2.6-1.3,4-1.8c0.2,1.3,0.8,2.7,1.2,3.9
		c0.6,1.8,0.9,3.6,1.3,5.5C29.4,235.4,28.5,236.8,27.7,238.2z M31.6,233.1c-0.2-1.3-0.7-2.6-1.1-3.9c-0.5-1.4-0.8-3.2-1.5-4.7
		c1.3-0.4,2.6-0.8,3.9-1.1c0.2,1.3,0.8,2.7,1,4c0.3,1.3,0.4,2.6,0.5,3.9v0.1c-0.2,0.1-0.4,0.2-0.7,0.3C33,232,32.2,232.5,31.6,233.1
		z M18.5,230.2c0.6,2,1.5,4,2,5.9c0.8,3,1.4,6.1,2.1,9.2c-0.8,0.7-1.8,1.3-2.9,1.6h-0.1c0-2.1-0.8-4.2-1.4-6.2
		c-0.7-2.4-1.5-5.2-2.8-7.4c0.3-0.3,0.5-0.6,0.8-1C17,231.6,17.8,230.9,18.5,230.2z M15.5,246.6c0-0.6-0.3-1.2-0.4-1.8
		c-0.3-1.2-0.6-2.4-1-3.6c-0.3-1.1-0.7-2.7-1.6-3.6c0.7-1.2,1.5-2.3,2.3-3.5c0.4,2,1.3,4,1.9,5.9c0.8,2.4,1.1,4.8,1.7,7.2
		C17.5,247.2,16.5,247,15.5,246.6z M13.8,245.8c-1.4-0.8-2.7-1.8-3.9-2.7c0.5-1.5,1.1-2.9,1.8-4.3c0.4,1.1,0.9,2.3,1.2,3.3
		C13.3,243.1,13.4,244.6,13.8,245.8z M13.4,278.3c0.6-2.6,1.5-6.5,0.5-9c1.3-0.1,2.4,0.1,3.5,0.6c-0.5,3.7-1.4,7.2-2.3,10.8
		C14.5,279.9,13.9,279.1,13.4,278.3z M12.8,269.6c0.1,1.2,0.2,2.5,0.1,3.8c-0.1,1.1-0.3,2.3-0.5,3.4c-1.1-1.8-2-3.7-2.8-5.7
		C10.7,270.3,11.7,269.8,12.8,269.6z M16.1,281.9c0.9-2.5,1.3-5.1,1.9-7.7c0.2-1,0.6-2.3,0.6-3.5c1.1,0.9,1.9,2.1,2.5,3.8
		c0.2,0.5,0.4,1,0.5,1.5c-0.6,1.4-0.8,3-1.3,4.3c-0.5,1.2-1.4,2.5-2.1,3.7C17.5,283.4,16.8,282.7,16.1,281.9z M37,293.7
		c-1.6-0.3-3.1-0.7-4.6-1.2c1.2-2.6,2.3-6,1.7-8.7c1.7-0.1,3.2-0.1,4.6,0.3c-0.1,1.6-0.1,3.2-0.5,4.9C38,290.5,37.3,292.1,37,293.7z
		 M32.5,287.9c-0.4,1.4-1,2.8-1.5,4.1c-1.3-0.5-2.6-1-3.8-1.7c0.6-1,1.1-2.2,1.5-3.1c0.5-1,1-2.2,1.1-3.3c1.2,0.1,2.3,0,3.4,0
		C33,285.2,32.9,286.6,32.5,287.9z M27.3,287.1c-0.4,0.8-1,1.7-1.5,2.5c-1.1-0.6-2.1-1.2-3.1-1.9c0.6-0.9,1.1-1.9,1.6-2.9
		c0.3-0.8,0.9-1.7,1.1-2.7c0.9,0.8,2,1.3,3.2,1.5C28.2,284.9,27.9,286.1,27.3,287.1z M23.4,283.8c-0.6,1.1-1.1,2.2-1.8,3.2
		c-0.8-0.6-1.5-1.2-2.2-1.8c0.9-1.1,1.4-2.6,1.9-3.7c0.4-0.9,0.9-2,1.3-3.2c0.6,1.2,1.3,2.3,2.2,3.2
		C24.1,282.1,23.8,283.1,23.4,283.8z M38.5,294c1-2.8,2.4-6.7,1.6-9.4c0.9,0.5,1.7,1.2,2.5,2.3c1.4,2.1,1.2,5.2,0.8,7.6
		C41.7,294.4,40.1,294.2,38.5,294z M47.3,294.4c-0.5,0-1,0-1.5,0c0.5-4,0.2-7.8-2.8-10.9c-4.9-5.1-13,1.1-17.4-4.7
		c-2.5-3.3-2.1-7.9-5.5-10.6c-3.1-2.5-8.1-1.7-11.2,0.5c-1-3.2-1.6-6.5-1.7-10.1v-0.1c0.3-4.5,0.8-9.1,2.1-13.3
		c3.4,2.9,7.9,5.6,12.3,3.6c4.8-2.2,6.9-7.4,9.8-11.5c5.6-8.1,13.8-2.3,21.4-1.8c5.3,0.3,11.1-2.5,15.1-6c4.6,3.7,8,8.8,10.1,14.3
		c-9.7,4.9-7,19.4,1.3,24.3c-1.4,5.6-4,10.8-7.5,15.1C65.8,290.6,56.6,294,47.3,294.4z"/>
	<path class="st0" d="M54.6,280.9c4.8-1.2,9-5.5,10.9-9.9c2-4.6,0.2-8.3-3.6-11.1c-2.1-1.5-4.1-2.7-4.3-5.7
		c-0.2-1.6,0.3-3.3,0.3-4.9c0-2.3-1.3-3.5-2.9-4.7c-4.2-3-9.6-3.2-14.3-1.4c-6.9,2.7-15.5,14.3-9.4,21.4c0,0.1,0.1,0.1,0.1,0.2
		c1.3,2,2.9,3,5.2,3.8c4.1,1.6,5.8,3.4,7.5,7.3C46,280.4,49.9,282.1,54.6,280.9z M63,270.7c-1.3,3-4.1,5.7-7.2,7.1
		c3.3-4,5.7-10.2,5.3-15.2C63.3,264.7,64.8,266.7,63,270.7z M55.3,250.5c0,1.8-0.1,3.3,0.1,4.6c-0.2,2.6-0.6,5.2-1.3,8
		c-1.3,5.1-4.8,9.2-6.6,14c-0.5-0.7-0.9-1.5-1.3-2.3c0.8-1.1,1.3-2.8,1.7-3.6c1.6-3.3,2.5-6.9,3.1-10.5c0.8-5.1,0.6-11.5-2.2-16.1
		C52.2,245.2,55.4,247.1,55.3,250.5z M33.1,263.6c-1-3.7-1.5-6.6,0.3-10.4c0.2-0.3,0.3-0.6,0.5-0.9c0.4,2.1,1,4,1.1,6.2
		c0.1,2.2,0,4.4-0.2,6.6C34.2,264.7,33.6,264.2,33.1,263.6z M36.1,265.8c0.6-4.5,1.1-10.8-1.4-14.6c0.9-1.3,2-2.4,3.3-3.4
		c0.2,2.7,0.9,5.4,1.1,8.1c0.3,3.7,0,7.3-0.9,10.9C37.4,266.4,36.8,266.1,36.1,265.8z M39.4,267.2c2.1-6,1.8-14.1-0.6-20
		c1.2-0.8,2.5-1.5,3.9-2c1.1,3.9,2,7.6,2.1,11.8c0.1,4.1-1.8,8.1-1.8,12.2C41.8,268.3,40.6,267.7,39.4,267.2z M43.8,270
		c2.5-6.8,4.1-18.9-0.4-25.1c1.2-0.4,2.8-0.5,4.3-0.4c2.1,5.7,2.9,10.9,1.8,17.2c-0.6,3.5-1.8,6.8-3.4,10c-0.2,0.3-0.5,0.8-0.8,1.3
		C45,271.9,44.5,270.9,43.8,270z M48.3,277.9c3.5-4.5,6-10.4,7.4-15.8c0.3-1.2,0.6-2.5,0.9-3.9c0.3,0.5,0.8,1.1,1.4,1.6
		c0.7,0.7,1.5,1.4,2.2,2c-0.5,2.6-0.8,5.2-1.7,7.8c-1.2,3.5-3.6,6-5.4,9.1c-0.6,0.1-1.1,0.2-1.7,0.2C50,279,49.1,278.6,48.3,277.9z"
		/>
	<path class="st0" d="M68.2,268.5c-0.2,2.4-1.3,4.9-2.5,7c-0.1,0.1,0.1,0.2,0.2,0.1c3.1-2.6,5.8-10.4,1.3-13c-0.1,0-0.1,0-0.1,0.1
		C67.6,264.7,68.4,266.2,68.2,268.5z"/>
	<path class="st0" d="M65.3,276.2c-0.3,0.1-0.4,0.3-0.6,0.5c-0.1,0.1-0.2,0.3-0.3,0.4c-0.1,0.2-0.1,0.3-0.2,0.5c0,0.1,0,0.2,0.1,0.1
		c0.2-0.1,0.3-0.1,0.5-0.2c0.1-0.1,0.3-0.2,0.4-0.4c0.2-0.3,0.4-0.5,0.3-0.9C65.5,276.2,65.4,276.2,65.3,276.2z"/>
	<path class="st0" d="M33,239c2.8-1.6,4.7-2.7,8.1-2.2c2.6,0.4,5,1.5,7.6,1.8c3.8,0.5,8.3,0.5,11.4-2c0.1-0.1,0-0.3-0.1-0.3
		c-2.8,0.4-5.6,1.1-8.5,1.2c-3.4,0-6.8-1.2-10-2c-3.4-0.9-7.1,0.3-8.6,3.5C32.9,238.9,32.9,239,33,239z"/>
	<path class="st0" d="M62.1,235.8c0.3-0.1,0.7-0.3,0.9-0.6c0.1-0.1,0-0.2-0.1-0.2c-0.5-0.1-1.8,0.3-1.9,1l0,0
		C61.4,236.2,61.8,236,62.1,235.8z"/>
	<path class="st0" d="M33.5,278.9c-1.5,0-2.9-0.1-4.2-0.6c-1.4-0.6-2.1-1.9-3.1-3c-0.1-0.1-0.3,0-0.2,0.1c0.4,2.6,2.6,4.1,5.1,4.5
		c1.2,0.2,2.5,0.1,3.8,0.1c1.5,0,3.1,0.4,4.5,0.1c0.1,0,0.2-0.3,0.1-0.3C37.8,278.6,35.4,278.9,33.5,278.9z"/>
	<path class="st0" d="M40.2,280.2c-0.1,0-0.1,0.2-0.1,0.2c0.2,0.2,0.4,0.3,0.7,0.4s0.5,0.3,0.8,0.3c0.1,0,0.1,0,0.1-0.1
		C41.7,280.4,40.8,280.1,40.2,280.2z"/>
	<path class="st0" d="M70.4,281.1c-2.9,2.1-5.6,4.5-8.6,6.5c-3.4,2.1-7.3,2.9-10.7,5c-0.1,0,0,0.1,0,0.1c6.9,0.2,15.8-5.9,19.5-11.4
		C70.7,281.1,70.5,281,70.4,281.1z"/>
	<path class="st0" d="M10.2,249.4L10.2,249.4c-1.4,2.5-1.5,5.6-1.6,8.3c-0.1,2.8-0.3,6.1,0.9,8.7c0.1,0.1,0.2,0.1,0.3,0
		c0.7-2.4,0.1-5.1,0.1-7.6C9.8,255.7,10.6,252.5,10.2,249.4z"/>
	<path class="st0" d="M72.5,238.3c0.7,1.3,1.1,3,2.3,3.9c0.1,0.1,0.3,0,0.3-0.1c0.3-1.5-0.9-3.1-1.7-4.4c-1-1.6-2.1-2.9-3.4-4.2
		c-0.1-0.1-0.3,0-0.3,0.2C70.7,235.2,71.6,236.7,72.5,238.3z"/>
	<path class="st0" d="M76.2,229.8C76.2,229.8,76.1,229.8,76.2,229.8c6.1,8.4,8.9,18.2,8.9,28.5c0,10.8-4.1,20.6-10.5,29.2
		c-0.1,0.1,0.1,0.2,0.2,0.1c7.5-7.7,10.9-18.7,11-29.3C86,248.4,83,237.3,76.2,229.8z"/>
	<path class="st0" d="M73.9,288.6c-0.5,0.4-0.9,0.9-1.4,1.3s-0.9,0.7-1.3,1.2c-0.1,0.1,0,0.2,0.1,0.1
		C72.4,290.7,73.6,289.8,73.9,288.6C74.1,288.6,74,288.5,73.9,288.6z"/>
	<path class="st0" d="M11.1,285.3c-2.1-2.3-3.7-4.9-5-7.7c-1.4-2.8-2.4-5.7-3.2-8.7c-0.8-2.8-1-5.7-1.9-8.4H0.9
		c-0.2,3,0.8,6.3,1.6,9.2c0.8,3.1,1.9,6,3.3,8.9c2.6,5.3,6.8,10.8,12.4,13c0.1,0.1,0.2-0.1,0.1-0.2
		C15.7,289.4,13.2,287.6,11.1,285.3z"/>
	<path class="st0" d="M7.8,235.4c4.1-8.1,11.4-12.3,19.7-15.3c0.1-0.1,0.1-0.3-0.1-0.2c-7.6,1.3-18.1,7.3-19.8,15.5
		C7.6,235.4,7.7,235.5,7.8,235.4z"/>
</g>
<g>
	<path class="st0" d="M12.4,2.5c-3.6,2.3-6.7,5.9-9.6,8.9c-4,4.1-7.9,8.4-11.3,13c0,0,0,0.1-0.1,0.1c-0.2,0.2-0.2,0.6,0.1,0.9
		c0.4,0.4,0.8,0.8,1.2,1.3c-0.1,0.1-0.2,0.3-0.3,0.4c-0.2,0.3-0.2,0.7,0,1c1.8,1.9,3.6,3.7,5.4,5.6c0.4,0.4,1,0.5,1.4,0
		c2.9-3.7,6.1-7.2,9.1-10.8C8,27.3,7.9,31.7,7.8,36.2C7.5,45,7.1,54,7.5,62.8c0.1,2,0.4,3.7,1.2,4.9c0,0.1,0,0.1,0,0.2
		c0.9,4.6,3.7,4.8,7.5,2.6c8-4.8,15.8-10.2,23.5-15.5c0.5,1.3,0.9,2.6,1.4,4c0,0,0,0.1,0.1,0.1c0.3,0.8,0.6,1.7,0.9,2.5
		c0.2,0.7,1.3,0.8,1.7,0.2c3.7-5.7,7.3-11.5,10.9-17.3c0.4-0.7,0.1-1.4-0.7-1.6c-0.3-0.1-0.5-0.1-0.8-0.2c0.2-0.3,0.4-0.6,0.6-0.9
		c0.4-0.7,0.1-1.4-0.7-1.6c-5.9-1.2-11.9-2-17.8-2.8c-0.8-0.1-1.2,0.7-1,1.3c0.6,2,1.2,3.9,1.9,5.9c-4.4,2.5-8.9,4.8-13.4,7.1
		c-0.9,0.5-3.7,2.3-5,1.7c-0.6-9.2,0.3-18.6,0.4-27.8c0-4,0.1-7.9,0-11.9c0-3.1,0.4-7.3-1.4-10c-0.1-0.1-0.1-0.2-0.2-0.2
		C15.5,2,14.4,1.2,12.4,2.5z M23.2,53.6c4.8-2.4,9.5-4.9,14.2-7.5c0.5-0.3,0.7-0.7,0.5-1.3c-0.5-1.7-1.1-3.5-1.6-5.2
		c5,0.7,10,1.4,14.9,2.4c-3,4.8-5.9,9.7-9,14.4c-0.4-1.1-0.8-2.2-1.1-3.3c0,0,0-0.1-0.1-0.1c-0.3-0.8-0.6-1.7-0.9-2.5
		c-0.2-0.6-1-0.7-1.5-0.4c-7.4,5.1-14.9,10.1-22.4,15c-2.1,1.4-5.5,4.2-6.4,0.3C9,61.6,9.4,57.5,9.5,53.6C9.6,41,9.7,28.3,10.8,15.8
		c0.1-1-1.1-1.4-1.7-0.7c-3.8,4.7-7.9,9.2-11.5,14c-1.4-1.4-2.9-2.9-4.3-4.3c3-3.6,6.1-7.2,9.3-10.6c1.8-1.9,3.7-3.8,5.7-5.7
		C9,7.8,14.4,1.9,15,5.4c0.8,4.1,0.2,8.8,0.2,12.9c0,5-0.1,10-0.2,15c-0.1,4.3-0.2,8.6-0.3,13c0,2.1-0.8,7.4,1.6,8.7
		C18.5,56.4,21.1,54.7,23.2,53.6z"/>
	<path class="st0" d="M19.4,12.3c-0.9,10.7-0.8,21.5-0.8,32.2c0,0.1,0.1,0.1,0.1,0c0.5-5.2,0.5-10.5,0.6-15.8
		c0.1-5.5,0.2-10.9,0.2-16.4C19.5,12.3,19.4,12.3,19.4,12.3z"/>
	<path class="st0" d="M19.4,10.2c-0.2,0.4-0.1,0.8-0.1,1.2c0,0.1,0.1,0.1,0.1,0c0.2-0.4,0.3-0.8,0.1-1.3
		C19.5,10.2,19.4,10.2,19.4,10.2z"/>
	<path class="st0" d="M-8.3,21.4C-2.8,15,2.9,8.9,9.2,3.3c0.1-0.1,0-0.2-0.1-0.1c-3.7,2.6-6.8,5.9-9.9,9.2
		C-3.4,15.2-6.2,18.1-8.3,21.4C-8.4,21.4-8.3,21.5-8.3,21.4z"/>
	<path class="st0" d="M6.1,62.4C5.7,52.2,5.8,42.1,5.7,31.9c0-0.1-0.2-0.2-0.2,0C5.2,42,5,52.3,6.1,62.4C6,62.5,6.1,62.5,6.1,62.4z"
		/>
	<path class="st0" d="M37.2,59.1c-5.9,3.6-11.6,7.7-17.4,11.5v0.1C25.8,67.3,31.8,63.4,37.2,59.1C37.3,59.1,37.3,59,37.2,59.1z"/>
	<path class="st0" d="M54.4,46.8c-2.3,4.4-4.9,8.4-7.6,12.5c0,0,0,0.1,0.1,0.1C50.1,55.9,52.7,51.3,54.4,46.8
		C54.5,46.8,54.4,46.7,54.4,46.8z"/>
	<path class="st0" d="M37.4,35.7c4.4,1.2,8.9,2.4,13.4,3.3c0.1,0,0.1-0.1,0-0.1C46.5,37.4,41.9,36.6,37.4,35.7
		C37.4,35.6,37.4,35.7,37.4,35.7z"/>
	<path class="st0" d="M17.6,72C17.6,72,17.6,72.1,17.6,72c0.3-0.1,0.6-0.2,0.9-0.4c0.2-0.1,0.5-0.2,0.6-0.4c0,0,0-0.1-0.1-0.1
		C18.5,71.2,17.9,71.6,17.6,72z"/>
</g>
<path class="st1" d="M248.4,105.9c2.6,3.2,4.7,6.8,7,10.1c-2.2-0.8-4.6-1.4-6.6-2.7c-0.4-0.8-1.7-0.4-1.7,0.4c0,0.6,0.6,0.9,1.1,1.1
	c0.8,0.5,1.6,0.9,2.5,1.2c2,0.7,4,1.3,5.9,2.1c0.6,0.3,1.2,0.3,1.7-0.2c0.2-0.2,0.2-0.4,0.2-0.6c0-0.6,0.1-1.3,0-1.9
	c-0.1-2.5-0.2-5.1-0.6-7.5c0.1-1.1-1.5-1.3-1.6-0.2c0.3,2.5,0.5,4.9,0.6,7.4c-2.6-3.7-4.9-7.7-7.8-11.1c-2.2-2.9-5.1-5.4-6.8-8.6
	c0,0,0,0,0,0.1c0,0,0,0,0-0.1c3.2-3.6,6.6-7.1,10.2-10.4c0,0,0,0,0,0c0,0,0,0,0,0c0,0,0,0,0,0c0,0,0.1,0,0.1-0.1c0,0,0,0,0,0
	c0,0,0.1-0.1,0.1-0.1c0,0,0,0,0,0c0.7-0.7,1.5-1.4,2.2-2.1c0,0-0.1,0-0.1,0.1c0.1-0.1,0.1-0.1,0.2-0.2c0,0,0,0,0,0
	c0,0,0.1-0.1,0.1-0.1c0,0,0,0,0,0c6.8-6.4,13.3-13,19.2-20.2c0,0,0,0,0,0c0.6-0.9,2.2-2.4,1.6-3.5c-0.6-0.8-1.7-0.2-2.6-0.2
	c-3.7,0.7-7.4,1.3-11,2c-11,1.9-21.9,4.9-33.2,4.3c1.8-1.8,3.7-3.7,5.6-5.4c0,0,0,0,0,0c11.1-9.8,22-19.7,33.2-29.4
	c4.8-4.1,9.8-8,14.6-12.2c3.7-3.2,7.2-6.7,11.1-9.7c0.5,0,0.8-0.4,0.9-0.8c0.2-0.7-0.6-1.2-1.2-0.9c-1.4,0.7-2.5,2-3.7,2.9
	c-2.4,2.2-4.9,4.4-7.3,6.6c-11.1,9.5-22.5,18.7-33.2,28.7c-5.5,5-11.3,9.7-16.7,14.8c-1.7,1.6-3.3,3.2-4.9,4.8
	c-0.4,0.3-0.7,0.9-0.5,1.4c0.4,2.1,13.4,0.5,15.5,0.3c10.5-1.6,20.9-3.9,31.3-5.7c-0.7,0.9-1.4,1.7-2.1,2.6c0,0,0,0,0,0
	c-5.5,6.5-11.5,12.6-17.8,18.5c0,0,0,0,0,0c0,0-0.1,0.1-0.1,0.1c0,0,0.1,0,0.1-0.1c0,0-0.1,0.1-0.1,0.1c0,0,0,0,0,0
	c0,0-0.1,0-0.1,0.1c0,0,0,0,0,0c-0.7,0.7-1.4,1.3-2.2,2c0,0,0,0,0.1-0.1c-0.1,0.1-0.1,0.1-0.2,0.2c0,0,0,0,0,0c0,0,0,0-0.1,0.1
	c0,0,0,0,0,0c-3,2.8-6,5.7-8.7,8.8c-1.1,1.3-2.8,2.2-1.5,4.1C243.1,100,246,102.8,248.4,105.9z"/>
<g>
	<path class="st0" d="M146.4,8.1c-0.4-2-2.4-3.2-4.3-3.1c-2.1,0.1-3.4,1.6-3.6,3.6v0.1c-0.3,2.8,2.2,4.5,4.8,4.2
		C145.6,12.6,146.8,10.3,146.4,8.1z M143.4,11.5c-2.1,0.7-3.7-0.9-3.8-2.8l0,0c0.4-2.7,4.1-3.1,5.4-0.8
		C145.7,9.3,144.9,11,143.4,11.5z"/>
	<path class="st0" d="M143.4,7.1C143.4,7,143.3,7.1,143.4,7.1c0.4,0.6,0.7,1.1,0.7,1.8c0,0.8-0.5,1.3-0.9,1.9c0,0,0,0.1,0.1,0.1
		C144.9,10.7,145.1,7.3,143.4,7.1z"/>
	<path class="st0" d="M143,10.8h-0.1c-0.1,0.1-0.2,0.2-0.4,0.1c0,0-0.1,0,0,0.1c0.2,0.2,0.4,0.2,0.6,0C143,11,143,10.9,143,10.8
		C143,10.9,143,10.8,143,10.8z"/>
</g>
<path class="st0" d="M174.6,15.4c-0.5-0.3-1.2-0.3-1.6,0.1c-0.4,0.3-0.7,1-0.6,1.5c0.1,0.6,0.4,0.9,0.9,1.2c0.8,0.3,1.8-0.1,2.1-0.9
	c0.1-0.2,0.1-0.5,0-0.7C175.4,16.1,175,15.6,174.6,15.4z"/>
<path class="st0" d="M176.3,29.2c0.8-1.1,0.8-2.6,0-3.7c-0.9-1.2-2.4-1.4-3.7-0.7c-1.8,0.9-1.9,2.9-0.9,4.3c0.2,0.3,0.5,0.6,0.8,0.8
	C173.8,30.7,175.4,30.4,176.3,29.2z"/>
<path class="st0" d="M151.5,36.3c-2.3,1.5-1.8,5.3,0.5,5.8c1.3,0.6,2.9-0.1,3.8-1.1c1.1-1.3,1.1-3.1,0-4.4
	C154.8,35.4,152.8,35.5,151.5,36.3z"/>
<path class="st0" d="M121.4,21.5c-1.2,0.9-0.9,3.1,0.2,3.4c0.7,0.4,1.4-0.1,1.9-0.6c0.6-0.8,0.6-1.8,0-2.6
	C123.1,20.9,122.1,21,121.4,21.5z"/>
<path class="st0" d="M259.3,287.1c-0.9-0.1-1.5,0.7-1.5,1.4c-0.1,0.4,0.1,0.8,0.4,1.1c0.5,0.5,1.3,0.4,1.7,0
	c0.4-0.3,0.7-0.9,0.6-1.4C260.5,287.5,259.9,287.2,259.3,287.1z"/>
<g>
	<path class="st0" d="M276.5,292c-0.2-1.1-1.3-1.7-2.3-1.6c-1.1,0.1-1.8,0.8-1.9,1.9v0.1c-0.2,1.5,1.2,2.4,2.5,2.2
		C276.1,294.5,276.7,293.3,276.5,292z M274.9,293.9c-1.1,0.4-2-0.5-2-1.5l0,0c0.2-1.4,2.2-1.6,2.8-0.4
		C276.1,292.7,275.7,293.6,274.9,293.9z"/>
	<path class="st0" d="M274.9,291.5C274.9,291.5,274.9,291.6,274.9,291.5c0.2,0.3,0.4,0.6,0.4,0.9c0,0.4-0.3,0.7-0.5,1
		c0,0,0,0.1,0.1,0.1C275.8,293.4,275.9,291.7,274.9,291.5z"/>
	<path class="st0" d="M274.7,293.5L274.7,293.5c-0.1,0.1-0.2,0.1-0.3,0.1c0,0-0.1,0,0,0.1c0.1,0.1,0.2,0.1,0.3,0
		C274.8,293.6,274.8,293.6,274.7,293.5L274.7,293.5z"/>
</g>
<path class="st0" d="M289.2,292.5c-0.4,0-0.7,0.3-0.9,0.7c-0.1,0.4,0,0.8,0.3,1.1c0.3,0.3,0.6,0.4,0.9,0.3c0.6-0.1,1-0.8,0.8-1.3
	c-0.1-0.2-0.2-0.3-0.3-0.4C289.9,292.6,289.5,292.5,289.2,292.5z"/>
<path class="st0" d="M242.1,227.6c-0.7,1.2,0.1,2.4,1.2,2.7c0.3,0.1,0.5,0.2,0.7,0.2c1.1,0,1.8-0.8,1.8-1.8c0.1-0.9-0.5-1.8-1.4-2.1
	C243.5,226.2,242.6,226.7,242.1,227.6z"/>
<path class="st0" d="M171.9,292.5c-0.5,0.2-0.7,0.8-0.7,1.3c-0.1,0.6,0.3,1.1,0.8,1.3c0.6,0.2,1.5-0.1,1.7-0.6c0,0,0-0.1,0-0.2
	c0.3-0.5,0-1.1-0.3-1.4C173.1,292.4,172.4,292.2,171.9,292.5z"/>
<path class="st0" d="M147.6,271.5c-1.7-0.2-2.9,1.3-2.8,2.7c-0.1,0.7,0.2,1.5,0.7,2c0.9,0.9,2.4,0.8,3.3,0c0.8-0.6,1.4-1.7,1.2-2.7
	C150,272.2,148.9,271.6,147.6,271.5z"/>
<path class="st0" d="M198.3,284.6c0,0,0-0.1,0.1-0.1c0.2-0.4,0-0.9-0.3-1.2c-0.3-0.4-0.9-0.5-1.3-0.3c-0.4,0.2-0.6,0.7-0.6,1.1
	c0,0.5,0.2,0.9,0.7,1.1C197.3,285.3,198,285.1,198.3,284.6z"/>
<path class="st0" d="M131.9,294.8c-0.2-0.6-0.8-1.1-1.4-1c-0.4,0-0.8,0.2-0.9,0.6c-0.2,0.4-0.2,0.9-0.1,1.3c0,0.2,0.2,0.3,0.3,0.4
	c0.2,0.2,0.4,0.3,0.6,0.4C131.2,296.6,132.1,295.7,131.9,294.8z"/>
<path class="st0" d="M175,257.2c-1.3-0.1-2.4,1-2.5,2.2c0,0.7,0.2,1.3,0.8,1.8c0.4,0.4,0.9,0.6,1.4,0.6c1.2,0.1,2.1-1,2.2-2.1
	C177.1,258.5,176.3,257.3,175,257.2z"/>
<path class="st0" d="M192.9,264.4c0.5,0.2,0.9,0.3,1.3,0.3c0.3,0,0.7,0,1.1-0.1c1.6-0.5,2.2-2.4,1.9-3.8c-0.3-1.7-2.3-2.5-3.9-2
	C191,259.4,190.7,263.3,192.9,264.4z"/>
</svg>
