<?xml version="1.0" encoding="utf-8"?>
<!-- Generator: Adobe Illustrator 26.3.1, SVG Export Plug-In . SVG Version: 6.00 Build 0)  -->
<svg version="1.1" id="Layer_1" xmlns="http://www.w3.org/2000/svg" xmlns:xlink="http://www.w3.org/1999/xlink" x="0px" y="0px"
	 viewBox="0 0 300 300" style="enable-background:new 0 0 300 300;" xml:space="preserve">
<style type="text/css">
	.st0{fill-rule:evenodd;clip-rule:evenodd;}
	.st1{fill:#2D2D2D;}
	.st2{fill:#414042;}
</style>
<path class="st0" d="M2074.3,1666.8c8.8,11.6,15.9,24.8,22.3,37.9c2.3,4.8,5.1,7.1,9.2,7.3c2.5,0.1,7.3-2.6,7.4-4.4
	c0.4-4.4-0.6-9.2-2.2-13.4c-1.2-3.1-4.8-5.2-6.3-8.3c-19.1-38.9-51.5-63.9-89-82.1c-24.6-12-51-20.1-78.4-24.6
	c-18.6-3.1-37.1-6.1-56-4c-4.3,0.5-8.7,0.1-13.8,0.1c1.4-26.5-3.8-51.2-12-75.5c-7.6-22.7-19.8-42.5-36.4-59.7
	c-4.2-4.4-8.4-4.2-12.6,0c-3.6,3.6-2.3,6.2,0.7,9.7c8.2,9.6,17,19.1,23.5,29.8c16.4,27.1,21.5,57.5,23.6,88.6
	c0.6,9.2-0.9,10.3-11.2,10.5c-32.1,0.6-60.3,10.5-82.6,34.6c-10.1,10.9-16.8,23.2-17.1,38.6c-0.3,12.8,4.2,21.2,16.6,26.5
	c13,5.5,25.6,6.6,38.8,2.2c17.1-5.7,33.2-12.4,43.1-29.1c9.6-16.3,17.9-33.1,20.7-52c1.3-8.9,5.2-13,14.1-12.6
	c12.4,0.5,24.9,0.7,37.3,1.5c34.5,2,66.3,13.5,96.7,28.7C2035,1629.2,2057.6,1644.7,2074.3,1666.8z M1823.5,1654.6
	c-13.3,13.5-40.2,27-60,13.2c-5.6-3.9-9.8-11.2-8.7-20.1c2-15.9,11.4-26.6,23.9-35.4c18.4-13,39.2-19.3,61.2-22.6
	c3.6-0.6,7.4-0.1,11.5-0.1C1846.2,1613.8,1840.9,1636.9,1823.5,1654.6z"/>
<g>
	<path class="st1" d="M259.2,13.2c-11.2-4.2-23.8,3-25.4,14.7c-1.4,7.6,1.5,15.8,8.7,20.1c8.9,5.4,20.4,1.8,25.7-6.6
		C274.6,31.2,270.6,17.3,259.2,13.2z M243.5,46.3c-7.8-4.3-9.5-13.3-7-21c1.2-3.2,3.1-6,6-8.2c4.6-3.6,10.9-3.7,16.2-1.9
		c11,3.6,13.2,17,7.5,25.8C261.3,48.3,251.2,50.6,243.5,46.3z"/>
	<path class="st1" d="M248.2,31c0-0.1,0.1-0.1,0.1-0.2c0.1-0.1,0.1-0.2,0.1-0.3c0-1.5-0.8-3-1.8-4c-0.4-0.4-1.2-0.5-1.5,0.1
		c-0.9,1.8,0.7,3.1,1.5,4.6C246.8,31.8,248,31.8,248.2,31z"/>
	<path class="st1" d="M255.4,27.3c0-0.1,0.1-0.1,0.1-0.2c0.1-0.1,0.1-0.2,0.1-0.3c0-1.5-0.8-3-1.8-4c-0.4-0.4-1.2-0.5-1.5,0.1
		c-0.9,1.8,0.7,3.1,1.5,4.6C254.1,28.1,255.2,28.1,255.4,27.3z"/>
	<path class="st1" d="M265.1,28.7c0.3-0.2,0.4-0.5,0.1-0.8c-0.5-0.6-1.5-0.5-2.2-0.4c-0.7,0.1-1.3,0.3-1.5,1c0,0.1,0,0.2,0.1,0.2
		c0.3,0.1,0.7,0.1,1.1,0.1l0,0c0.6,4-2.6,7.3-5.4,9.5c-4.1,3.1-8.7,2.6-12.9,0.1c0.3-0.5,0.5-0.9,0.5-1.5c0-0.1-0.1-0.2-0.2-0.2
		c-0.9,0.2-1.3,0.7-1.7,1.4c-0.2,0.3-0.4,0.7-0.5,1.1c-0.1,0.3,0,0.6,0.1,0.9c0,0.1,0.2,0.2,0.3,0.1c0.2-0.2,0.5-0.3,0.7-0.5
		c0.1-0.1,0.1-0.1,0.2-0.2c4,3.8,9.8,3.6,14.2,0.7c3.7-2.3,7.3-6.7,6.3-11.4C264.4,28.9,264.8,28.9,265.1,28.7z"/>
	<path class="st1" d="M272.6,27.8c0.6,2.8,0.8,5.6,0,8.5c-0.7,2.8-2.5,5-4.2,7.2c0,0.1,0,0.1,0.1,0.1c4.5-3.8,6.3-10.4,4.2-15.8
		C272.6,27.7,272.6,27.7,272.6,27.8z"/>
	<path class="st1" d="M271.6,24.8C271.5,24.7,271.5,24.8,271.6,24.8c0.1,0.7,0.3,1.5,0.7,2c0.1,0.1,0.1,0,0.1-0.1
		C272.3,26.1,272.1,25.3,271.6,24.8z"/>
	<path class="st1" d="M232.8,38.5c-0.6-3.4-1.3-6.5-0.9-10c0.5-3.7,2.1-6.9,4.4-9.9c0.1-0.1-0.1-0.1-0.1-0.1c-2.6,2.3-4,5.7-4.6,9.1
		c-0.6,3.4-0.5,7.8,1.2,10.9C232.8,38.6,232.8,38.6,232.8,38.5z"/>
	<path class="st1" d="M233.2,39.3c-0.1-0.1-0.1-0.1-0.1,0.1c0,0.3,0.1,0.7,0.3,0.9c0.2,0.5,0.5,0.8,0.8,1.1c0.1,0.1,0.1,0,0.1-0.1
		c-0.2-0.3-0.3-0.7-0.5-1.1C233.6,40,233.4,39.6,233.2,39.3z"/>
</g>
<path class="st1" d="M230.5,8.6c-0.5,0.2-0.7,0.8-0.7,1.3c-0.1,0.6,0.3,1.1,0.8,1.3c0.6,0.2,1.5-0.1,1.7-0.6c0,0,0-0.1,0-0.2
	c0.3-0.5,0-1.1-0.3-1.4C231.7,8.5,231,8.3,230.5,8.6z"/>
<path class="st1" d="M244.8,54.1c-1.3,0.6-1.3,2.1-0.7,3c0.1,0.3,0.3,0.5,0.6,0.6c0.9,0.6,2,0.4,2.7-0.5c0.6-0.8,0.6-1.9,0-2.7
	C246.8,53.7,245.7,53.6,244.8,54.1z"/>
<path class="st1" d="M279.3,8.4c-1.7-0.2-2.9,1.3-2.8,2.7c-0.1,0.7,0.2,1.5,0.7,2c0.9,0.9,2.4,0.8,3.3,0c0.8-0.6,1.4-1.7,1.2-2.7
	C281.7,9.1,280.6,8.5,279.3,8.4z"/>
<path class="st1" d="M277.4,49.4c-0.5-0.3-1.3-0.1-1.7,0.1c-0.6,0.3-0.9,0.6-1,1.1c-0.1,0.5,0.6,1,1.3,1.2c0.9,0.2,1.8-0.2,2.1-0.8
	c0-0.1,0.1-0.1,0.1-0.3v-0.1C278.3,50.2,278,49.7,277.4,49.4z"/>
<path class="st1" d="M37.8,14.9c-2.7,0.6-7.5,2.9-9.8,0.9c-1.9-1.6-3.9-3.2-6-4.6c-0.4-0.2-0.8-0.1-1,0.1c0,0-0.1,0-0.1,0.1
	l-0.1,0.1c0,0-0.1,0.1-0.1,0.2c0,0.1-0.1,0.2-0.1,0.3l0,0l0,0c0,0,0,0,0,0.1c-0.2,2.7-0.6,5.5-0.9,8.2c-0.3,2.2-6.1,4.5-7.8,5.5
	c-0.9,0.5-0.7,1.7,0.2,2.1c1.8,0.8,7.6,2.2,8.4,4.1c1,2.5,1.4,5.4,2,8c0.2,0.8,1.3,1.2,1.9,0.5c1.5-1.6,4.7-6.7,7-6.6
	c2.7,0.1,5.4,0.2,8.2,0.2c0.8,0,1.5-0.9,1-1.7c-1.5-2.3-3.4-4.8-4.4-7.5c-0.7-1.9,2.1-6.7,2.8-8.6C39.5,15.5,38.6,14.8,37.8,14.9z
	 M22.4,32.8c0,0.1-0.1,0.1-0.1,0c-0.2-0.7-0.6-1.5-1.2-2c-0.5-0.5-1-0.7-1.6-1.1c-0.1,0,0-0.1,0-0.1c0.7-0.2,1.6,0.6,2,1.1
	C22.2,31.2,22.6,31.9,22.4,32.8z M21.3,21.7c-0.7,1.2-1.9,1.9-3.2,2.4C18,24.1,18,24,18,24c0.9-0.9,2.3-1.5,2.8-2.8
	c0.4-1.1,0.2-2.3,0.4-3.4c0-0.1,0.1-0.1,0.2,0C21.9,19.1,22,20.6,21.3,21.7z M21.4,17.3C21.3,17.4,21.3,17.4,21.4,17.3
	c-0.3-0.3-0.2-0.7-0.2-1.1c0-0.5,0-0.9,0.1-1.4c0-0.1,0.1-0.1,0.1,0C21.9,15.5,21.8,16.7,21.4,17.3z M33.8,32.8
	c-1.5-0.1-2.9-0.4-4.2,0.5c-1,0.7-1.7,1.7-2.6,2.5h-0.1c0.9-2.8,4.3-4.9,6.9-3.2C33.9,32.6,33.9,32.8,33.8,32.8z M27.6,17.2
	C27.6,17.1,27.6,17.1,27.6,17.2c0.8,0.1,1.4,0.6,2.2,0.6c0.7,0,1.3-0.1,2-0.1c0.1,0,0.1,0.1,0,0.1C30.5,18.4,28.6,18.5,27.6,17.2z
	 M36.5,33.1c-0.3,0.1-0.6,0.1-1,0c-0.3,0-0.7,0-1-0.1c-0.1,0-0.1-0.1,0-0.2c0.3-0.2,0.6-0.1,1-0.1s0.7,0,1,0.2
	C36.6,33,36.6,33.1,36.5,33.1z M35.8,20.3c-0.3,0.7-0.6,1.4-1.2,2c-0.1,0.1-0.2,0-0.1-0.1c0.2-0.8,0.6-1.6,1-2.4
	c0.3-0.5,0.6-1.3,1.1-1.5c0,0,0.1,0,0.1,0.1C36.6,19,36.1,19.7,35.8,20.3z"/>
<g>
	<path class="st1" d="M58.8,20.3c-0.4-2-2.4-3.2-4.3-3.1c-2.1,0.1-3.4,1.6-3.6,3.6v0.1c-0.3,2.8,2.2,4.5,4.8,4.2
		C58.1,24.8,59.2,22.6,58.8,20.3z M55.8,23.8c-2.1,0.7-3.7-0.9-3.8-2.8l0,0c0.4-2.7,4.1-3.1,5.4-0.8C58.2,21.5,57.4,23.3,55.8,23.8z
		"/>
	<path class="st1" d="M55.9,19.3C55.8,19.3,55.8,19.3,55.9,19.3c0.4,0.6,0.7,1.1,0.7,1.8c0,0.8-0.5,1.3-0.9,1.9c0,0,0,0.1,0.1,0.1
		C57.4,22.9,57.6,19.5,55.9,19.3z"/>
	<path class="st1" d="M55.4,23.1L55.4,23.1c-0.2,0.1-0.3,0.2-0.5,0.1c0,0-0.1,0,0,0.1c0.2,0.2,0.4,0.2,0.6,0
		C55.5,23.3,55.5,23.2,55.4,23.1C55.5,23.1,55.5,23.1,55.4,23.1z"/>
</g>
<path class="st1" d="M18.8,46.4c-0.8,0-1.4,0.6-1.7,1.3c-0.2,0.7,0,1.5,0.5,2.1s1.1,0.7,1.8,0.6c1.1-0.2,1.9-1.5,1.6-2.5
	c-0.1-0.3-0.3-0.6-0.5-0.8C20.1,46.6,19.4,46.4,18.8,46.4z"/>
<path class="st1" d="M37.5,48.9c-1.3,2.3,0.1,4.5,2.2,5.2c0.5,0.2,1,0.3,1.4,0.3c2,0,3.4-1.5,3.5-3.4c0.1-1.8-1-3.4-2.7-4
	C40.1,46.2,38.4,47.2,37.5,48.9z"/>
<path class="st1" d="M11.3,39.5c-1.2,0.6-1.2,2-0.5,2.9c0.2,0.4,0.7,0.8,1.3,0.9c1,0.2,1.8-0.5,2-1.4c0.2-0.7,0.1-1.6-0.4-2.1
	C13,38.9,12,39,11.3,39.5z"/>
<g>
	<path class="st1" d="M72.6,229.1c-1-1.9-2.2-3.8-3.6-5.4c-0.8-0.9-2-0.3-2.4,0.6c-1.2,3-4.2,5.9-4.5,9.1c0,0.2,0.2,0.3,0.3,0.3
		c1.6-0.4,3-1.7,4.2-3.3c-1,19.2-8.2,35.7-23.3,48.6c-14.6,12.5-33.9,17.3-52.7,16.5c0-0.1-0.1-0.1-0.1-0.2
		c-2.1-2.5-3.5-5.9-6.9-6.4c-2.9-0.4-5.7-0.9-8.6-1.3c-1.4-0.2-3.1,1.2-2.1,2.7c1.1,1.5,2.3,3,3.5,4.4c-1.7,1.3-3.2,2.6-4.9,3.9
		c-1.2,0.9-0.1,2.6,1.1,2.7c3.2,0.3,6.6,0.9,9.8,1.4c0.1,0,0.1,0,0.2,0c0.3,0,0.6,0,0.9-0.1c2-0.9,3.7-2.4,5.5-3.7
		c19.6,1.8,39.3-3.6,55.1-15.8C60,270.7,70.8,250.6,70,230.3c0,0.1,0.1,0.1,0.1,0.2c0.7,1.2,1.4,3.1,3,3.4c0.2,0,0.3,0,0.4-0.2
		C74.4,232.3,73.3,230.4,72.6,229.1z"/>
	<path class="st1" d="M4.3,292.3c5.3,0.6,11.2-1.1,16.1-2.9c4.9-1.7,10.1-4.2,13.5-8.1c0.1-0.1,0-0.4-0.2-0.3
		c-4.3,2.9-8.7,5.5-13.6,7.4C14.9,290.3,9.6,290.9,4.3,292.3C4.2,292.2,4.2,292.3,4.3,292.3z"/>
	<path class="st1" d="M71.4,245.2c-1.8,6.3-3.2,12.3-6.4,18.2c-3,5.6-7.2,10.5-11.3,15.2c-0.1,0.1,0,0.3,0.1,0.2
		c5.2-3.9,9-9.3,12.1-14.9c3-5.4,6-12.4,5.6-18.7C71.6,245.1,71.5,245.1,71.4,245.2z"/>
</g>
<g>
	<path class="st1" d="M266,258.2c-0.4-2-2.4-3.2-4.3-3.1c-2.1,0.1-3.4,1.6-3.6,3.6v0.1c-0.3,2.8,2.2,4.5,4.8,4.2
		C265.2,262.7,266.4,260.4,266,258.2z M263,261.6c-2.1,0.7-3.7-0.9-3.8-2.8l0,0c0.4-2.7,4.1-3.1,5.4-0.8
		C265.3,259.4,264.5,261.1,263,261.6z"/>
	<path class="st1" d="M263,257.2C263,257.1,262.9,257.2,263,257.2c0.4,0.6,0.7,1.1,0.7,1.8c0,0.8-0.5,1.3-0.9,1.9c0,0,0,0.1,0.1,0.1
		C264.5,260.8,264.7,257.4,263,257.2z"/>
	<path class="st1" d="M262.6,260.9h-0.1c-0.1,0.1-0.2,0.2-0.4,0.1c0,0-0.1,0,0,0.1c0.2,0.2,0.4,0.2,0.6,0
		C262.6,261.1,262.6,261,262.6,260.9C262.6,261,262.6,260.9,262.6,260.9z"/>
</g>
<path class="st1" d="M294.2,265.5c-0.5-0.3-1.2-0.3-1.6,0.1c-0.4,0.3-0.7,1-0.6,1.5c0.1,0.6,0.4,0.9,0.9,1.2
	c0.8,0.3,1.8-0.1,2.1-0.9c0.1-0.2,0.1-0.5,0-0.7C295,266.2,294.6,265.7,294.2,265.5z"/>
<path class="st1" d="M295.9,279.3c0.8-1.1,0.8-2.6,0-3.7c-0.9-1.2-2.4-1.4-3.7-0.7c-1.8,0.9-1.9,2.9-0.9,4.3
	c0.2,0.3,0.5,0.6,0.8,0.8C293.4,280.8,295,280.5,295.9,279.3z"/>
<path class="st1" d="M271.1,286.4c-2.3,1.5-1.8,5.3,0.5,5.8c1.3,0.6,2.9-0.1,3.8-1.1c1.1-1.3,1.1-3.1,0-4.4
	C274.4,285.5,272.4,285.6,271.1,286.4z"/>
<path class="st1" d="M241,271.5c-1.1,0.9-0.9,3.1,0.2,3.4c0.7,0.4,1.4-0.1,1.9-0.6c0.6-0.8,0.6-1.8,0-2.6
	C242.7,271,241.7,271.1,241,271.5z"/>
<g>
	<path class="st1" d="M128.6,12.5c-0.2-1.1-1.4-1.8-2.4-1.8c-1.2,0.1-1.9,0.9-2,2v0.1c-0.2,1.6,1.2,2.5,2.7,2.4
		C128.2,15.1,128.8,13.8,128.6,12.5z M126.9,14.5c-1.2,0.4-2.1-0.5-2.1-1.6l0,0c0.2-1.5,2.3-1.8,3.1-0.5
		C128.3,13.2,127.8,14.2,126.9,14.5z"/>
	<path class="st1" d="M127,11.9C126.9,11.9,126.9,11.9,127,11.9c0.2,0.3,0.4,0.6,0.4,1c0,0.5-0.3,0.7-0.5,1.1c0,0,0,0.1,0.1,0.1
		C127.8,14,127.9,12.1,127,11.9z"/>
	<path class="st1" d="M126.7,14.1L126.7,14.1c-0.1,0.1-0.2,0.1-0.3,0.1c0,0-0.1,0,0,0.1c0.1,0.1,0.2,0.1,0.3,0
		C126.7,14.2,126.7,14.2,126.7,14.1C126.7,14.1,126.7,14.1,126.7,14.1z"/>
</g>
<path class="st1" d="M6.9,253.3c-1.3,0.6-1.3,2.1-0.7,3c0.1,0.3,0.3,0.5,0.6,0.6c0.9,0.6,2,0.4,2.7-0.5c0.6-0.8,0.6-1.9,0-2.7
	C8.9,252.9,7.9,252.8,6.9,253.3z"/>
<path class="st1" d="M74.5,281.2c-1.1,0.5-1.2,1.8-0.5,2.6c0.1,0.2,0.3,0.4,0.5,0.5c0.7,0.5,1.7,0.3,2.3-0.4c0.5-0.7,0.5-1.6,0-2.2
	C76.2,280.9,75.2,280.8,74.5,281.2z"/>
<path class="st1" d="M79.1,284.6c0-0.1,0-0.2,0-0.3c0,0,0-0.1,0-0.1c-0.1-0.3-0.3-0.5-0.6-0.5c-0.6-0.1-1.2,0.4-1,1
	c0.1,0.4,0.5,0.6,0.9,0.6C78.7,285.2,79,284.9,79.1,284.6z"/>
<path class="st1" d="M293.7,146.3c-0.3,0.1-0.4,0.5-0.4,0.8c-0.1,0.4,0.2,0.7,0.5,0.8c0.4,0.1,1-0.1,1.1-0.4c0,0,0-0.1,0-0.1
	c0.2-0.3,0-0.7-0.2-0.9C294.5,146.2,294,146.1,293.7,146.3z"/>
<path class="st1" d="M278.2,132.8c-1.1-0.1-1.9,0.8-1.8,1.7c-0.1,0.4,0.1,1,0.4,1.3c0.6,0.6,1.5,0.5,2.1,0c0.5-0.4,0.9-1.1,0.8-1.7
	C279.7,133.2,279,132.9,278.2,132.8z"/>
<path class="st1" d="M296.4,101C296.4,101,296.4,100.9,296.4,101c0.2-0.3,0.1-0.6-0.1-0.8c-0.2-0.3-0.6-0.3-0.8-0.2
	c-0.3,0.1-0.4,0.4-0.4,0.7c0,0.3,0.1,0.6,0.4,0.7C295.8,101.4,296.2,101.3,296.4,101z"/>
<path class="st1" d="M268.1,147.7c-0.1-0.4-0.5-0.7-0.9-0.6c-0.3,0-0.5,0.1-0.6,0.4c-0.1,0.3-0.1,0.6-0.1,0.8c0,0.1,0.1,0.2,0.2,0.3
	c0.1,0.1,0.3,0.2,0.4,0.3C267.7,148.9,268.2,148.3,268.1,147.7z"/>
<path class="st1" d="M281.5,83.4c-0.8-0.1-1.5,0.6-1.6,1.4c0,0.4,0.1,0.8,0.5,1.2c0.3,0.3,0.6,0.4,0.9,0.4c0.8,0.1,1.3-0.6,1.4-1.3
	C282.8,84.3,282.3,83.5,281.5,83.4z"/>
<path class="st1" d="M293,88c0.3,0.1,0.6,0.2,0.8,0.2c0.2,0,0.4,0,0.7-0.1c1-0.3,1.4-1.5,1.2-2.4c-0.2-1.1-1.5-1.6-2.5-1.3
	C291.8,84.8,291.6,87.3,293,88z"/>
<g>
	<path class="st2" d="M256,147.7C256,147.7,256,147.7,256,147.7C256,147.7,256,147.7,256,147.7z"/>
	<path class="st2" d="M251.1,152.9C251.1,152.9,251.1,152.9,251.1,152.9C251.1,152.9,251.1,152.9,251.1,152.9z"/>
	<path class="st2" d="M253.8,152.8c1.7-0.4,3.4-0.8,5.1-1.3c0.1-0.1,0.1-0.2,0-0.3c-0.3-0.4-0.6-0.8-1-1.2c1.1-0.7,2.1-1.3,3.2-2
		c-0.4-0.6-0.8-1.2-1.2-1.8c-1.1,0.7-2.2,1.4-3.3,2.1c-0.2-0.3-0.4-0.5-0.7-0.8c0-0.1,0-0.1,0-0.2c-0.1,0-0.2,0-0.2,0
		c-0.1,0.2-0.2,0.3-0.4,0.5c0,0,0,0,0,0c0,0,0,0,0,0c0,0,0,0,0,0c0,0,0,0,0,0c0,0,0,0,0,0c0,0,0,0-0.1,0.1c0,0,0,0,0,0c0,0,0,0,0,0
		c0,0,0,0,0,0c0,0,0,0.1-0.1,0.1c0,0,0,0,0,0c0,0,0,0,0,0c0,0,0,0,0,0c0,0,0,0,0,0c0,0,0,0,0,0c-0.4,0.4-0.8,0.8-1.1,1.2
		c0,0,0,0,0,0c0,0-0.1,0.1-0.1,0.1c0,0,0,0,0,0c-0.2,0.2-0.4,0.5-0.6,0.7c0,0,0,0,0,0c0,0,0,0,0,0c0,0,0,0,0,0
		c-0.1,0.1-0.2,0.2-0.2,0.3c0,0,0,0,0,0c-0.7,0.8-1.5,1.6-1.9,2.6c0.1,0.2,0.3,0.2,0.4,0.2c0.6-0.1,1.3-0.2,1.9-0.3c0,0,0,0,0,0
		C253.5,152.9,253.7,152.9,253.8,152.8z"/>
	<path class="st2" d="M264.2,143.8c-1,0.5-2,1.1-2.9,1.7c0.3,0.7,0.9,1.1,1.4,1.6c1.1-0.7,2.2-1.3,3.3-1.9c-0.3-0.7-0.7-1.2-1.1-1.9
		C264.7,143.5,264.5,143.6,264.2,143.8z"/>
	<path class="st2" d="M270.2,141.1c-1.3,0.5-2.5,0.9-3.7,1.5c0.4,0.6,0.8,1.2,1.2,1.8c1.1-0.4,2.1-0.9,3.2-1.3
		C270.7,142.5,270.4,141.8,270.2,141.1z"/>
	<path class="st2" d="M275.5,139.3c-1,0.3-2,0.7-3,1c0.3,0.7,0.5,1.3,0.7,2c1-0.3,2-0.7,3-1c0,0,0,0,0,0c0,0,0,0,0,0c0,0,0,0,0,0
		c0,0,0.1,0,0.1,0C276,140.6,275.7,140,275.5,139.3z"/>
	<path class="st2" d="M280.9,137.8c-1.4,0.3-2.7,0.7-4,1.1c0.2,0.7,0.5,1.3,0.9,2c1.2-0.3,2.4-0.7,3.6-1
		C281.2,139.2,281,138.5,280.9,137.8z"/>
	<path class="st2" d="M287,136.8c0-0.1,0-0.2-0.1-0.3c-1.6,0.3-3.1,0.6-4.6,1c0.1,0.7,0.2,1.4,0.2,2.1c1.6-0.4,3.2-0.7,4.8-1
		C287.3,138,287.2,137.4,287,136.8z"/>
	<path class="st2" d="M292.8,136.8c0-0.4,0-0.8,0.1-1.2c-1.3,0.2-2.6,0.4-4,0.6c0.1,0.7,0.3,1.4,0.4,2.1c1.2-0.2,2.3-0.4,3.5-0.5
		C292.7,137.4,292.7,137.1,292.8,136.8z"/>
	<path class="st2" d="M295.2,135.3c0,0.7,0,1.4-0.1,2.2c1-0.1,2.1-0.3,3.1-0.2c0-0.7,0-1.4,0-2.1C297.3,135,296.3,135.1,295.2,135.3
		z"/>
</g>
<path class="st1" d="M153.1,290.8c-0.5,0.2-0.7,0.8-0.7,1.3c-0.1,0.6,0.3,1.1,0.8,1.3c0.6,0.2,1.5-0.1,1.7-0.6c0,0,0-0.1,0-0.2
	c0.3-0.5,0-1.1-0.3-1.4C154.3,290.7,153.6,290.5,153.1,290.8z"/>
<path class="st1" d="M128.8,269.7c-1.7-0.2-2.9,1.3-2.8,2.7c-0.1,0.7,0.2,1.5,0.7,2c0.9,0.9,2.4,0.8,3.3,0c0.8-0.6,1.4-1.7,1.2-2.7
	C131.2,270.4,130.1,269.8,128.8,269.7z"/>
<path class="st1" d="M179.5,282.8c0,0,0-0.1,0.1-0.1c0.2-0.4,0-0.9-0.3-1.2c-0.3-0.4-0.9-0.5-1.3-0.3c-0.4,0.2-0.6,0.7-0.6,1.1
	c0,0.5,0.2,0.9,0.7,1.1C178.5,283.5,179.2,283.3,179.5,282.8z"/>
<path class="st1" d="M113.1,293c-0.2-0.6-0.8-1.1-1.4-1c-0.4,0-0.8,0.2-0.9,0.6c-0.2,0.4-0.2,0.9-0.1,1.3c0,0.2,0.2,0.3,0.3,0.4
	c0.2,0.2,0.4,0.3,0.6,0.4C112.4,294.8,113.3,293.9,113.1,293z"/>
<path class="st1" d="M156.2,255.4c-1.3-0.1-2.4,1-2.5,2.2c0,0.7,0.2,1.3,0.8,1.8c0.4,0.4,0.9,0.6,1.4,0.6c1.2,0.1,2.1-1,2.2-2.1
	C158.3,256.7,157.5,255.5,156.2,255.4z"/>
<path class="st1" d="M246.9,295.1c0.5,0.2,0.9,0.3,1.3,0.3c0.3,0,0.7,0,1.1-0.1c1.6-0.5,2.2-2.4,1.9-3.8c-0.3-1.7-2.3-2.5-3.9-2
	C245,290.1,244.7,294,246.9,295.1z"/>
<g>
	<path class="st1" d="M167.3,273.6c-0.4-2-2.4-3.2-4.3-3.1c-2.1,0.1-3.4,1.6-3.6,3.6v0.1c-0.3,2.8,2.2,4.5,4.8,4.2
		C166.5,278.1,167.7,275.8,167.3,273.6z M164.3,277c-2.1,0.7-3.7-0.9-3.8-2.8l0,0c0.4-2.7,4.1-3.1,5.4-0.8
		C166.6,274.8,165.8,276.5,164.3,277z"/>
	<path class="st1" d="M164.3,272.6C164.3,272.5,164.2,272.6,164.3,272.6c0.4,0.6,0.7,1.1,0.7,1.8c0,0.8-0.5,1.3-0.9,1.9
		c0,0,0,0.1,0.1,0.1C165.8,276.2,166,272.8,164.3,272.6z"/>
	<path class="st1" d="M163.9,276.3h-0.1c-0.1,0.1-0.2,0.2-0.4,0.1c0,0-0.1,0,0,0.1c0.2,0.2,0.4,0.2,0.6,0
		C163.9,276.5,163.9,276.4,163.9,276.3C163.9,276.4,163.9,276.3,163.9,276.3z"/>
</g>
</svg>
