<?xml version="1.0" encoding="utf-8"?>
<!-- Generator: Adobe Illustrator 26.3.1, SVG Export Plug-In . SVG Version: 6.00 Build 0)  -->
<svg version="1.1" id="Layer_1" xmlns="http://www.w3.org/2000/svg" xmlns:xlink="http://www.w3.org/1999/xlink" x="0px" y="0px"
	 viewBox="0 0 300 300" style="enable-background:new 0 0 300 300;" xml:space="preserve">
<style type="text/css">
	.st0{fill:#2D2D2D;}
	.st1{fill:#414042;}
</style>
<path class="st0" d="M270.1,37.8c-0.5,0.2-0.7,0.8-0.7,1.3c-0.1,0.6,0.3,1.1,0.8,1.3c0.6,0.2,1.5-0.1,1.7-0.6c0,0,0-0.1,0-0.2
	c0.3-0.5,0-1.1-0.3-1.4C271.3,37.7,270.6,37.5,270.1,37.8z"/>
<path class="st0" d="M25.9,53.7c-2.9,1.4-3,4.6-1.5,6.7c0.3,0.5,0.8,1,1.3,1.4c2,1.4,4.5,0.9,6-1c1.3-1.7,1.3-4.1,0.1-5.9
	C30.3,52.9,27.9,52.7,25.9,53.7z"/>
<path class="st0" d="M245.8,16.8c-1.7-0.2-2.9,1.3-2.8,2.7c-0.1,0.7,0.2,1.5,0.7,2c0.9,0.9,2.4,0.8,3.3,0c0.8-0.6,1.4-1.7,1.2-2.7
	C248.2,17.5,247.1,16.9,245.8,16.8z"/>
<path class="st0" d="M40.5,33.7c-0.5-0.4-1.3-0.2-1.8,0.2c-0.6,0.4-0.9,1-1,1.7c-0.1,0.8,0.6,1.5,1.3,1.8c0.9,0.3,1.9-0.3,2.2-1.2
	c0-0.1,0.1-0.2,0.1-0.4v-0.1C41.4,34.9,41.1,34.1,40.5,33.7z"/>
<g>
	<path class="st0" d="M98.9,7.9c-0.4-2-2.4-3.2-4.3-3.1c-2.1,0.1-3.4,1.6-3.6,3.6v0.1c-0.3,2.8,2.2,4.5,4.8,4.2
		C98.2,12.4,99.3,10.2,98.9,7.9z M95.9,11.4c-2.1,0.7-3.7-0.9-3.8-2.8l0,0c0.4-2.7,4.1-3.1,5.4-0.8C98.3,9.1,97.5,10.9,95.9,11.4z"
		/>
	<path class="st0" d="M96,6.9C95.9,6.9,95.9,6.9,96,6.9c0.4,0.6,0.7,1.1,0.7,1.8c0,0.8-0.5,1.3-0.9,1.9c0,0,0,0.1,0.1,0.1
		C97.5,10.5,97.7,7.1,96,6.9z"/>
	<path class="st0" d="M95.5,10.7L95.5,10.7c-0.2,0.1-0.3,0.2-0.5,0.1c0,0-0.1,0,0,0.1c0.2,0.2,0.4,0.2,0.6,0
		C95.6,10.8,95.6,10.8,95.5,10.7C95.6,10.7,95.6,10.7,95.5,10.7z"/>
</g>
<path class="st0" d="M82.8,33.6c-0.7,0-1.1,0.5-1.4,1.1c-0.2,0.6,0,1.2,0.4,1.7c0.4,0.5,0.9,0.6,1.5,0.5c0.9-0.2,1.6-1.2,1.3-2.1
	c-0.1-0.2-0.2-0.5-0.4-0.7C83.8,33.8,83.3,33.6,82.8,33.6z"/>
<path class="st0" d="M60.7,77.9c-1.1,1.9,0.1,3.7,1.8,4.3c0.4,0.2,0.8,0.2,1.1,0.2c1.6,0,2.8-1.2,2.9-2.8c0.1-1.5-0.8-2.8-2.2-3.3
	C62.8,75.8,61.4,76.6,60.7,77.9z"/>
<path class="st0" d="M72.8,11.8c-1.6,0.8-1.6,2.7-0.7,3.9c0.3,0.6,1,1.1,1.7,1.1c1.3,0.2,2.4-0.7,2.7-1.9c0.3-1,0.2-2.1-0.6-2.9
	C75.1,11,73.9,11.2,72.8,11.8z"/>
<path class="st0" d="M56.4,290.6c-0.5-0.3-1.2-0.3-1.6,0.1c-0.4,0.3-0.7,1-0.6,1.5c0.1,0.6,0.4,0.9,0.9,1.2c0.8,0.3,1.8-0.1,2.1-0.9
	c0.1-0.2,0.1-0.5,0-0.7C57.2,291.3,56.8,290.8,56.4,290.6z"/>
<path class="st0" d="M64.2,276.6c0.8-1.1,0.8-2.6,0-3.7c-0.9-1.2-2.4-1.4-3.7-0.7c-1.8,0.9-1.9,2.9-0.9,4.3c0.2,0.3,0.5,0.6,0.8,0.8
	C61.7,278.1,63.3,277.8,64.2,276.6z"/>
<path class="st0" d="M13.2,242.2c-2.3,1.5-1.8,5.3,0.5,5.8c1.3,0.6,2.9-0.1,3.8-1.1c1.1-1.3,1.1-3.1,0-4.4
	C16.5,241.3,14.5,241.4,13.2,242.2z"/>
<g>
	<path class="st0" d="M21.8,90.7c-8.4,6.7-10,18.3-2.4,26.2c0,0.1,0.1,0.1,0.1,0.2c6.5,7.5,17.3,7.7,25,2c8.3-6.1,9.3-17.3,2.8-25.1
		C40.8,86.2,30.1,84.2,21.8,90.7z M43.1,118.2c-7.2,5.4-16.4,4.3-22.6-1.9c-0.1-0.1-0.1-0.1-0.1-0.1c-2.7-3.7-4.4-7.7-4.1-12.4
		c0.2-4.2,2.7-8,5.7-10.8c7.1-6.7,17.3-5.6,23.6,1.5C52.3,101.9,51,112.3,43.1,118.2z"/>
	<path class="st0" d="M61.6,104.4c-2-0.9-3.9-1.9-6-2.7c1-2.5,2.1-5.4,3.7-7.4c0.4-0.5,0.2-1.2-0.5-1.2c-2.1-0.1-4.2-0.2-6.4-0.1
		c0.2-2.6,0.4-5.2,1.2-7.7c0.2-0.5-0.4-1-0.8-0.8c-2.1,0.8-4.2,1.4-6.2,2.4c-1.1-2.5-2.2-5.4-2.5-8c-0.1-0.6-0.8-1.1-1.3-0.5
		c-1.5,1.5-3.1,2.8-4.5,4.4c-1.7-1.9-3.4-3.9-4.6-6.2c-0.2-0.5-1.1-0.5-1.4,0c-0.9,1.9-1.9,3.9-2.7,5.9c-2.5-0.9-5.2-2-7.3-3.7
		c-0.5-0.4-1.3-0.2-1.3,0.5c-0.1,2.1-0.2,4.2-0.1,6.3c-2.5-0.2-5.2-0.4-7.6-1.2c-0.5-0.2-1.1,0.4-0.9,0.9c0.8,2,1.4,4.1,2.3,6.1
		c-2.5,1.1-5.2,2.3-7.8,2.6c-0.6,0.1-1.1,0.8-0.5,1.3c1.5,1.5,2.8,3.1,4.4,4.5c-1.9,1.7-3.9,3.4-6.2,4.5c-0.5,0.2-0.5,1.1,0,1.4
		c1.9,0.9,3.9,1.9,5.9,2.7c-1,2.5-2.1,5.3-3.7,7.4c-0.4,0.5-0.2,1.3,0.5,1.3c2.1,0.1,4.2,0.2,6.3,0.1c-0.2,2.5-0.4,5.2-1.2,7.6
		c-0.2,0.5,0.4,1.1,0.9,0.9c2-0.8,4.1-1.4,6.1-2.3c1.1,2.5,2.3,5.2,2.6,7.8c0.1,0.6,0.8,1.1,1.3,0.5c1.5-1.5,3.1-2.8,4.5-4.4
		c1.7,1.9,3.4,3.9,4.5,6.2c0.2,0.5,1.1,0.5,1.3,0c0.9-1.9,1.9-3.9,2.7-6c2.5,1,5.3,2.1,7.4,3.7c0.5,0.4,1.3,0.2,1.3-0.5
		c0.1-2.1,0.2-4.2,0.1-6.3c2.5,0.2,5.2,0.4,7.6,1.2c0.5,0.2,1.1-0.4,0.9-0.9c-0.8-2.1-1.4-4.1-2.3-6.1c2.5-1.1,5.2-2.3,7.9-2.6
		c0.6-0.1,1-0.8,0.5-1.2c-1.5-1.5-2.9-3.1-4.4-4.5c1.9-1.6,3.9-3.4,6.2-4.5C62,105.5,62,104.6,61.6,104.4z M57.7,114.8
		c-2.7,0.5-5.3,1.8-7.8,2.8c-0.4,0.2-0.4,0.7-0.3,1c0.8,1.7,1.4,3.4,2.1,5.2c-2.4-0.6-5-0.7-7.4-0.9c-0.4,0-0.8,0.4-0.8,0.8
		c0.2,1.9,0.1,3.8,0,5.7c-2.3-1.5-5-2.5-7.4-3.5c-0.4-0.2-0.8,0.2-0.9,0.5c-0.6,1.8-1.4,3.4-2.2,5.1c-1.3-2.1-3-4-4.6-5.8
		c-0.2-0.3-0.8-0.3-1.1,0c-1.2,1.5-2.6,2.7-4,4c-0.5-2.7-1.8-5.2-2.8-7.7c-0.2-0.4-0.7-0.5-1.1-0.3c-1.7,0.8-3.4,1.4-5.1,2
		c0.6-2.4,0.7-5,0.9-7.4c0-0.4-0.4-0.8-0.8-0.8c-1.9,0.2-3.8,0.1-5.7,0c1.5-2.3,2.5-5,3.5-7.4c0.2-0.4-0.2-0.8-0.5-0.9
		c-1.8-0.6-3.4-1.4-5.1-2.2c2.1-1.3,4-3,5.8-4.6c0.3-0.2,0.3-0.8,0-1.1c-1.5-1.2-2.7-2.6-4-4c2.7-0.5,5.2-1.8,7.7-2.8
		c0.4-0.2,0.5-0.7,0.3-1.1c-0.8-1.7-1.4-3.4-2-5.1c2.4,0.6,5,0.7,7.4,0.9c0.4,0,0.8-0.4,0.8-0.8c-0.2-1.9-0.1-3.8,0-5.7
		c2.2,1.5,5,2.5,7.4,3.5c0.4,0.2,0.8-0.2,0.9-0.5c0.6-1.8,1.4-3.4,2.2-5.1c1.3,2.1,3,4,4.6,5.8c0.2,0.3,0.8,0.3,1.1,0
		c1.2-1.5,2.6-2.8,4-4.1c0.6,2.7,1.9,5.2,2.9,7.7c0.1,0.3,0.4,0.4,0.6,0.3c0.1,0,0.1,0,0.2-0.1c1.7-0.8,3.5-1.4,5.4-2.1
		c-0.6,2.4-0.8,5.1-0.9,7.5c0,0.4,0.4,0.7,0.7,0.7c1.9-0.2,3.9-0.1,5.8,0c-1.5,2.3-2.5,5-3.5,7.5c-0.2,0.4,0.2,0.8,0.5,0.9
		c1.8,0.6,3.5,1.4,5.1,2.2c-2.1,1.3-4.1,3-5.9,4.7c-0.3,0.2-0.3,0.8,0,1.1C55.2,112,56.4,113.4,57.7,114.8z"/>
	<path class="st0" d="M41.1,92.8C41,92.8,40.9,92.8,41.1,92.8c3,2.9,5.3,5.8,6.1,10c0.9,4.6-0.8,8.5-3.1,12.4
		c-0.1,0.1,0.1,0.2,0.2,0.1C50.7,109.4,48.6,96.9,41.1,92.8z"/>
	<path class="st0" d="M43.6,115.8c-0.3,0.1-0.5,0.2-0.7,0.5c-0.2,0.2-0.4,0.5-0.6,0.7c-0.1,0.1,0.1,0.2,0.1,0.2
		c0.3-0.1,0.5-0.2,0.8-0.5c0.2-0.2,0.5-0.4,0.5-0.8C43.7,115.8,43.7,115.8,43.6,115.8z"/>
	<path class="st0" d="M23.9,93.1c-4,1.7-8.1,9.2-6.5,13.4c0,0.1,0.1,0.1,0.1,0c0.6-2.4,0.8-4.6,1.8-6.9c1.1-2.5,3-4.4,4.8-6.4
		C24.1,93.2,24,93.1,23.9,93.1z"/>
	<path class="st0" d="M26.2,91.5c-0.4-0.1-0.8,0.2-1.1,0.4c-0.4,0.2-0.6,0.4-0.6,0.8c0,0.1,0.1,0.1,0.1,0.1c0.3-0.2,0.5-0.4,0.8-0.5
		s0.6-0.3,0.8-0.6C26.3,91.5,26.2,91.5,26.2,91.5z"/>
</g>
<path class="st0" d="M296.5,29.9c0,0,0-0.1,0.1-0.1c0.2-0.4,0-0.9-0.3-1.2c-0.3-0.4-0.9-0.5-1.3-0.3s-0.6,0.7-0.6,1.1
	c0,0.5,0.2,0.9,0.7,1.1C295.5,30.6,296.2,30.4,296.5,29.9z"/>
<path class="st0" d="M230.1,40.1c-0.2-0.6-0.8-1.1-1.4-1c-0.4,0-0.8,0.2-0.9,0.6c-0.2,0.4-0.2,0.9-0.1,1.3c0,0.2,0.2,0.3,0.3,0.4
	c0.2,0.2,0.4,0.3,0.6,0.4C229.4,41.9,230.3,41,230.1,40.1z"/>
<path class="st0" d="M9.6,26.4c0.7,0.3,1.7-0.1,1.9-0.8c0.1-0.2,0.1-0.4,0-0.7c0-0.4-0.4-0.8-0.7-1.1c-0.5-0.3-1.1-0.2-1.5,0.1
	s-0.6,0.9-0.6,1.4C8.9,25.8,9.2,26.2,9.6,26.4z"/>
<path class="st0" d="M36.1,17.9c0.1,0.5,0.4,0.9,0.8,1.2c0.1,0.1,0.2,0.2,0.3,0.2c0.8,0.6,1.9,0.4,2.6-0.3c1.4-1.6-0.3-4.3-2.4-3.3
	C36.5,16.2,36,17,36.1,17.9z"/>
<path class="st0" d="M273.2,2.5c-1.3-0.1-2.4,1-2.5,2.2c0,0.7,0.2,1.3,0.8,1.8c0.4,0.4,0.9,0.6,1.4,0.6c1.2,0.1,2.1-1,2.2-2.1
	C275.3,3.8,274.5,2.6,273.2,2.5z"/>
<path class="st0" d="M291.1,9.7c0.5,0.2,0.9,0.3,1.3,0.3c0.3,0,0.7,0,1.1-0.1c1.6-0.5,2.2-2.4,1.9-3.8c-0.3-1.7-2.3-2.5-3.9-2
	C289.2,4.7,288.9,8.6,291.1,9.7z"/>
<g>
	<path class="st0" d="M129.1,277.4c-1-1.3-2.4-2.2-4-2.8c4.6-3,7.1-9.4,3.4-14.4s-10-4.1-13.9-0.5c-0.2-1.4-0.6-2.7-1.2-4
		c-2.1-4.4-6.9-5.9-11.3-4.2c-4.2,1.6-6.6,5.6-6.6,10c0,1.5,0.5,3.3,1.3,4.9c-0.9-0.3-1.8-0.5-2.7-0.6c-4-0.3-7.6,2.6-8.9,6.3
		c-2.5,7.3,4.1,12.3,10.6,11.7c-1.6,2.8-2.1,6.3-1.3,9.4c1,4,5.3,7.6,9.5,7c5.2-0.7,10.1-7.5,9-12.8c3.5,5.5,11.4,8.2,16,1.9
		C131.7,285.5,132,281.1,129.1,277.4z M106.2,282.6c-7.4-2.1-5.4-9.5-0.7-13.2c0.1-0.1,0.1-0.1,0.2-0.2c3.2-1.4,6.8-1.8,9,1.3
		c1.9,2.6,1,6.3-0.5,8.8C112.5,282.1,109.4,283.5,106.2,282.6z M118,260.9c2.4-1.4,5.3-1.1,7.3,0.8c2.4,2.3,2,5.5,0.3,8.1
		c-1.6,2.4-4.1,3.2-6.7,3.7c0-0.4-0.1-0.9-0.2-1.3c1.4-0.3,3.2-1.6,3.8-2.1c1.1-0.9,3.5-3.5,2.5-5.2c0-0.1-0.1,0-0.1,0
		c-0.4,0.6-0.6,1.4-0.9,2c-0.5,1-1.3,1.8-2.1,2.5c-0.8,0.7-1.7,1.2-2.7,1.6c-0.2,0.1-0.5,0.1-0.8,0.1c-0.3-1-0.8-2-1.5-2.8
		c-0.8-1-1.8-1.7-2.8-2.2C114.8,263.8,116,262.1,118,260.9z M101.9,255c6.7-4.5,12.4,4.3,8.9,10c-0.5,0-1,0-1.5,0
		c0.8-2.6,0.1-6.4-2.1-7.7c0,0-0.1,0-0.1,0.1c0.9,1.5,1.5,2.9,1.5,4.7c0,1-0.3,2-0.4,3c-2.1,0.4-4.2,1.3-5.9,2.6
		c-1.6-1.3-2.9-2.5-3.5-4.8C97.9,259.8,99.3,256.7,101.9,255z M91.4,280.5c-3-0.9-4.4-4.1-3.7-7c1.5-5.9,8.6-6.3,11.6-1.8
		c-1,1.7-1.4,3.6-1.2,5.5c-0.2,0-0.4,0.1-0.6,0.2c-1,0.4-1.9,0.6-3,0.6c-1.5,0.1-3-0.4-4.4-0.8c-0.1,0-0.2,0.1-0.1,0.2
		c1.2,1.2,2.9,1.5,4.5,1.7c1.1,0.1,2.8,0,3.7-0.8c0.1,0.5,0.3,1,0.5,1.6C96.3,280.7,94.1,281.3,91.4,280.5z M104.8,297
		c-3.4,1.3-6.4-1.7-7.5-4.6c-1.4-3.8,0.9-7.1,3.1-10c0.7,0.7,1.4,1.4,2.4,2c1.3,0.8,2.6,1.3,3.9,1.5c0.3,1.1,0.2,2.3,0,3.3
		c-0.4,2.2-1.7,3.5-2.9,5.2c0,0.1,0,0.2,0.1,0.2c3,0,4.7-5.3,4.2-8.6c0.3,0,0.6,0,0.9,0C111.2,290,109.3,295.3,104.8,297z
		 M127,287.2c-3.8,6.4-10.4,1.4-12.9-3.2c0.4-0.3,0.9-0.7,1.3-1.1c0.5,1.2,1.1,2.3,1.8,3.3c0.8,1.1,3.3,3.2,4.8,2.1l0,0
		c-0.5-0.6-1.4-0.7-2.1-1.1c-1-0.6-1.8-1.6-2.4-2.6c-0.5-0.8-0.9-1.7-1.3-2.6c0.1-0.1,0.2-0.2,0.3-0.3c1-1.3,1.7-3,2.1-4.7
		c2.5,0,4.7-0.1,7,1.3C129,280.3,128.8,284.2,127,287.2z"/>
	<path class="st0" d="M113.4,276.3c-1,1.6-2.5,2.7-4.4,3.1c-1.6,0.3-3.2-0.1-4.8,0c-0.1,0-0.1,0.1,0,0.1c3.3,2.5,8.9,1.2,9.6-3.1
		C113.8,276.2,113.5,276.1,113.4,276.3z"/>
</g>
<path class="st1" d="M298,165.2c-0.7,2.1-1.9,3.9-3,5.8c-1.1,1.8-1.9,3.8-3.3,5.3c-4.1,4.2-10.1,4.2-14.7,0.9
	c-2.3-1.4-4.7-2.9-7.5-2.9c-4.2,0.2-4.6,4.8-3.8,8.1c0,0,0,0,0,0c0,0.1,0.1,0.3,0.1,0.4c0,0,0,0,0,0c0.2,1,0.5,2,0.7,3.1
	c0,0,0,0,0,0c0,0.2,0.1,0.5,0.1,0.7c0,0,0,0,0,0c0.5,2.9,1.6,5.6,2.3,8.5c0.8,5.8-2.8,7.8-8.1,7.3c-3.2-0.3-6-1.8-8.9-3.2
	c-2.3-1-4.5-1.9-6.9-2.6c-4.1-1.2-8.3-2.2-12.5-2.6c-3.3-0.2-6.7-0.1-10,0.5c-7.6,1.9-15.4,5.8-20.9,11.4c-0.9,0.1-1.8,0.2-2.7,0.6
	c0,0,0,0,0,0c-0.3,0.2-0.7,0.3-1,0.5c0,0,0,0,0,0c-1.8,2.2-3.1,4.8-4.3,7.4c-1,2.1-1.7,4.4-2.2,6.7c-0.1,0.4,0.6,0.6,0.7,0.2
	c0,0,0,0,0,0c0-0.1,0.1-0.2,0.2-0.4c0,0,0,0,0,0c0-0.1,0.1-0.1,0.1-0.2c0,0,0,0,0,0c0,0,0,0,0,0c0,0,0,0,0,0
	c2.2-4.4,4.9-8.8,9.1-11.5c0.9-0.6,1.8-1.2,2.8-1.7c0.4-0.2,1-0.4,1-0.9c0.5-0.6-2.5-0.9-2.8-0.8c2.9-2.7,6.2-4.9,9.7-6.7
	c0,0,0,0,0,0c4.6-2.3,9.5-4.3,14.6-4.4c4.5-0.3,9,0.4,13.3,1.4c4.3,1.1,8.5,2.4,12.5,4.4c0,0,0,0-0.1,0c3,1.6,6.4,2.9,9.9,2.7
	c2.1-0.1,4.3-0.5,5.7-2.1c1.4-1.5,1.7-3.8,1.5-5.8c-0.2-1.7-0.9-3.4-1.4-5c-0.8-2.6-1.2-5.3-1.9-7.9c-0.9-3.7,0-8.2,4.8-7
	c0,0,0,0,0,0c3.5,0.8,6.1,3.6,9.5,4.7c4.5,1.4,9.1,0.1,12.2-3.4c1.3-1.7,2.1-3.7,3.3-5.5c1.8-3,3-6.2,3.9-9.6
	c0.1-0.3-0.4-0.5-0.5-0.1c-0.4,1.2-0.8,2.3-1.2,3.5c0,0,0,0,0,0C298.1,164.8,298.1,165,298,165.2z M194.5,214.1
	c1.1-2.4,2.1-4.9,3.6-7c0.8-0.2,1.6-0.5,2.4-0.6c-1.5,1.5-2.8,3.2-4,5c-0.9,1.1-1.8,2.3-2.5,3.5
	C194.2,214.7,194.4,214.4,194.5,214.1z M202.9,206.3c0.3,0,0.7,0,1,0c-1.4,0.6-2.7,1.3-3.9,2.2c0,0,0,0,0,0c-0.1,0-0.1,0.1-0.2,0.1
	c0,0,0,0,0,0c-0.5,0.3-1,0.8-1.4,1.2c0.3-0.4,0.7-0.9,1.1-1.3c0,0,0,0,0,0c0.7-0.7,1.3-1.4,2-2.1C202,206.3,202.4,206.3,202.9,206.3
	z"/>
<path class="st0" d="M290.8,289.2c-0.5-0.4-1.3-0.2-1.8,0.2c-0.6,0.4-0.9,1-1,1.7c-0.1,0.8,0.6,1.5,1.3,1.8c0.9,0.3,1.9-0.3,2.2-1.2
	c0-0.1,0.1-0.2,0.1-0.4v-0.1C291.7,290.4,291.4,289.6,290.8,289.2z"/>
<g>
	<path class="st0" d="M255,242.6c-0.4-2-2.4-3.2-4.3-3.1c-2.1,0.1-3.4,1.6-3.6,3.6v0.1c-0.3,2.8,2.2,4.5,4.8,4.2
		C254.3,247.2,255.4,244.9,255,242.6z M252,246.1c-2.1,0.7-3.7-0.9-3.8-2.8l0,0c0.4-2.7,4.1-3.1,5.4-0.8
		C254.3,243.8,253.5,245.6,252,246.1z"/>
	<path class="st0" d="M252,241.6C252,241.6,252,241.7,252,241.6c0.4,0.6,0.7,1.1,0.7,1.8c0,0.8-0.5,1.3-0.9,1.9c0,0,0,0.1,0.1,0.1
		C253.6,245.2,253.8,241.9,252,241.6z"/>
	<path class="st0" d="M251.6,245.4h-0.1c-0.1,0.1-0.2,0.2-0.4,0.1c0,0-0.1,0,0,0.1c0.2,0.2,0.4,0.2,0.6,0
		C251.7,245.6,251.7,245.5,251.6,245.4L251.6,245.4z"/>
</g>
<path class="st0" d="M279,243.5c-0.8,0-1.4,0.6-1.7,1.3c-0.2,0.7,0,1.5,0.5,2.1c0.5,0.6,1.1,0.7,1.8,0.6c1.1-0.2,1.9-1.5,1.6-2.5
	c-0.1-0.3-0.3-0.6-0.5-0.8C280.3,243.7,279.6,243.5,279,243.5z"/>
<path class="st0" d="M184.4,294.1c-0.5,0.2-0.7,0.8-0.7,1.3c-0.1,0.6,0.3,1.1,0.8,1.3c0.6,0.2,1.5-0.1,1.7-0.6c0,0,0-0.1,0-0.2
	c0.3-0.5,0-1.1-0.3-1.4C185.6,294,184.9,293.8,184.4,294.1z"/>
<path class="st0" d="M160.1,273.1c-1.7-0.2-2.9,1.3-2.8,2.7c-0.1,0.7,0.2,1.5,0.7,2c0.9,0.9,2.4,0.8,3.3,0c0.8-0.6,1.4-1.7,1.2-2.7
	C162.5,273.8,161.4,273.2,160.1,273.1z"/>
<path class="st0" d="M210.8,286.2c0,0,0-0.1,0.1-0.1c0.2-0.4,0-0.9-0.3-1.2c-0.3-0.4-0.9-0.5-1.3-0.3s-0.6,0.7-0.6,1.1
	c0,0.5,0.2,0.9,0.7,1.1C209.8,286.9,210.5,286.7,210.8,286.2z"/>
<path class="st0" d="M144.4,296.4c-0.2-0.6-0.8-1.1-1.4-1c-0.4,0-0.8,0.2-0.9,0.6c-0.2,0.4-0.2,0.9-0.1,1.3c0,0.2,0.2,0.3,0.3,0.4
	c0.2,0.2,0.4,0.3,0.6,0.4C143.7,298.2,144.6,297.3,144.4,296.4z"/>
<path class="st0" d="M187.5,258.8c-1.3-0.1-2.4,1-2.5,2.2c0,0.7,0.2,1.3,0.8,1.8c0.4,0.4,0.9,0.6,1.4,0.6c1.2,0.1,2.1-1,2.2-2.1
	C189.6,260.1,188.8,258.9,187.5,258.8z"/>
<path class="st0" d="M205.4,266c0.5,0.2,0.9,0.3,1.3,0.3c0.3,0,0.7,0,1.1-0.1c1.6-0.5,2.2-2.4,1.9-3.8c-0.3-1.7-2.3-2.5-3.9-2
	C203.5,261,203.2,264.9,205.4,266z"/>
</svg>
