<?xml version="1.0" encoding="UTF-8"?><svg id="a" xmlns="http://www.w3.org/2000/svg" viewBox="0 0 88.77 95.85"><defs><style>.b{fill:#263232;}</style></defs><path class="b" d="M87.79,60.37c-5.34-17.96-26.25-23.14-40.41-32.03,.13-.93-.15-1.88-.89-2.6-.01-.01-.03-.02-.05-.04,.03-.05,.07-.1,.1-.16,.69-1.36,.3-2.76-.75-3.61,2.22-4.75,7.25-7.66,11.6-10.33,.19-.1,.38-.21,.56-.35l.09-.06c.08-.05,.14-.1,.19-.16,.56-.48,1.04-1.14,1.47-2,.04-.06,.07-.13,.09-.21,.82-3.05-.93-6.19-4.22-6.73-2.46-.4-4.39,1.72-6.92,.63-1.25-.54-1.95-1.74-3.45-1.74-1.65,0-1.81,1.01-2.98,1.71-3.06,1.81-3.48-1.25-5.44-2.29-3-1.58-4.28,1.82-6.48,3.04-1.87,.47-3.81-.67-5.66-.82-1.89-.15-3.37,.69-4.24,2.38-1.25,2.44-.11,4.33,1.78,5.21,.09,.11,.21,.2,.38,.26,5.89,1.97,9.91,6.11,13.05,11.27-1.43,.92-1.84,2.8-.91,4.28,.07,.12,.16,.21,.24,.31-1.03,1.06-1.3,2.59-.71,3.93-10.93,9.29-25.07,14.94-31.73,28.51-6.69,13.62,.83,27.67,14.17,33.32,15.19,6.43,34.53,3.72,49.58-1.79,6.72-2.46,13.89-5.63,18.45-11.36,4.22-5.3,5.01-12.19,3.1-18.59ZM36.12,27.38c1.27,.71,2.89,.81,4.32,.72,1.61-.1,3.58-.25,4.95-1.23,.49,.49,.64,.93,.56,1.34-.1,.13-.17,.3-.19,.47-.88,1.37-4.24,2.21-5.15,2.39-1.21,.25-2.52,.39-3.67-.2-1.36-.68-2.01-2.33-.81-3.5Zm.15-4.18c2.58,1.32,5.51,1.3,8.04-.08,.19,.08,.41,.1,.61,.04,1.29,.92-.65,2.68-1.77,3.01-.96,.28-2.06,.32-3.06,.37-.89,.04-1.78,.05-2.62-.29-1.17-.47-2.44-2.06-1.2-3.05ZM24.43,4.2c2.18,.1,4.14,1.38,6.35,.76,.08-.02,.14-.05,.2-.09,1.03-.53,1.54-1.34,2.41-2.06,2.14-1.78,2.89-.74,4.38,.72,1.09,1.07,2.16,2.05,3.79,1.55,.79-.24,1.12-.87,1.76-1.27,2.5-1.57,3.09-.14,5.29,.69,.85,.32,1.53,.34,2.4,.2,.62-.1,1.17-.49,1.77-.6,2.55-.47,6.52,.22,5.49,4.24-2.37,4.61-7.04,.11-10.36-.93-2.77-.86-4.4,.05-6.2,2.15-1.23,1.44-2.05,3.23-4.47,1.46-.63-.46-1.04-1.46-1.5-2.11-.7-1.01-1.45-2.1-2.63-2.59-3.05-1.29-5.15,1.97-7.74,2.85-.63,.11-1.44,.1-2.17-.11-.08-.03-.16-.06-.25-.09,0,0-.02,0-.03,0-.66-.24-1.22-.66-1.44-1.33-.62-1.82,1.26-3.51,2.93-3.43Zm1.98,6.24c1.87-.87,3.12-2.45,5.31-2.29,2.6,.19,2.77,2.34,4.41,3.99,1.77,1.79,3.84,1.5,5.55-.06-.73,1.79-.9,3.79-.44,5.78,.09,.37,.66,.21,.57-.16-.73-3.16,.23-6.31,2.57-8.54,1.46-.81,2.85-.37,4.33,.26,1.51,.65,2.9,1.56,4.45,2.12,.32,.11,.62,.2,.92,.27-3.93,2.5-7.8,5.38-9.77,9.62-.12,0-.25,.04-.38,.12-2,1.23-4.35,1.4-6.47,.46,0-.13-.03-.27-.11-.42-2.78-4.73-6.23-8.67-10.93-11.15Zm59.04,64.42c-3.33,6.67-10.57,10.34-17.19,13-14.13,5.67-31.42,8.49-46.35,4.4C6.9,88.14-3.72,73.64,4.36,58.6c6.82-12.7,20.26-18.17,30.79-27.04,1.2,1.1,3,1.43,4.57,1.27,2.13-.22,5.37-.95,6.85-2.69,.08-.1,.15-.2,.22-.3,11.84,7.38,26.89,11.45,35.49,23.1,4.55,6.16,6.75,14.78,3.18,21.93Z"/><path class="b" d="M56.1,63.75c-2.83-1.42-6.49-1.48-10.12-1.6-1.19-5.67-2.37-11.34-3.56-17.02,.7-.05,1.4-.05,2.1,0,1.11,.22,2.14,.67,3.03,1.41-4.59,1.92-1.71,9.44,3.15,7,2.36-1.18,2.63-4.38,1.4-6.49-1.39-2.39-4.28-3.26-6.95-3.47-.99-.24-2.04-.32-3.11-.27-.27-1.28-.53-2.55-.8-3.83-.21-.99-1.73-.57-1.52,.42,.25,1.19,.5,2.39,.75,3.58-.91,.15-1.82,.4-2.71,.71-.11-.93-.22-1.86-.32-2.79-.12-1-1.7-1.01-1.58,0,.13,1.14,.26,2.27,.4,3.41-6.91,3.21-11.85,10.86-4.05,16.44,1.55,1.11,3.75,1.67,6.21,2.04,.74,6.38,1.48,12.76,2.23,19.15-2.76-.33-5.4-1.27-7.77-2.77,.26,.01,.52,0,.77-.02,1.55,.07,3.09-.62,3.51-2.2,1.14-1.78,1.06-4.24-.55-6.09-2.63-3.01-7.03-1.6-8.7,1.68-2.19,4.29,1.07,8.86,4.98,10.64,2.39,1.09,5.22,1.52,8.08,1.53,.18,1.54,.36,3.09,.54,4.63,.12,1,1.7,1.01,1.58,0-.18-1.55-.36-3.11-.54-4.66,2.25-.1,4.47-.43,6.48-.86,.38,1.81,.76,3.62,1.14,5.44,.21,.99,1.73,.57,1.52-.42-.38-1.79-.75-3.59-1.13-5.38,4.56-1.26,8.71-4.04,10.29-8.71,1.58-4.7-.3-9.27-4.73-11.49Zm-19.59-16.68c.54,4.68,1.09,9.37,1.63,14.05-1.97-.67-3.67-1.81-4.87-3.8-2.32-3.85-.09-7.99,3.23-10.26Zm7.85,15.02c-1.58-.08-3.13-.21-4.58-.52-.6-5.12-1.19-10.23-1.79-15.35,.41-.19,.82-.36,1.24-.49,.53-.17,1.07-.3,1.62-.4,1.17,5.58,2.34,11.17,3.5,16.75Zm6.23-12.49c.33-.21,.55-.63,.35-1.08-.14-.32-.3-.63-.47-.92l.26,.25c.77,1.97,.72,2.55-.14,1.75Zm-20.25,7.35c-1.37-2.62-.48-4.93,1.19-6.78-1,1.97-1.22,4.29-.17,6.86,.55,1.34,1.29,2.38,2.16,3.21-1.31-.82-2.45-1.89-3.18-3.29Zm9.66,6.57c1.55,.18,3.17,.32,4.76,.5,1.23,5.89,2.46,11.78,3.7,17.67-1.01,.34-2.02,.57-2.97,.71-1.1,.16-2.19,.21-3.27,.17-.74-6.35-1.48-12.7-2.22-19.05Zm6.41,.7c5.39,.72,10.13,2.17,10.6,7.64,.37,4.41-3.15,7.57-7.06,9.26-1.18-5.63-2.36-11.27-3.54-16.9Zm-13.96,8.49s.04,.01,.05,.01c.01,0,.03,.02,.05,.04-.02,0-.04,.01-.06,.02-.08-.02-.15-.02-.23-.03,.01,0,.02-.02,.04-.02,.01,0,.07-.02,.1-.02,0,0,.03,0,.06,0Zm3.2,.63c-.6-.45-1.32-.72-2.05-.69,.04-.04,.07-.08,.1-.13,.17-.29,.12-.59-.05-.84,.85,.27,1.56,.89,2,1.65Zm-4.98-1.1c-.04,.09-.08,.18-.11,.28-.03,.14-.04,.29-.04,.42-.28,.02-.55,.1-.8,.21,.25-.34,.57-.65,.95-.91Zm-.28,7.63c1.94,1.48,4.11,2.61,6.4,3.34h-.04c-2.43-.43-4.85-1.48-6.36-3.34Zm23.43,1.15c-.54,.3-1.11,.56-1.69,.8,4.45-2.6,8.25-7.6,5.78-12.77-1.14-2.39-2.9-3.83-4.97-4.74,1.01,.25,1.96,.59,2.82,1.06,6.98,3.85,3.82,12.48-1.94,15.64Z"/><path class="b" d="M70.66,45.2c-5.71-3.35-11.41-6.71-17.12-10.06-.33-.19-.63,.32-.3,.51,5.71,3.35,11.41,6.71,17.12,10.06,.33,.19,.63-.32,.3-.51Z"/><path class="b" d="M73.63,47.1c-.27-.27-.69,.15-.42,.42,1.59,1.56,3.18,3.12,4.77,4.68,.27,.27,.69-.15,.42-.42-1.59-1.56-3.18-3.12-4.77-4.68Z"/><path class="b" d="M80.94,55.07c.6,.88,1.2,1.76,1.81,2.63,.21,.31,.73,.02,.51-.3-.6-.88-1.2-1.76-1.81-2.63-.21-.31-.73-.02-.51,.3Z"/><path class="b" d="M21.84,86.74c-7.7-1.79-13.9-7.18-16.71-14.58-.13-.35-.71-.2-.57,.16,2.88,7.59,9.2,13.15,17.12,15,.37,.09,.53-.48,.16-.57Z"/><path class="b" d="M28.87,89.37c-1.28-.31-2.55-.62-3.83-.94-.37-.09-.53,.48-.16,.57,1.28,.31,2.55,.62,3.83,.94,.37,.09,.53-.48,.16-.57Z"/><path class="b" d="M33.25,89.54h-1.18c-.38,0-.38,.59,0,.59h1.18c.38,0,.38-.59,0-.59Z"/><path class="b" d="M12.48,63.65c-1.51-1.37-2.16-3.34-1.71-5.34,.08-.37-.49-.53-.57-.16-.49,2.19,.19,4.41,1.86,5.91,.28,.25,.7-.16,.42-.42Z"/><path class="b" d="M14.41,63.43c.14,.35,.71,.2,.57-.16-.56-1.39-1.11-2.78-1.67-4.18-.14-.35-.71-.2-.57,.16,.56,1.39,1.11,2.78,1.67,4.18Z"/><path class="b" d="M17.01,60.01c.38,0,.38-.59,0-.59s-.38,.59,0,.59Z"/></svg>