<?xml version="1.0" encoding="utf-8"?>
<!-- Generator: Adobe Illustrator 26.3.1, SVG Export Plug-In . SVG Version: 6.00 Build 0)  -->
<svg version="1.1" id="Graphic_Elements" xmlns="http://www.w3.org/2000/svg" xmlns:xlink="http://www.w3.org/1999/xlink" x="0px"
	 y="0px" viewBox="0 0 1229.5 842.7" style="enable-background:new 0 0 1229.5 842.7;" xml:space="preserve">
<style type="text/css">
	.st0{clip-path:url(#SVGID_00000123398978781894036690000009008002040448614297_);}
	.st1{opacity:0.9;fill:#263232;enable-background:new    ;}
</style>
<g>
	<defs>
		<rect id="SVGID_1_" x="10.5" y="21.3" width="1200" height="800"/>
	</defs>
	<clipPath id="SVGID_00000031198135732021009400000014858076687274423708_">
		<use xlink:href="#SVGID_1_"  style="overflow:visible;"/>
	</clipPath>
	<g style="clip-path:url(#SVGID_00000031198135732021009400000014858076687274423708_);">
		<path class="st1" d="M54.3,51.2v59H0v3h54.3v59H0v3h54.3V234H0v3h54.3v59H0v3h54.3v59.1H0v3h54.3v58.8H0v3h54.3v59H0v3h54.3v59H0
			v3h54.3v58.8H0v3h54.3v59H0v3h54.3v59H0v3h54.3v58.9H0v3h54.3v48.2h3v-48.2h62.1v48.2h3v-48.2H185v48.2h3v-48.2H250v48.2h3v-48.2
			h62.2v48.2h3v-48.2h62.3v48.2h3v-48.2h62v48.2h3v-48.2h62v48.2h3v-48.2h61.9v48.2h3v-48.2h62.4v48.2h3v-48.2h62.6v48.2h3v-48.2
			h62.5v48.2h3v-48.2h62.5v48.2h3v-48.2h62.8v48.2h3v-48.2h61v48.2h3v-48.2h62.6v48.2h3v-48.2l62,0v48.2h3v-48.2l62.3,0v48.2h3
			v-48.2h63.4v-3h-63.4v-58.9h63.4v-3h-63.4v-59h63.4v-3h-63.4v-59h63.4v-3h-63.4v-58.8h63.4v-3h-63.4v-59h63.4v-3h-63.4v-59h63.4
			v-3h-63.4v-58.8h63.4v-3h-63.4V299h63.4v-3h-63.4v-59h63.4v-3h-63.4v-58.9h63.4v-3h-63.4v-59h63.4v-3h-63.4v-59h63.4v-3h-63.4V0
			h-3v48.2l-62.3,0V0h-3v48.2l-62,0V0h-3v48.2h-62.6V0h-3v48.2h-61V0h-3v48.2h-62.8V0h-3v48.2H775V0h-3v48.2h-62.5V0h-3v48.2h-62.6
			V0h-3v48.2h-62.4V0h-3v48.2h-61.9V0h-3v48.2h-62V0h-3v48.2h-62V0h-3v48.2h-62.3V0h-3v48.2H253V0h-3v48.2h-61.9V0h-3v48.2h-62.5V0
			h-3v48.2H57.3V0h-3v48.2H0v3H54.3z M1163.1,732.6v58.9l-62.3,0v-58.9L1163.1,732.6z M1097.8,732.5v58.9l-62,0v-58.9L1097.8,732.5z
			 M1032.8,732.6v58.9h-62.6v-58.9H1032.8z M967.2,732.6v58.9h-61v-58.9H967.2z M903.2,732.6v58.9h-62.8v-58.9H903.2z M837.5,732.6
			v58.9H775v-58.9H837.5z M772,732.6v58.9h-62.5v-58.9H772z M706.5,732.6v58.9h-62.6v-58.9H706.5z M640.9,732.6v58.9h-62.4v-58.9
			H640.9z M575.5,732.6v58.9h-61.9v-58.9H575.5z M510.6,732.6v58.9h-62v-58.9H510.6z M445.6,732.6v58.9h-62v-58.9H445.6z
			 M380.6,732.6v58.9h-62.3v-58.9H380.6z M315.2,732.6v58.9H253v-58.9H315.2z M250,732.6v58.9H188v-58.9H250z M185,732.6v58.9h-62.5
			v-58.9H185z M119.5,732.6v58.9H57.3v-58.9H119.5L119.5,732.6z M1163.1,670.6v59l-62.3,0v-59L1163.1,670.6z M1097.8,670.6v59l-62,0
			v-59L1097.8,670.6z M1032.8,670.6v59h-62.6v-59H1032.8z M967.2,670.6v59h-61v-59H967.2z M903.2,670.6v59h-62.8v-59H903.2z
			 M837.5,670.6v59H775v-59H837.5z M772,670.6v59h-62.5v-59H772z M706.5,670.6v59h-62.6v-59H706.5z M640.9,670.6v59h-62.4v-59H640.9
			z M575.5,670.6v59h-61.9v-59H575.5z M510.6,670.6v59h-62v-59H510.6z M445.6,670.6v59h-62v-59H445.6z M380.6,670.6v59h-62.3v-59
			H380.6z M315.2,670.6v59H253v-59H315.2z M250,670.6v59H188v-59H250z M185,670.6v59h-62.5v-59H185z M119.5,670.6v59H57.3v-59H119.5
			L119.5,670.6z M1163.1,608.6v59l-62.3,0v-59L1163.1,608.6z M1097.8,608.6v59l-62,0v-59L1097.8,608.6z M1032.8,608.6v59h-62.6v-59
			H1032.8z M967.2,608.6v59h-61v-59H967.2z M903.2,608.6v59h-62.8v-59H903.2z M837.5,608.6v59H775v-59H837.5z M772,608.6v59h-62.5
			v-59H772z M706.5,608.6v59h-62.6v-59H706.5z M640.9,608.6v59h-62.4v-59H640.9z M575.5,608.6v59h-61.9v-59H575.5z M510.6,608.6v59
			h-62v-59H510.6z M445.6,608.6v59h-62v-59H445.6z M380.6,608.6v59h-62.3v-59H380.6z M315.2,608.6v59H253v-59H315.2z M250,608.6v59
			H188v-59H250z M185,608.6v59h-62.5v-59H185z M119.5,608.6v59H57.3v-59H119.5L119.5,608.6z M1163.1,546.8v58.8l-62.3,0v-58.8
			L1163.1,546.8z M1097.8,546.8v58.8l-62,0v-58.8L1097.8,546.8z M1032.8,546.8v58.8h-62.6v-58.8H1032.8z M967.2,546.8v58.8h-61
			v-58.8H967.2z M903.2,546.8v58.8h-62.8v-58.8H903.2z M837.5,546.8v58.8H775v-58.8H837.5z M772,546.8v58.8h-62.5v-58.8H772z
			 M706.5,546.8v58.8h-62.6v-58.8H706.5z M640.9,546.8v58.8h-62.4v-58.8H640.9z M575.5,546.8v58.8h-61.9v-58.8H575.5z M510.6,546.8
			v58.8h-62v-58.8H510.6z M445.6,546.8v58.8h-62v-58.8H445.6z M380.6,546.8v58.8h-62.3v-58.8H380.6z M315.2,546.8v58.8H253v-58.8
			H315.2z M250,546.8v58.8H188v-58.8H250z M185,546.8v58.8h-62.5v-58.8H185z M119.5,546.8v58.8H57.3v-58.8H119.5L119.5,546.8z
			 M1163.1,484.9v59l-62.3,0v-59L1163.1,484.9L1163.1,484.9z M1097.8,484.9v59l-62,0v-59L1097.8,484.9L1097.8,484.9z M1032.8,484.9
			v59h-62.6v-59L1032.8,484.9L1032.8,484.9z M967.2,484.9v59h-61v-59L967.2,484.9L967.2,484.9z M903.2,484.9v59h-62.8v-59
			L903.2,484.9L903.2,484.9z M837.5,484.9v59H775v-59L837.5,484.9L837.5,484.9z M772,484.9v59h-62.5v-59L772,484.9L772,484.9z
			 M706.5,484.9v59h-62.6v-59L706.5,484.9L706.5,484.9z M640.9,484.9v59h-62.4v-59L640.9,484.9L640.9,484.9z M575.5,484.9v59h-61.9
			v-59L575.5,484.9L575.5,484.9z M510.6,484.9v59h-62v-59L510.6,484.9L510.6,484.9z M445.6,484.9v59h-62v-59L445.6,484.9
			L445.6,484.9z M380.6,484.9v59h-62.3v-59L380.6,484.9L380.6,484.9z M315.2,484.9v59H253v-59L315.2,484.9L315.2,484.9z M250,484.9
			v59H188v-59L250,484.9L250,484.9z M185,484.9v59h-62.5v-59L185,484.9L185,484.9z M119.5,484.9v59H57.3v-59L119.5,484.9
			L119.5,484.9z M1163.1,422.9v59l-62.3,0v-59L1163.1,422.9z M1097.8,422.8v59l-62,0v-59L1097.8,422.8z M1032.8,422.9v59h-62.6v-59
			H1032.8z M967.2,422.9v59h-61v-59H967.2z M903.2,422.9v59h-62.8v-59H903.2z M837.5,422.9v59H775v-59H837.5z M772,422.9v59h-62.5
			v-59H772z M706.5,422.9v59h-62.6v-59H706.5z M640.9,422.9v59h-62.4v-59H640.9z M575.5,422.9v59h-61.9v-59H575.5z M510.6,422.9v59
			h-62v-59H510.6z M445.6,422.9v59h-62v-59H445.6z M380.6,422.9v59h-62.3v-59H380.6z M315.2,422.9v59H253v-59H315.2z M250,422.9v59
			H188v-59H250z M185,422.9v59h-62.5v-59H185z M119.5,422.9v59H57.3v-59H119.5L119.5,422.9z M1163.1,361.1v58.8l-62.3,0V361
			L1163.1,361.1z M1097.8,361v58.8l-62,0v-58.8L1097.8,361L1097.8,361z M1032.8,361.1v58.8h-62.6v-58.8L1032.8,361.1L1032.8,361.1z
			 M967.2,361.1v58.8h-61v-58.8L967.2,361.1L967.2,361.1z M903.2,361.1v58.8h-62.8v-58.8L903.2,361.1L903.2,361.1z M837.5,361.1
			v58.8H775v-58.8L837.5,361.1L837.5,361.1z M772,361.1v58.8h-62.5v-58.8L772,361.1L772,361.1z M706.5,361.1v58.8h-62.6v-58.8
			L706.5,361.1L706.5,361.1z M640.9,361.1v58.8h-62.4v-58.8L640.9,361.1L640.9,361.1z M575.5,361.1v58.8h-61.9v-58.8L575.5,361.1
			L575.5,361.1z M510.6,361.1v58.8h-62v-58.8L510.6,361.1L510.6,361.1z M445.6,361.1v58.8h-62v-58.8L445.6,361.1L445.6,361.1z
			 M380.6,361.1v58.8h-62.3v-58.8L380.6,361.1L380.6,361.1z M315.2,361.1v58.8H253v-58.8L315.2,361.1L315.2,361.1z M250,361.1v58.8
			H188v-58.8L250,361.1L250,361.1z M185,361.1v58.8h-62.5v-58.8L185,361.1L185,361.1z M119.5,361.1v58.8H57.3v-58.8L119.5,361.1
			L119.5,361.1z M1163.1,299v59.1l-62.3,0V299L1163.1,299z M1097.8,299v59.1l-62,0V299L1097.8,299z M1032.8,299v59.1h-62.6V299
			H1032.8z M967.2,299v59.1h-61V299H967.2z M903.2,299v59.1h-62.8V299H903.2z M837.5,299v59.1H775V299H837.5z M772,299v59.1h-62.5
			V299H772z M706.5,299v59.1h-62.6V299H706.5z M640.9,299v59.1h-62.4V299H640.9z M575.5,299v59.1h-61.9V299H575.5z M510.6,299v59.1
			h-62V299H510.6z M445.6,299v59.1h-62V299H445.6z M380.6,299v59.1h-62.3V299H380.6z M315.2,299v59.1H253V299H315.2z M250,299v59.1
			H188V299H250z M185,299v59.1h-62.5V299H185z M119.5,299v59.1H57.3V299H119.5L119.5,299z M1163.1,237v59l-62.3,0v-59L1163.1,237
			L1163.1,237z M1097.8,237v59l-62,0v-59L1097.8,237L1097.8,237z M1032.8,237v59h-62.6v-59H1032.8z M967.2,237v59h-61v-59H967.2z
			 M903.2,237v59h-62.8v-59H903.2z M837.5,237v59H775v-59H837.5z M772,237v59h-62.5v-59H772z M706.5,237v59h-62.6v-59H706.5z
			 M640.9,237v59h-62.4v-59H640.9z M575.5,237v59h-61.9v-59H575.5z M510.6,237v59h-62v-59H510.6z M445.6,237v59h-62v-59H445.6z
			 M380.6,237v59h-62.3v-59H380.6z M315.2,237v59H253v-59H315.2z M250,237v59H188v-59H250z M185,237v59h-62.5v-59H185z M119.5,237
			v59H57.3v-59H119.5L119.5,237z M1163.1,175.2V234l-62.3,0v-58.9L1163.1,175.2z M1097.8,175.1V234l-62,0v-58.9L1097.8,175.1z
			 M1032.8,175.2V234h-62.6v-58.9H1032.8z M967.2,175.2V234h-61v-58.9H967.2z M903.2,175.2V234h-62.8v-58.9H903.2z M837.5,175.2V234
			H775v-58.9H837.5z M772,175.2V234h-62.5v-58.9H772z M706.5,175.2V234h-62.6v-58.9H706.5z M640.9,175.2V234h-62.4v-58.9H640.9z
			 M575.5,175.2V234h-61.9v-58.9H575.5z M510.6,175.2V234h-62v-58.9H510.6z M445.6,175.2V234h-62v-58.9H445.6z M380.6,175.2V234
			h-62.3v-58.9H380.6z M315.2,175.2V234H253v-58.9H315.2z M250,175.2V234H188v-58.9H250z M185,175.2V234h-62.5v-58.9H185z
			 M119.5,175.2V234H57.3v-58.9H119.5L119.5,175.2z M1163.1,113.2v59l-62.3,0v-59L1163.1,113.2z M1097.8,113.2v59l-62,0v-59
			L1097.8,113.2z M1032.8,113.2v59h-62.6v-59H1032.8z M967.2,113.2v59h-61v-59H967.2z M903.2,113.2v59h-62.8v-59H903.2z
			 M837.5,113.2v59H775v-59H837.5z M772,113.2v59h-62.5v-59H772z M706.5,113.2v59h-62.6v-59H706.5z M640.9,113.2v59h-62.4v-59H640.9
			z M575.5,113.2v59h-61.9v-59H575.5z M510.6,113.2v59h-62v-59H510.6z M445.6,113.2v59h-62v-59H445.6z M380.6,113.2v59h-62.3v-59
			H380.6z M315.2,113.2v59H253v-59H315.2z M250,113.2v59H188v-59H250z M185,113.2v59h-62.5v-59H185z M119.5,113.2v59H57.3v-59H119.5
			L119.5,113.2z M1163.1,51.2v59l-62.3,0v-59L1163.1,51.2z M1097.8,51.2v59l-62,0v-59L1097.8,51.2z M1032.8,51.2v59h-62.6v-59
			H1032.8z M967.2,51.2v59h-61v-59H967.2z M903.2,51.2v59h-62.8v-59H903.2z M837.5,51.2v59H775v-59H837.5z M772,51.2v59h-62.5v-59
			H772z M706.5,51.2v59h-62.6v-59H706.5z M640.9,51.2v59h-62.4v-59H640.9z M575.5,51.2v59h-61.9v-59H575.5z M510.6,51.2v59h-62v-59
			H510.6z M445.6,51.2v59h-62v-59H445.6z M380.6,51.2v59h-62.3v-59H380.6z M315.2,51.2v59H253v-59H315.2z M250,51.2v59H188v-59H250z
			 M185,51.2v59h-62.5v-59H185z M119.5,51.2v59H57.3v-59H119.5L119.5,51.2z"/>
	</g>
</g>
</svg>
