<?xml version="1.0" encoding="UTF-8"?><svg id="a" xmlns="http://www.w3.org/2000/svg" viewBox="0 0 73.29 95.61"><defs><style>.b{fill:#263232;}</style></defs><path class="b" d="M24.19,77.99c-.54,3.46-1.9,6.99-1.62,10.53,.48,6.29,7.42,8.96,12.48,5.7,4.72-3.03,5.36-9.35,4.66-14.43-1.3-9.53-8.34-17.21-8.88-26.9,13.86-7.6,28.35-21.79,23.44-38.83,0-.15-.06-.28-.15-.39-.16-.22-.42-.3-.67-.26-.11,.01-.22,.05-.31,.12-.09,.06-.17,.14-.22,.24-6.94,10.4-13.88,20.79-20.82,31.19-.76,1.14-1.6,2.27-2.36,3.43,.51-3.9,1.02-7.8,1.52-11.69,.55,.14,1.1,.29,1.65,.42,.13,.03,.25,.03,.35,0,.23-.04,.43-.19,.51-.48,2.05-8.12,3.44-16.33,4-24.69,.02-.32-.15-.52-.37-.61-.08-.12-.19-.23-.36-.29-.82-.31-1.63-.64-2.44-.97,.22-1.74,.49-3.49,.62-5.24,0-.08,0-.16-.03-.23,.31-.46-.06-1.28-.75-1.08-.76,.21-1.41,.88-1.95,1.42-.96,.95-1.8,2.02-2.59,3.11-3.07-1.36-6.12-2.74-9.25-3.94-.07-.05-.17-.09-.28-.11-.13-.05-.25-.06-.35-.04-3.42-.33-5.02,2.57-5.61,5.67-.57,3.01-.89,6.09-1.33,9.12-.34,2.32-.88,4.73-.81,7.09,.11,4.06,2.53,5.97,6.18,7.12,1.55,.49,3.11,.97,4.66,1.44,.72,5.46,2.49,10.56,5.05,15.38-.07,.49-.13,.98-.2,1.47-3.79,6-9.16,11.9-14.84,16.01-4.34,3.13-11.18,5.39-12.78,11.12-2.59,9.28,10.33,15.5,16.08,7.78,1.99-2.67,1.97-5.82,2.57-8.96,.78-4.09,2.85-7.89,4.5-11.68,1.3-2.99,2.47-6.21,3.8-9.32-.42,3.1-.83,6.21-1.27,9.31-.58,4.16-1.17,8.33-1.82,12.48Zm13.68,10.14c-1.55,4.8-7.6,8.63-12.02,4.47-3.76-3.53-1.07-9.55-.37-13.82,.7-4.29,1.29-8.6,1.89-12.9,.15-1.1,.3-2.2,.45-3.3,1.37,.04,2.73,.08,4.1,.12,.34,.83,.7,1.65,1.07,2.46l-3.13-.05c-.34,0-.34,.52,0,.52,1.12,.02,2.24,.03,3.37,.05,1.82,4,3.81,7.96,4.76,12.32,.71,3.26,.92,6.9-.12,10.11Zm-7.46-29.66c.18,.63,.38,1.24,.59,1.86-.97,.09-1.95,.18-2.92,.27,.12-.84,.23-1.68,.34-2.52,.02,.01,.04,.02,.07,.03,.64,.12,1.27,.24,1.91,.36Zm.78,2.36c.16,.45,.34,.9,.51,1.34-1.27-.04-2.54-.08-3.82-.12,.04-.31,.08-.62,.13-.94,1.06-.1,2.12-.19,3.18-.29Zm-.93-2.93c-.54-.1-1.08-.2-1.61-.31-.06-.01-.11,0-.15,.02,.17-1.25,.34-2.5,.51-3.76,.02,0,.03,0,.04-.02,.14-.07,.29-.15,.43-.23,.13,1.48,.4,2.9,.77,4.29Zm-1.01-5.85c.03-.05,.06-.11,.08-.16,.02,.04,.05,.08,.07,.12v.07c-.06,.03-.11,.06-.17,.09l.02-.11Zm1.41-.66c-.09-.16-.19-.32-.28-.48,2.33-.36,3.59-2.67,4.23-5.05,.91-3.37,1.32-5.97,5.11-7.3,1.43-.5,2.95-.64,4.09-1.75,1.05-1.03,1.35-2.42,1.61-3.81,.56-3,1.22-4.87,3.27-7.2,2.33-2.64,5.12-5.4,3.95-9.13,.2-.31,.41-.61,.61-.92,3.57,15.59-9.81,28.47-22.61,35.63ZM52.27,17.25c.98,4.22-3.37,6.99-5.53,10.11-1.84,2.66-1.01,6.84-3.29,9.09-1.56,1.54-3.82,1.54-5.67,2.42,1.6-2.36,3.21-4.73,4.79-7.1,3.23-4.84,6.46-9.68,9.7-14.52Zm-17.54,26.15c-.82,3.09-1.43,6.87-4.58,7.06,.14-.24,.28-.48,.42-.72,1.35-2.13,2.75-4.24,4.15-6.34Zm-5.75,.03c-1.3-2.29-1.5-4.96-.55-7.48,.49,.14,.98,.27,1.48,.4-.3,2.36-.61,4.72-.92,7.08ZM33.31,6.09c.13-.13,.28-.29,.43-.45-.13,1.29-.3,2.59-.47,3.88-.69-.29-1.38-.59-2.07-.89,.65-.89,1.34-1.74,2.11-2.53ZM13.98,27.98c-1.23-3.23,.3-7.92,.78-11.21,.44-3.01,.43-12.18,5.23-11.43,4.51,1.72,8.86,3.81,13.3,5.68,.1,.1,.24,.15,.39,.16,.88,.37,1.77,.73,2.67,1.07-.55,7.9-1.86,15.66-3.76,23.34-2.68-.67-5.34-1.42-7.98-2.23-3.32-1.03-9.22-1.69-10.62-5.39Zm10.59,6.86c1.12,.33,2.24,.66,3.36,.97-1.07,2.84-.72,5.93,.95,8.45-.13,1.02-.27,2.05-.4,3.07-1.91-3.95-3.28-8.11-3.91-12.5Zm-3.53,32.83c-1.18,2.7-2.52,5.41-3.21,8.28-.88,3.67-.49,7.52-3.43,10.39-4.75,4.62-13.01,.71-12.97-5.81,.04-7.01,10.09-9.93,14.57-13.81,3.28-2.84,6.47-5.99,9.27-9.41-1.45,3.46-2.78,7.01-4.23,10.36Z"/><path class="b" d="M4.15,80.19c-.2,2.22,1.46,4.44,3.66,4.82,2.19,.38,4.54-1.15,5.07-3.31,.57-2.33-.98-4.63-3.16-5.35-.1-.03-.18,0-.24,.06-.04-.08-.11-.14-.21-.15-2.41-.27-4.9,1.42-5.12,3.94Zm5.29-3.46c.03,.05,.07,.1,.15,.12,1.91,.64,3.29,2.67,2.8,4.71-.49,2.03-2.83,3.42-4.85,2.85-1.94-.54-3.26-2.75-2.77-4.72,.5-1.99,2.55-3.14,4.51-2.92,.07,0,.13-.01,.17-.05Z"/><path class="b" d="M27.92,83.74c-.15,1.61-.86,4.33,.6,5.58,1.35,1.16,3.34,.15,4.49-.77,3.44-2.73,2.7-7.58,2.13-11.44-.26-1.78-1.37-6.1-4.06-4.39-2.84,1.81-2.87,8.08-3.17,11.01Zm6.27-8.64c.28,.62,.33,1.42,.43,2.08,.29,2,.59,4.27,.43,6.29-.14,1.81-1.18,4.51-3.1,5.19-4.74,1.68-3.68-3.08-3.51-4.93,.23-2.29,.51-4.59,1.11-6.82,.21-.77,.72-3.18,1.55-3.5,1.32-.52,2.63,.68,3.09,1.69Z"/><path class="b" d="M60.66,29.92c-4.25,5.65-9.12,10.79-13.37,16.44-.23,.3-.14,.6,.07,.79,.01,.02,.02,.04,.04,.05,2.43,2.83,4.63,6.26,7.36,8.78,1.49,1.38,3.82,1.96,5.8,1.64,3.28-.53,4.99-3.77,6.92-6.12,1.77-2.15,5.39-4.97,5.78-7.91,.21-1.6-.7-3.12-1.59-4.37-2.65-3.74-6.49-6.49-9.91-9.45-.26-.23-.57-.22-.81-.09-.11,.05-.21,.12-.29,.23Zm7.64,7.51c1.26,1.31,3.03,2.99,3.46,4.84,.66,2.86-3.56,6.2-5.26,8.25-2.22,2.68-4.22,6.57-8.34,5.64-2.13-.48-3.09-1.99-4.35-3.53-1.64-2-3.33-3.98-5.01-5.94,4.01-5.28,8.55-10.15,12.58-15.42,2.35,2.01,4.77,3.93,6.93,6.16Z"/><path class="b" d="M32.84,17.94c-.02,.27,.42,.37,.51,.07,.35-1.09,.7-2.17,1.05-3.26,.07-.22-.14-.35-.32-.31-.01,0-.02-.02-.04-.03-4.4-2-8.81-4.01-13.21-6.01-.02,0-.04-.01-.06-.01-.01,0-.02,0-.03,0,0,0-.02,0-.02,0-.11-.01-.23,.04-.27,.18,0,.02,0,.03,0,.05h0c-.24,1.12,0,2.27-.27,3.38-.02,.11,.01,.24,.12,.3,4.06,2.01,8.3,3.63,12.36,5.64,.06,.03,.13,.03,.18,.02Zm-8.53-4.35c-.87-.39-3.15-.97-3.54-1.87-.2-.46,0-1.98,.13-2.72,4.3,1.95,8.59,3.91,12.89,5.86,.01,0,.02,0,.03,0-.28,.88-.57,1.76-.85,2.64-.01-.01-.03-.03-.04-.03-2.82-1.4-5.73-2.6-8.61-3.88Z"/><path class="b" d="M26.75,26.11v-.04s0-.03,.01-.05c.39-2.5,.05-5.03,.45-7.53,0,0,0-.02,0-.02,.03-.1,0-.21-.12-.27-2.71-1.3-5.42-2.59-8.13-3.89-.03-.01-.06-.02-.09-.03-.08-.02-.16,0-.22,.06h0s-.03,.03-.04,.05c-.01,.01-.02,.03-.03,.05-.02,.03-.03,.06-.03,.09h0c-.27,2.76-.74,5.49-1.02,8.25-.03,.34,.49,.33,.52,0,.26-2.63,.69-5.23,.97-7.86,2.55,1.22,5.1,2.43,7.64,3.66-.34,2.36-.07,4.74-.4,7.09-2.67-1.12-5.64-1.33-8.28-2.53-.3-.14-.57,.31-.26,.45,2.76,1.25,5.87,1.42,8.62,2.67,.03,.01,.06,.02,.09,.02h.03c.12,.03,.24-.02,.27-.18Z"/><path class="b" d="M61.47,35.14c2.4,2.29,4.79,4.58,7.19,6.87,.24,.23,.61-.14,.37-.37-2.4-2.29-4.79-4.58-7.19-6.87-.24-.23-.61,.14-.37,.37Z"/><path class="b" d="M60.74,38.19c1.84,1.72,3.67,3.44,5.51,5.17,.25,.23,.62-.14,.37-.37-1.84-1.72-3.67-3.44-5.51-5.17-.25-.23-.62,.14-.37,.37Z"/><path class="b" d="M53.1,47.42c1.12,1.27,2.24,2.55,3.37,3.82,.22,.25,.59-.12,.37-.37-1.12-1.27-2.24-2.55-3.37-3.82-.22-.25-.59,.12-.37,.37Z"/><path class="b" d="M46.98,6.85c-.2-2.06-.4-4.12-.59-6.18-.09-.89-1.48-.9-1.4,0,.2,2.06,.4,4.12,.59,6.18,.09,.89,1.48,.9,1.4,0Z"/><path class="b" d="M51.16,1.58c-.19,.97-.37,1.95-.56,2.92-.17,.88,1.18,1.25,1.35,.37l.56-2.92c.17-.88-1.18-1.25-1.35-.37Z"/><path class="b" d="M54.44,7.4c-.58,.68,.4,1.67,.99,.99,.93-1.08,1.87-2.16,2.8-3.24,.58-.68-.4-1.67-.99-.99-.93,1.08-1.87,2.16-2.8,3.24Z"/></svg>