<?xml version="1.0" encoding="UTF-8"?><svg id="Layer_1" xmlns="http://www.w3.org/2000/svg" xmlns:xlink="http://www.w3.org/1999/xlink" viewBox="0 0 125.77 125.77"><defs><style>.cls-1{mask:url(#mask);}.cls-2{fill:#fff;}.cls-3{fill:#ff7051;}.cls-4,.cls-5{fill:#253232;}.cls-6{fill:#56c090;}.cls-5{font-family:FreightSansProBlack-Regular, 'FreightSans Pro';font-size:22.16px;}</style><mask id="mask" x="4.95" y="4.95" width="115.87" height="115.87" maskUnits="userSpaceOnUse"><g id="path-2-inside-1_12_161"><path class="cls-2" d="M85.48,110.68l-16.68-15.2-10.25,20.09-6.82-21.51-18.93,12.29,4.83-22.03-22.53,1.16,15.2-16.68-20.09-10.25,21.51-6.82-12.29-18.93,22.03,4.83-1.16-22.53,16.68,15.2,10.25-20.09,6.82,21.51,18.93-12.29-4.83,22.03,22.53-1.16-15.2,16.68,20.09,10.25-21.51,6.82,12.29,18.93-22.03-4.83,1.16,22.53Zm-16.89-16.35l16.09,14.66-1.12-21.74,21.25,4.66-11.86-18.26,20.75-6.58-19.38-9.89,14.67-16.09-21.74,1.12,4.66-21.25-18.26,11.86-6.58-20.75-9.89,19.38-16.09-14.67,1.12,21.74-21.25-4.66,11.86,18.26-20.75,6.58,19.38,9.89-14.67,16.09,21.74-1.12-4.66,21.25,18.26-11.86,6.58,20.75,9.89-19.38Z"/></g></mask></defs><path class="cls-6" d="M119.93,35.92l-18.13,19.9,23.98,12.24-25.67,8.14,14.67,22.59-26.3-5.76,1.38,26.89-19.9-18.13-12.24,23.98-8.14-25.67-22.59,14.67,5.76-26.3-26.89,1.38,18.14-19.9L0,57.7l25.67-8.14L11,26.97l26.3,5.76-1.38-26.89,19.9,18.14L68.07,0l8.14,25.67,22.59-14.67-5.76,26.3,26.89-1.38Z"/><path class="cls-3" d="M85.48,110.68l-16.68-15.2-10.25,20.09-6.82-21.51-18.93,12.29,4.83-22.03-22.53,1.16,15.2-16.68-20.09-10.25,21.51-6.82-12.29-18.93,22.03,4.83-1.16-22.53,16.68,15.2,10.25-20.09,6.82,21.51,18.93-12.29-4.83,22.03,22.53-1.16-15.2,16.68,20.09,10.25-21.51,6.82,12.29,18.93-22.03-4.83,1.16,22.53Zm-16.89-16.35l16.09,14.66-1.12-21.74,21.25,4.66-11.86-18.26,20.75-6.58-19.38-9.89,14.67-16.09-21.74,1.12,4.66-21.25-18.26,11.86-6.58-20.75-9.89,19.38-16.09-14.67,1.12,21.74-21.25-4.66,11.86,18.26-20.75,6.58,19.38,9.89-14.67,16.09,21.74-1.12-4.66,21.25,18.26-11.86,6.58,20.75,9.89-19.38Z"/><g class="cls-1"><path class="cls-4" d="M68.8,95.49l1.35-1.48-1.94-1.77-1.19,2.33,1.78,.91Zm-10.25,20.09l-1.91,.6,1.47,4.64,2.21-4.34-1.78-.91Zm-6.82-21.51l1.91-.61-.79-2.5-2.2,1.43,1.09,1.68Zm-18.93,12.29l-1.95-.43-1.04,4.76,4.09-2.65-1.09-1.68Zm4.83-22.03l1.95,.43,.56-2.56-2.62,.13,.1,2Zm-22.53,1.16l-1.48-1.35-3.28,3.59,4.86-.25-.1-2Zm15.2-16.68l1.48,1.35,1.77-1.94-2.33-1.19-.91,1.78Zm-20.09-10.25l-.6-1.91-4.64,1.47,4.34,2.21,.91-1.78Zm21.51-6.82l.6,1.91,2.5-.79-1.43-2.2-1.68,1.09Zm-12.29-18.93l.43-1.95-4.76-1.04,2.65,4.09,1.68-1.09Zm22.03,4.83l-.43,1.95,2.56,.56-.13-2.62-2,.1Zm-1.16-22.53l1.35-1.48-3.59-3.28,.25,4.86,2-.1Zm16.68,15.2l-1.35,1.48,1.94,1.77,1.19-2.33-1.78-.91Zm10.25-20.09l1.91-.6-1.47-4.64-2.21,4.34,1.78,.91Zm6.82,21.51l-1.91,.6,.79,2.5,2.2-1.43-1.09-1.68Zm18.93-12.29l1.95,.43,1.04-4.76-4.08,2.65,1.09,1.68Zm-4.83,22.03l-1.95-.43-.56,2.56,2.62-.13-.1-2Zm22.53-1.16l1.48,1.35,3.27-3.59-4.86,.25,.1,2Zm-15.2,16.68l-1.48-1.35-1.77,1.94,2.33,1.19,.91-1.78Zm20.09,10.25l.6,1.91,4.64-1.47-4.34-2.21-.91,1.78Zm-21.51,6.82l-.61-1.91-2.5,.79,1.43,2.2,1.68-1.09Zm12.29,18.93l-.43,1.95,4.76,1.04-2.65-4.08-1.68,1.09Zm-22.03-4.83l.43-1.95-2.56-.56,.13,2.62,2-.1Zm.36,20.85l-1.35,1.48,3.59,3.27-.25-4.86-2,.1Zm-1.12-21.74l.43-1.95-2.56-.56,.13,2.62,2-.1Zm21.25,4.66l-.43,1.95,4.76,1.04-2.65-4.09-1.68,1.09Zm-11.86-18.26l-.6-1.91-2.5,.79,1.43,2.2,1.68-1.09Zm20.75-6.58l.61,1.91,4.64-1.47-4.34-2.22-.91,1.78Zm-19.38-9.89l-1.48-1.35-1.77,1.94,2.33,1.19,.91-1.78Zm14.67-16.09l1.48,1.35,3.28-3.59-4.86,.25,.1,2Zm-21.74,1.12l-1.95-.43-.56,2.56,2.62-.13-.1-2Zm4.66-21.25l1.95,.43,1.04-4.76-4.09,2.65,1.09,1.68Zm-18.26,11.86l-1.91,.6,.79,2.5,2.2-1.43-1.09-1.68Zm-6.58-20.75l1.91-.6-1.47-4.64-2.21,4.34,1.78,.91Zm-9.89,19.38l-1.35,1.48,1.94,1.77,1.19-2.33-1.78-.91Zm-16.09-14.67l1.35-1.48-3.59-3.28,.25,4.86,2-.1Zm1.12,21.74l-.43,1.95,2.56,.56-.13-2.62-2,.1Zm-21.25-4.66l.43-1.95-4.76-1.04,2.65,4.09,1.68-1.09Zm11.86,18.26l.6,1.91,2.5-.79-1.43-2.2-1.68,1.09Zm-20.75,6.58l-.6-1.91-4.64,1.47,4.34,2.22,.91-1.78Zm19.38,9.89l1.48,1.35,1.77-1.94-2.33-1.19-.91,1.78Zm-14.67,16.09l-1.48-1.35-3.28,3.59,4.86-.25-.1-2Zm21.74-1.12l1.95,.43,.56-2.56-2.62,.13,.1,2Zm-4.66,21.25l-1.95-.43-1.04,4.76,4.09-2.65-1.09-1.68Zm18.26-11.86l1.91-.6-.79-2.5-2.2,1.43,1.09,1.68Zm6.58,20.75l-1.91,.6,1.47,4.64,2.22-4.34-1.78-.91Zm28.13-4.51l-16.68-15.2-2.69,2.96,16.68,15.2,2.69-2.96Zm-19.81-14.63l-10.25,20.09,3.56,1.82,10.25-20.09-3.56-1.82Zm-6.57,20.39l-6.82-21.51-3.81,1.21,6.82,21.51,3.81-1.21Zm-9.82-22.58l-18.93,12.29,2.18,3.35,18.93-12.29-2.18-3.35Zm-15.89,14.39l4.83-22.03-3.91-.86-4.83,22.03,3.91,.86Zm2.77-24.46l-22.53,1.16,.21,3.99,22.53-1.16-.21-4Zm-20.95,4.5l15.2-16.68-2.96-2.69-15.2,16.68,2.96,2.69Zm14.63-19.81l-20.09-10.25-1.82,3.56,20.09,10.25,1.82-3.56Zm-20.39-6.57l21.51-6.82-1.21-3.81-21.51,6.82,1.21,3.81Zm22.58-9.82l-12.29-18.93-3.35,2.18,12.29,18.93,3.35-2.18Zm-14.4-15.89l22.03,4.83,.86-3.91-22.03-4.83-.86,3.91Zm24.45,2.77l-1.16-22.53-3.99,.21,1.16,22.53,3.99-.21Zm-4.5-20.95l16.68,15.2,2.69-2.96-16.68-15.2-2.69,2.96Zm19.81,14.63l10.25-20.09-3.56-1.82-10.25,20.09,3.56,1.82Zm6.57-20.39l6.82,21.51,3.81-1.21-6.82-21.51-3.81,1.21Zm9.82,22.58l18.93-12.29-2.18-3.35-18.93,12.29,2.18,3.35Zm15.88-14.39l-4.83,22.03,3.91,.86,4.83-22.03-3.91-.86Zm-2.77,24.45l22.53-1.16-.2-3.99-22.54,1.16,.2,3.99Zm20.95-4.5l-15.2,16.68,2.96,2.69,15.2-16.68-2.96-2.69Zm-14.63,19.81l20.09,10.25,1.82-3.56-20.09-10.25-1.82,3.56Zm20.39,6.57l-21.51,6.82,1.21,3.81,21.51-6.82-1.21-3.81Zm-22.58,9.82l12.29,18.93,3.35-2.18-12.29-18.93-3.35,2.18Zm14.39,15.88l-22.03-4.83-.86,3.91,22.03,4.83,.86-3.91Zm-24.46-2.77l1.16,22.53,3.99-.2-1.16-22.54-4,.2Zm-15.08,7.56l16.09,14.67,2.69-2.96-16.09-14.67-2.69,2.96Zm19.44,13.09l-1.12-21.74-3.99,.2,1.12,21.74,3.99-.2Zm-3.54-19.69l21.25,4.66,.86-3.91-21.25-4.66-.86,3.91Zm23.36,1.61l-11.86-18.26-3.35,2.18,11.86,18.26,3.36-2.18Zm-12.93-15.26l20.75-6.58-1.21-3.81-20.75,6.58,1.21,3.81Zm21.06-10.27l-19.38-9.89-1.82,3.56,19.38,9.89,1.82-3.56Zm-18.81-6.76l14.67-16.09-2.96-2.69-14.67,16.09,2.96,2.69Zm13.08-19.44l-21.74,1.12,.2,3.99,21.74-1.12-.21-3.99Zm-19.69,3.54l4.66-21.25-3.91-.86-4.66,21.25,3.91,.86Zm1.61-23.36l-18.26,11.86,2.18,3.35,18.26-11.86-2.18-3.35Zm-15.26,12.93l-6.58-20.75-3.81,1.21,6.58,20.75,3.81-1.21Zm-10.27-21.06l-9.89,19.38,3.56,1.82,9.89-19.38-3.56-1.82Zm-6.76,18.81l-16.09-14.67-2.69,2.96,16.09,14.67,2.69-2.96Zm-19.44-13.08l1.12,21.74,3.99-.21-1.12-21.74-3.99,.21Zm3.54,19.69l-21.25-4.66-.86,3.91,21.25,4.66,.86-3.91Zm-23.36-1.61l11.86,18.26,3.35-2.18-11.86-18.26-3.35,2.18Zm12.93,15.27l-20.75,6.58,1.21,3.81,20.75-6.58-1.21-3.81Zm-21.06,10.27l19.38,9.89,1.82-3.56-19.38-9.89-1.82,3.56Zm18.81,6.76l-14.67,16.09,2.96,2.69,14.67-16.09-2.96-2.69Zm-13.08,19.44l21.74-1.12-.21-3.99-21.74,1.12,.21,3.99Zm19.69-3.54l-4.66,21.25,3.91,.86,4.66-21.25-3.91-.86Zm-1.61,23.36l18.26-11.86-2.18-3.35-18.26,11.86,2.18,3.36Zm15.27-12.93l6.58,20.75,3.81-1.21-6.58-20.75-3.81,1.21Zm10.27,21.06l9.89-19.38-3.56-1.82-9.89,19.38,3.56,1.82Z"/></g><path class="cls-4" d="M78.37,40.41c-3.12,2.14-3.35,2.8-2.3,6.43-2.14-3.12-2.8-3.35-6.43-2.3,3.12-2.14,3.35-2.8,2.3-6.43,2.14,3.12,2.8,3.35,6.43,2.3Z"/><path class="cls-4" d="M55.77,80.28c-2.51,1.73-2.7,2.25-1.85,5.18-1.73-2.51-2.25-2.7-5.18-1.85,2.51-1.73,2.7-2.25,1.85-5.18,1.73,2.51,2.25,2.7,5.18,1.85Z"/><path class="cls-4" d="M50.85,87.36c-.95,.65-1.02,.85-.7,1.96-.65-.95-.85-1.02-1.96-.7,.95-.65,1.02-.85,.7-1.96,.65,.95,.85,1.02,1.96,.7Z"/><path class="cls-4" d="M60.55,85.57c-1.52,1.04-1.63,1.36-1.12,3.14-1.05-1.52-1.36-1.63-3.14-1.12,1.52-1.05,1.63-1.36,1.12-3.14,1.05,1.52,1.36,1.63,3.14,1.12Z"/><path class="cls-4" d="M69.47,36.34c-1.64,1.12-1.76,1.47-1.21,3.37-1.12-1.64-1.47-1.76-3.37-1.21,1.64-1.12,1.76-1.47,1.21-3.37,1.12,1.64,1.47,1.76,3.37,1.21Z"/><path class="cls-4" d="M76.24,35.22c-.72,.5-.78,.65-.53,1.49-.5-.72-.65-.78-1.49-.53,.72-.5,.78-.65,.53-1.49,.5,.72,.65,.78,1.49,.53Z"/><text class="cls-5" transform="translate(39.57 78.42) rotate(-17.31)"><tspan x="0" y="0">FREE</tspan></text></svg>