<svg width="107" height="109" viewBox="0 0 107 109" fill="none" xmlns="http://www.w3.org/2000/svg">
<path d="M37.2753 22.2955L37.2752 22.2949C37.2576 21.8155 37.0517 21.429 36.7128 21.1878C36.3886 20.9571 35.9916 20.8932 35.6315 20.9407C34.9193 21.0347 34.1562 21.6084 34.1712 22.5947L34.1712 22.5947L34.1713 22.5992C34.6021 40.4697 30.2457 58.1299 21.5534 73.7509L21.5533 73.7509L21.5491 73.7587C21.3308 74.168 21.3136 74.5926 21.4794 74.9615C21.6378 75.314 21.9383 75.5616 22.2613 75.6982C22.8987 75.9678 23.8163 75.8671 24.2884 75.0423L24.2888 75.0417C33.436 59.0075 37.9329 40.7426 37.2753 22.2955Z" fill="#56C090" stroke="#56C090"/>
<path d="M45.6399 70.972L45.6393 70.9726C44.9005 71.6609 44.9971 72.6342 45.4362 73.2398C45.6578 73.5454 45.9892 73.795 46.3932 73.8743C46.812 73.9565 47.2492 73.8434 47.6326 73.5273L47.6327 73.5274L47.6429 73.5185C60.5551 62.2728 77.0608 56.0053 94.1873 55.8451L94.1913 55.845C94.7604 55.8351 95.2128 55.6007 95.4931 55.2079C95.7617 54.8316 95.8338 54.3646 95.775 53.9378C95.6591 53.0966 94.9854 52.1907 93.8363 52.1927C75.9656 52.0988 58.7313 58.814 45.6399 70.972Z" fill="#56C090" stroke="#56C090"/>
</svg>
