<?xml version="1.0" encoding="utf-8"?>
<!-- Generator: Adobe Illustrator 26.1.0, SVG Export Plug-In . SVG Version: 6.00 Build 0)  -->
<svg version="1.1" id="Layer_1" xmlns="http://www.w3.org/2000/svg" xmlns:xlink="http://www.w3.org/1999/xlink" x="0px" y="0px"
	 viewBox="0 0 89.6 134.1" style="enable-background:new 0 0 89.6 134.1;" xml:space="preserve">
<style type="text/css">
	.st0{fill:#263232;}
</style>
<g>
	<path class="st0" d="M25.1,112c-0.4,0.3-0.7,0.7-1.1,1c-0.4,0.3,0.2,0.9,0.5,0.5c0.3-0.3,0.6-0.5,0.9-0.8c0.2,0.4,0.4,0.8,0.7,1.1
		c0.5,0.6,1.2,1.2,2,1.5c-0.3,0.4-0.6,0.8-0.9,1.2c-0.3,0.4,0.2,0.9,0.5,0.5c0.4-0.5,0.8-1,1.2-1.5c0.9,0.2,1.9,0.1,2.7-0.3
		c1.9-1,2.5-3.3,1.9-5.3c0,0,0-0.1,0-0.1c0.9-1.2,1.9-2.3,2.8-3.5c0.2,0.6,0.3,1.3,0.4,1.9c0.1,0.5,0.8,0.3,0.7-0.2
		c-0.1-0.8-0.3-1.6-0.6-2.4c0.5-0.7,1.1-1.3,1.6-2c0.3-0.4-0.2-0.9-0.5-0.5c-0.5,0.6-0.9,1.2-1.4,1.7c-0.3-0.7-0.7-1.3-1.3-1.8
		c0.5-0.6,1.1-1.1,1.6-1.7c0.3-0.4-0.2-0.9-0.5-0.5c-0.5,0.6-1.1,1.2-1.7,1.8c-0.2-0.1-0.3-0.2-0.5-0.3c-1.3-0.6-3.1-0.3-3.9,1
		c-0.7,1.2-0.3,2.3,0.4,3.3c-1.6,1.6-3.3,3.2-4.9,4.7c-0.3-1.3-0.1-2.7,0.2-4.1c0.1-0.5-0.6-0.7-0.7-0.2
		C24.8,108.7,24.6,110.4,25.1,112z M32.7,110.6c0.2,1.3,0.1,2.6-0.9,3.4c-0.8,0.6-1.6,0.9-2.5,0.8C30.5,113.4,31.6,112,32.7,110.6z
		 M34.6,103.7c0.5,0.3,0.8,0.7,1.1,1.1c0.1,0.2,0.2,0.4,0.3,0.7c-1,1.2-1.9,2.4-2.9,3.6c-0.4-0.8-1.1-1.5-1.5-2.2
		C32.6,105.8,33.6,104.8,34.6,103.7z M33.9,103.3c-0.9,0.9-1.8,1.9-2.7,2.8C29.8,102.9,32,102.5,33.9,103.3z M31.1,107.3
		c0.5,0.6,0.9,1.2,1.2,1.9c0.1,0.2,0.2,0.4,0.2,0.6c-1.3,1.6-2.7,3.3-4,4.9c-0.3-0.1-0.5-0.2-0.8-0.4c-0.9-0.5-1.5-1.3-1.8-2.1
		C27.7,110.6,29.4,108.9,31.1,107.3z"/>
	<path class="st0" d="M53.8,104.5c-0.6,1.3-0.4,3.1,0.8,3.9c1.1,0.7,2.3,0.4,3.3-0.2c1.5,1.7,3,3.4,4.4,5.2
		c-1.3,0.2-2.8-0.1-4.1-0.5c-0.5-0.2-0.7,0.6-0.2,0.7c1.5,0.5,3.3,0.8,4.8,0.4c0.3,0.4,0.6,0.8,1,1.2c0.3,0.4,0.8-0.2,0.5-0.5
		c-0.2-0.3-0.5-0.6-0.7-0.9c0.4-0.2,0.8-0.3,1.2-0.6c0.7-0.5,1.2-1.1,1.6-1.9c0.4,0.3,0.8,0.7,1.1,1c0.4,0.3,0.9-0.2,0.5-0.5
		c-0.5-0.4-0.9-0.8-1.4-1.3c0.3-0.9,0.2-1.9-0.2-2.7c-0.9-1.9-3.2-2.6-5.2-2.2c0,0,0,0-0.1,0c-1.1-1-2.2-2-3.4-3.1
		c0.6-0.1,1.3-0.2,1.9-0.3c0.5-0.1,0.3-0.8-0.2-0.7c-0.8,0.1-1.6,0.2-2.4,0.4c-0.6-0.6-1.3-1.2-1.9-1.8c-0.4-0.3-0.9,0.2-0.5,0.5
		c0.5,0.5,1.1,1,1.6,1.5c-0.7,0.3-1.4,0.6-1.9,1.2c-0.5-0.6-1.1-1.1-1.6-1.7c-0.3-0.3-0.9,0.2-0.5,0.5c0.6,0.6,1.1,1.2,1.7,1.7
		C54,104.1,53.8,104.3,53.8,104.5z M66,109.9c-1.3-1.2-2.7-2.5-4-3.7C64.4,106.1,66.3,107.8,66,109.9z M61.1,106.4
		c1.6,1.4,3.2,2.9,4.7,4.3c-0.1,0.3-0.3,0.7-0.6,1c-0.6,0.7-1.3,1.2-2.1,1.4c-1.5-1.8-3-3.6-4.6-5.4
		C59.4,107.3,60.3,106.7,61.1,106.4z M55.2,103.8c0.6-0.3,1.2-0.7,1.8-1c0,0,0.1,0,0.1,0c1.1,1,2.3,2.1,3.4,3.1
		c-0.8,0.4-1.5,1-2.3,1.4c-1-1.1-2-2.2-3.1-3.4C55.1,103.9,55.2,103.8,55.2,103.8z M57.4,107.6C57.4,107.6,57.4,107.6,57.4,107.6
		c-3.1-0.3-4-1.4-2.8-3.1C55.6,105.6,56.5,106.6,57.4,107.6z"/>
	<path class="st0" d="M83.4,123.3c1.8-21.9,3.7-43.7,5.5-65.6c0.6-7.4,1.6-15.5-1.1-22.6c-1.3-3.2-3.4-5.9-5.9-8.3
		c-3.7-3.5-9.4-7.4-8.7-13.1c0.9,0,1.7,0,2.6,0.1c0.2,0,0.4,0,0.5-0.1c0.4-0.2,0.8-0.6,0.7-1.1c-0.3-3.3-0.4-6.6-0.7-9.9
		c-0.1-0.6-0.5-0.9-1-0.9c-0.1,0-0.2,0-0.3,0C55.5,2.2,35.9,1,16.3,1.6c-0.2,0-0.4,0.1-0.5,0.2c-0.2,0.1-0.4,0.4-0.4,0.8
		c0,2.9-0.3,5.7-0.3,8.5c0,0.1,0,0.2,0,0.3c0,0.5,0.3,1,0.9,1c0.4,0,0.8,0,1.2,0c0.7,9.3-11.4,13.7-14.9,21.5
		C-1,41.3,0.1,50,0.6,57.8C2,79.4,3.3,101,4.7,122.5c0,0.7,0.5,1.1,1,1.2c23.6,12.3,52.1,15.1,75.3,0.5
		C81.9,124.8,83.3,124.6,83.4,123.3z M40,98.5c-1-0.3-1.9-0.8-2.7-1.4c0,0,0,0,0,0c-2.5-1.7-4.3-4.2-5.2-7.1c1.9,0,3.8,0,5.6,0.1
		c0.2,0.7,0.5,1.5,1,2.1c0.5,0.6,1.2,1.2,2,1.5c-0.3,0.4-0.6,0.8-0.9,1.2c-0.3,0.4,0.2,0.9,0.5,0.5c0.4-0.5,0.8-1,1.2-1.5
		c0.9,0.2,1.9,0.1,2.7-0.3c1.3-0.7,2-2,2.1-3.4c2.6,0,5.2,0.1,7.8,0.1C52.2,96.5,46.6,100.8,40,98.5z M28.1,90.3
		c-3.5,6.4-12.4,9.9-18.5,5c-2.2-1.8-3.5-3.9-4-6c-0.1-1.1-0.1-2.2-0.2-3.3c0.6-5.8,6.3-11,13-11c0,2.7-0.1,5.4-0.1,8.1
		c-1.1-1-2.2-2-3.3-3c0.6-0.1,1.3-0.2,1.9-0.3c0.5-0.1,0.3-0.8-0.2-0.7c-0.8,0.1-1.6,0.2-2.4,0.4c-0.6-0.6-1.3-1.2-1.9-1.8
		c-0.4-0.3-0.9,0.2-0.5,0.5c0.5,0.5,1.1,1,1.6,1.5c-0.7,0.3-1.4,0.6-1.9,1.2c-0.5-0.6-1.1-1.1-1.6-1.7c-0.3-0.3-0.9,0.2-0.5,0.5
		c0.6,0.6,1.1,1.2,1.7,1.7c-0.1,0.2-0.2,0.3-0.3,0.5c-0.6,1.3-0.4,3.1,0.8,3.9c1.1,0.7,2.3,0.4,3.3-0.2c1.5,1.7,3,3.4,4.4,5.2
		c-1.3,0.2-2.8-0.1-4.1-0.5c-0.5-0.2-0.7,0.6-0.2,0.7c1.5,0.5,3.3,0.8,4.8,0.4c0.3,0.4,0.6,0.8,1,1.2c0.3,0.4,0.8-0.2,0.5-0.5
		c-0.2-0.3-0.5-0.6-0.7-0.9c0.4-0.2,0.8-0.3,1.2-0.6c0.3-0.2,0.6-0.5,0.8-0.7c1.8,0,3.7,0,5.5,0.1C28.2,90.1,28.2,90.2,28.1,90.3z
		 M23.3,52.4C22.7,51,23,50.1,24,49.8c0.2,0.9,0.3,1.7,0.4,2.6C24,52.4,23.7,52.4,23.3,52.4z M25.2,52.4c-0.1-0.9-0.3-1.8-0.5-2.7
		c0.7-0.3,1.5-0.2,2.3,0c0.2,0.9,0.5,1.9,0.7,2.8C26.9,52.5,26,52.4,25.2,52.4z M28.5,52.5c-0.2-0.8-0.4-1.7-0.7-2.5
		c0.6,0.2,1.2,0.5,1.7,0.8c0.4,0.2,0.8-0.4,0.4-0.6c-0.7-0.3-1.5-0.7-2.3-1c-0.2-0.9-0.4-1.7-0.7-2.6c-0.1-0.5-0.9-0.3-0.7,0.2
		c0.2,0.7,0.4,1.4,0.6,2.1c-0.7-0.2-1.5-0.2-2.2-0.1c-0.1-0.8-0.3-1.5-0.4-2.3c-0.1-0.5-0.8-0.3-0.7,0.2c0.2,0.8,0.3,1.6,0.4,2.3
		c-0.2,0.1-0.4,0.1-0.6,0.3c-1.1,0.6-1.7,1.9-1.6,3.1c-0.5,0-1,0-1.4,0c-0.7,0-1.7,0.4-1.7,1.3c0,3.7-0.1,7.4-0.1,11.1
		c-1.8-1.3-3.1-3.2-3.7-5.6c-3.1-12.1,11.6-18,19.9-10.8c1.2,1.2,2.1,2.7,2.7,4.2C34.4,52.5,31.4,52.5,28.5,52.5z M21.5,55.4
		c15.8,0.2,31.7,0.3,47.5,0.5c-0.1,10.5-0.2,21-0.3,31.6c-15.8-0.2-31.7-0.3-47.5-0.5C21.3,76.4,21.4,65.9,21.5,55.4z M74.9,56.6
		c0.5,0.6,0.9,1.2,1.2,1.9c0.1,0.2,0.2,0.4,0.2,0.6c-1.3,1.6-2.7,3.3-4,4.9c-0.1,0-0.2-0.1-0.4-0.2c0-1.5,0-3,0-4.4
		C73,58.5,73.9,57.6,74.9,56.6z M74.9,55.5c-1.3-3.3,0.9-3.6,2.7-2.8C76.8,53.7,75.8,54.6,74.9,55.5z M76.8,58.5
		c-0.4-0.8-1.1-1.5-1.5-2.2c1-1,2-2.1,3-3.1c0.5,0.3,0.8,0.7,1.1,1.1c0.1,0.2,0.2,0.4,0.3,0.7C78.8,56.1,77.8,57.3,76.8,58.5z
		 M67.4,90.4c0.4,0,0.7,0,1.1,0c-0.4,0.1-0.8,0.2-1.2,0.1C67.3,90.5,67.4,90.4,67.4,90.4z M71.8,83.8c0-1.2,0-2.5,0-3.7
		c0.2-0.2,0.5-0.5,0.7-0.7c0.5,0.3,0.8,0.7,1.1,1.1c0.1,0.2,0.2,0.4,0.3,0.7C73.2,82,72.5,82.9,71.8,83.8z M71.8,79
		C71.8,79,71.8,79,71.8,79C71.8,79,71.8,79,71.8,79C71.8,79,71.8,79,71.8,79z M44.4,90.1c0.3,0,0.7,0,1,0c0,0.9-0.3,1.7-1,2.2
		c-0.8,0.6-1.6,0.9-2.5,0.8C42.8,92.2,43.6,91.2,44.4,90.1z M41.2,93c-0.3-0.1-0.5-0.2-0.8-0.4c-1-0.6-1.6-1.5-1.9-2.5
		c1.7,0,3.3,0,5,0C42.7,91.1,41.9,92,41.2,93z M12.2,81.4c0-0.1,0.1-0.1,0.1-0.2c0.6-0.3,1.2-0.7,1.8-1c0,0,0.1,0,0.1,0
		c1.1,1,2.3,2.1,3.4,3.1c-0.8,0.4-1.5,1-2.3,1.4C14.3,83.7,13.2,82.6,12.2,81.4z M14.5,85.1C14.5,85.1,14.5,85.1,14.5,85.1
		c-3.1-0.3-4-1.4-2.8-3.1C12.7,83.1,13.6,84.1,14.5,85.1z M18.2,83.9c0,0,0.1,0.1,0.1,0.1c0,1.4,0,2.8,0,4.2c-0.8-1-1.7-2-2.5-2.9
		C16.5,84.7,17.4,84.2,18.2,83.9z M21.6,89.9c-0.4,0.3-0.9,0.6-1.3,0.7c-0.2-0.3-0.4-0.5-0.6-0.8C20.3,89.9,21,89.9,21.6,89.9z
		 M30.1,91.4c0.5,1.3,1.2,2.6,2,3.7c-1.6-0.3-3.3-0.2-4.8,0.1C28.4,94,29.3,92.8,30.1,91.4z M41.6,110.9c-1.3,6.8-7.2,11.6-14.2,9.2
		c-6.9-2.4-11-11.4-7-17.9C27.4,90.9,42.2,99.7,41.6,110.9z M62.8,97.5c6.7,1.7,11.8,8.6,8.2,15.3c-3.5,6.4-12.4,9.9-18.5,5
		C42.5,109.6,51.8,96.2,62.8,97.5z M51.6,98.2c2.2-2,3.9-4.8,4.6-7.9c0.9,1.8,2.2,3.5,3.8,4.8C57,95.4,54,96.5,51.6,98.2z
		 M65.3,95.8c-2.8-1-5.1-3-6.7-5.5c2.1,0,4.1,0,6.2,0.1c0.3,0.3,0.7,0.5,1.1,0.6c-0.3,0.4-0.6,0.8-0.9,1.2c-0.3,0.4,0.2,0.9,0.5,0.5
		c0.4-0.5,0.8-1,1.2-1.5c0.9,0.2,1.9,0.1,2.7-0.3c0.3-0.1,0.5-0.3,0.7-0.5c0.7,0,1.6-0.4,1.6-1.3c0-1.4,0-2.7,0-4.1
		c0.8-1,1.6-2,2.4-3c0.2,0.6,0.3,1.3,0.4,1.9c0.1,0.5,0.8,0.3,0.7-0.2c-0.1-0.8-0.3-1.6-0.6-2.4c0.5-0.7,1.1-1.3,1.6-2
		c0.3-0.4-0.2-0.9-0.5-0.5c-0.5,0.6-0.9,1.2-1.4,1.7c-0.3-0.7-0.7-1.3-1.3-1.8c0.5-0.6,1.1-1.1,1.6-1.7c0.3-0.4-0.2-0.9-0.5-0.5
		c-0.5,0.6-1.1,1.2-1.7,1.8C72.4,78.1,72.2,78,72,78c-0.1,0-0.1,0-0.2-0.1c0-1.3,0-2.7,0-4c4.5,2.2,8,7.2,7.6,12.8
		C78.2,93.4,72.3,98.2,65.3,95.8z M71.9,69.8c0-1.4,0-2.7,0-4.1c0.2-0.2,0.4-0.5,0.6-0.7c0.9,0.2,1.9,0.1,2.7-0.3
		c1.9-1,2.5-3.3,1.9-5.3c0,0,0-0.1,0-0.1c0.9-1.2,1.9-2.3,2.8-3.5c0.2,0.6,0.3,1.3,0.4,1.9c0.1,0.5,0.8,0.3,0.7-0.2
		c-0.1-0.8-0.3-1.6-0.6-2.4c0.5-0.7,1.1-1.3,1.6-2c0.3-0.4-0.2-0.9-0.5-0.5c-0.5,0.6-0.9,1.2-1.4,1.7c-0.3-0.7-0.7-1.3-1.3-1.8
		c0.5-0.6,1.1-1.1,1.6-1.7c0.3-0.4-0.2-0.9-0.5-0.5c-0.5,0.6-1.1,1.2-1.7,1.8c-0.2-0.1-0.3-0.2-0.5-0.3c-1.3-0.6-3.1-0.3-3.9,1
		C73.3,54,73.7,55,74.4,56c-0.8,0.8-1.6,1.6-2.4,2.3c0-1.3,0-2.5,0-3.8c0-0.7-0.4-1.7-1.3-1.7c-2.4,0-4.8,0-7.2-0.1
		c0.2-0.4,0.4-0.7,0.6-1.1c7-11.4,21.9-2.6,21.2,8.6C84,66.9,78.5,71.6,71.9,69.8z M73.1,64.2c1.1-1.4,2.3-2.8,3.4-4.2
		c0.2,1.3,0.1,2.6-0.9,3.4C74.8,64.1,74,64.3,73.1,64.2z M17.2,10.1c0.1-2.1,0.2-4.3,0.2-6.4c18.9-0.5,37.8,0.6,56.7,0.1
		c0.2,2.5,0.3,5.1,0.5,7.6C55.6,11.1,36.4,10.5,17.2,10.1z M9.9,28.5c4.9-4.6,10.5-8.8,10.2-16.1c16.7,0.4,33.4,0.8,50,1.2
		c-0.6,6.7,4.9,10.8,9.3,15c7.2,7,7.5,15.4,6.8,24.4c-1.5-3.5-4.2-6.5-7.9-7.9c-6.8-2.7-14.7,0.9-17.3,7.7
		c-7.1-0.1-14.3-0.1-21.4-0.2c-0.7-2-1.8-3.9-3.2-5.5c-0.1-0.1-0.1-0.2-0.2-0.2c-0.1-0.1-0.2-0.1-0.2-0.2
		c-4.6-3.9-11.4-5.1-16.9-2.1c-6.9,3.7-9.1,13-4.6,19.4c1,1.5,2.4,2.7,3.9,3.6c0,1.7,0,3.5-0.1,5.2C13.1,72.6,7.7,75.2,5,79.8
		c-0.5-7.5-1-14.9-1.4-22.4C2.9,47,1.7,36.3,9.9,28.5z M79.3,121.8c-22.1,13.9-49.2,11-71.6-0.5c-0.6-8.9-1.1-17.8-1.7-26.7
		c1.4,1.9,3.4,3.5,5.7,4.4c2.6,1,5.5,1.1,8.1,0.4c-1.2,1.3-2.1,2.9-2.7,4.6c-2.5,7.7,2.8,16.2,10.3,18.6c7.8,2.5,14.9-3.6,16.3-11.2
		c0,0,0-0.1,0-0.1c0-0.1,0-0.1,0-0.2c0.2-3.5-0.7-7-2.5-9.8c3.4,0.7,6.6-0.2,9.2-2.1c-1.4,1.3-2.6,2.9-3.4,4.7
		c-2.9,6.8,0.6,15,7.5,17.6c7.5,2.9,16.3-1.9,19.1-9.1c2-5.2,0-10.3-3.8-13.6c5.9-0.5,10.7-5.7,11.8-11.7c0,0,0-0.1,0-0.1
		c0-0.1,0-0.1,0-0.2c0.4-5.5-2.2-11.3-6.9-14.2c4.3,0,8-2.5,10.4-6c-1.5,18.4-3.1,36.8-4.6,55.2C80.1,121.5,79.7,121.5,79.3,121.8z"
		/>
	<path class="st0" d="M30.2,76.2c0.1-1.9,0.3-3.4,0.6-4.3c0.1,0,0.3-0.1,0.5-0.1c0.1,0,0.4,0,0.7,0.1c0.3,0.1,0.5,0.1,0.7,0.1
		c0,0.3,0,0.7-0.1,1.2c-0.1,0.5-0.1,0.9-0.1,1.1c0,0.2,0,0.4,0,0.7c0,0.3,0,0.5,0,0.7c0,0.8,0.2,1.3,0.7,1.6
		c0.1,0.1,0.3,0.1,0.7,0.1c0.1,0,0.2,0,0.3-0.1c0.1-0.1,0.1-0.2,0.1-0.2c0-0.3,0-0.7,0-1.1c0-1.2,0.2-3,0.5-5.2
		c0.4-2.4,0.6-4.1,0.6-5.2c-0.1-0.3-0.5-0.5-1.1-0.4c-0.3,0-0.4,0.2-0.5,0.6c-0.3,2.1-0.5,3.8-0.9,5.1c-0.1,0-0.3,0-0.7,0
		c-0.3,0-0.5,0-0.6,0c-0.2,0-0.4-0.1-0.6-0.2c0-0.3,0-0.8,0.1-1.3c0.1-0.6,0.1-1,0.1-1.3c0-0.4,0-0.7-0.1-1c0-0.2-0.2-0.3-0.4-0.3
		c-0.3-0.1-0.5-0.1-0.5-0.2c0,0-0.1,0.1-0.3,0.1c-0.2,0-0.3,0.1-0.3,0.3c0,1-0.1,2.3-0.3,4c-0.3,2-0.4,3.3-0.5,4c0,0,0,0.1,0,0.3
		c0,0.2,0,0.3,0,0.4c0,0.4,0.1,0.7,0.4,0.9C29.3,76.3,29.8,76.3,30.2,76.2z"/>
	<path class="st0" d="M36.1,71.6c0,0.8,0.2,1.5,0.7,2c0.7,0.8,1.4,1.2,2.1,1.2c0.2,0,0.3,0,0.5-0.1c1.3-0.3,2.4-1.3,3.1-2.9
		c0.1-0.3,0.2-0.6,0.2-0.9c0-0.6-0.2-1.3-0.6-2.1c-0.2-0.5-0.7-0.8-1.3-1c-0.8-0.3-1.2-0.5-1.4-0.6c-0.2-0.2-0.4-0.2-0.6-0.2
		c-0.3,0-0.7,0.2-1.1,0.6c-0.3,0.3-0.6,0.7-0.9,1.1C36.4,69.7,36.1,70.6,36.1,71.6z M38.3,69.6C38.3,69.6,38.4,69.5,38.3,69.6
		c0.1,0,0.2,0,0.4,0.1c0.2,0.1,0.3,0.2,0.4,0.1c0.1,0,0.3-0.2,0.6-0.5c0.2-0.2,0.4-0.4,0.6-0.4c0,0,0.1,0,0.2,0
		c0.4,0.2,0.6,0.7,0.7,1.6c0.1,0.6-0.2,1.2-0.7,1.8c-0.5,0.7-1,1-1.6,1c-0.2,0-0.5-0.3-0.9-0.8c-0.2-0.4-0.4-0.8-0.4-1.4
		C37.6,70.5,37.9,70,38.3,69.6z"/>
	<path class="st0" d="M43.5,68.4c-0.2,1.4-0.3,2.6-0.3,3.5c0,1.6,0.2,3,0.7,4.1c0.3,0.7,0.7,1.1,1.2,1.1c0.6,0,1.2-0.3,1.7-1
		c0.8-1,1.3-2.2,1.6-3.4c0.1-0.4,0.4-1.6,1-3.5c0.4-1.4,0.7-2.6,0.8-3.5c-0.2-0.3-0.5-0.4-0.9-0.4c-0.3,0-0.6,0.1-0.7,0.4
		c-0.1,0.2-0.2,0.5-0.2,1s-0.1,0.8-0.2,1c-0.3,0.6-0.6,1.5-0.8,2.6c-0.3,1.4-0.5,2.3-0.6,2.6c-0.3,1-0.7,1.7-1.3,2.3
		c-0.2-0.7-0.3-1.2-0.3-1.5c0-0.5,0-1.1,0-1.7c0-0.6,0-1.5,0.1-2.9c0.1-1.2,0.1-2.2,0.1-2.8c-0.1-0.1-0.3-0.1-0.4-0.2
		c-0.1-0.1-0.3-0.1-0.4-0.1c-0.6,0-0.9,0.4-0.9,1.1C43.5,68.2,43.5,68.5,43.5,68.4z"/>
	<path class="st0" d="M50.6,67.5c0,0.9,0.4,2.2,1.2,3.7c0.8,1.5,1.2,2.7,1.2,3.5c0,0.6-0.1,1.1-0.4,1.7c-0.1,0.1-0.2,0.2-0.4,0.2
		c-0.2,0-0.3,0-0.4,0.1c-0.2,0.2-0.3,0.4-0.3,0.5c0,0.2,0.2,0.5,0.6,0.6c0.1,0,0.2,0.1,0.3,0.1c0.3,0,0.6-0.1,1-0.4
		c0.5-0.3,0.7-0.6,0.8-0.8c0.3-0.6,0.5-1.3,0.5-2c0-0.8-0.3-1.8-0.9-3c-0.9-1.8-1.3-2.8-1.4-2.9c-0.1-0.3-0.2-0.6-0.2-1
		c0-1,0.4-1.8,1-2.4c0.1-0.1,0.1-0.1,0.2-0.1c0,0,0.1,0,0.3,0.1c0.1,0,0.2,0,0.3,0c0.4-0.2,0.5-0.4,0.5-0.6c0-0.1-0.1-0.3-0.2-0.4
		c-0.3-0.3-0.6-0.4-1.2-0.4c-0.3,0-0.6,0.1-0.8,0.2c-0.6,0.3-1.1,0.8-1.4,1.5C50.8,66.1,50.6,66.8,50.6,67.5z"/>
	<path class="st0" d="M56.4,68.7c-0.1,1.1-0.1,1.7-0.2,1.8c0,0.1-0.1,0.2-0.3,0.3c-0.2,0.1-0.3,0.2-0.3,0.3c0,0.2,0.1,0.5,0.5,0.7
		c-0.1,0.9-0.1,1.8,0,2.9c0,0.4,0.2,0.7,0.5,1c0.3,0.3,0.6,0.5,0.9,0.6c1.1,0.3,2.4,0.4,3.9,0.4c0.2,0,0.4-0.1,0.5-0.3
		C62,76.2,62,76,62,75.8c-0.1-0.6-0.3-0.9-0.7-0.8c-0.1,0-0.2,0-0.3,0.1c-0.1,0.1-0.2,0.1-0.3,0.1c-1.4,0-2.5-0.1-3-0.6
		c-0.1-0.2-0.1-0.5-0.1-0.9c0-0.5,0.1-1.3,0.4-2.2c0.3-0.1,0.8-0.2,1.4-0.2c0.7,0,1.2,0,1.4-0.1c0.1,0,0.3,0,0.4-0.1
		c0.2-0.2,0.2-0.2,0.3-0.3c0.1,0,0.1-0.1,0.1-0.2c0-0.1-0.1-0.2-0.3-0.5c-0.2-0.2-0.5-0.2-0.9-0.2c-0.2,0-0.5,0-0.9,0.1
		c-0.4,0.1-0.7,0.1-0.9,0.1c-0.3,0-0.5,0-0.7-0.1c0.1-1.1,0.1-1.8,0.3-2.2c0.5-0.2,1.1-0.4,2-0.6c0.9-0.2,1.6-0.5,2-0.6
		c0.1-0.1,0.1-0.1,0.1-0.2c0-0.1,0-0.2-0.1-0.3c0-0.1-0.1-0.2-0.1-0.3c-0.4-0.3-0.8-0.4-1.2-0.4c-0.1,0-0.2,0-0.2,0
		c-0.6,0.1-1.2,0.3-1.8,0.4c-0.7,0.2-1.3,0.4-1.8,0.6c-0.4,0.2-0.8,0.3-1.2,0.5c-0.4,0.2-0.6,0.5-0.7,0.8
		C55.4,68.3,55.7,68.5,56.4,68.7z"/>
	<path class="st0" d="M81.2,39.4c0.2,0.5,1,0.2,0.8-0.3C78.9,30.8,69.7,27,67,18.4c-0.2-0.5-1-0.2-0.8,0.3
		C68.9,27.3,78.1,31.1,81.2,39.4z"/>
	<path class="st0" d="M76.4,36.2c-1.6-2.2-3.2-4.5-4.8-6.7c-0.3-0.5-1,0.1-0.7,0.5c1.6,2.2,3.2,4.5,4.8,6.7
		C76,37.2,76.7,36.7,76.4,36.2z"/>
	<path class="st0" d="M72.1,34.9c-0.6-0.8-1.2-1.5-1.7-2.3c-0.3-0.5-1.1,0.1-0.7,0.5c0.6,0.8,1.2,1.5,1.7,2.3
		C71.8,35.9,72.5,35.4,72.1,34.9z"/>
</g>
</svg>
