<?xml version="1.0" encoding="utf-8"?>
<!-- Generator: Adobe Illustrator 26.3.1, SVG Export Plug-In . SVG Version: 6.00 Build 0)  -->
<svg version="1.1" id="Layer_1" xmlns="http://www.w3.org/2000/svg" xmlns:xlink="http://www.w3.org/1999/xlink" x="0px" y="0px"
	 viewBox="0 0 516 12" style="enable-background:new 0 0 516 12;" xml:space="preserve">
<style type="text/css">
	.st0{fill:#56C090;stroke:#56C090;stroke-width:3;stroke-linecap:round;}
</style>
<path class="st0" d="M2,8.1c18.6-1.7,37.2-2.9,56.3-3.4C137.4,2.6,216.7,3.6,295.9,5C348,5.9,400.3,6.2,452.6,5.4
	c17.4-0.3,34.9-1.1,52.3-1.1c50.2,0-100.4,0-150.6,0c-92.1-0.1-183.9-2.3-276-2.3c-2.5,0-21.9-0.3-7.4,0.4
	c44.4,2.2,89.9,1.8,134.6,2.7c70.3,1.4,281,6.2,210.7,4.5C303.7,6.9,191.2,3.6,78.3,2.8c-0.2,0-11.8,0.3-7.4-0.2
	c11.7-1.1,23.9-0.2,35.7,0.2"/>
</svg>
